<?xml version="1.0" encoding="UTF-8"?>
<svg xmlns="http://www.w3.org/2000/svg" viewBox="0 0 256 256">
  <defs>
    <style>
      .cls-1 {
        fill: #d900ff;
        stroke: #fff800;
        stroke-miterlimit: 10;
      }
    </style>
  </defs>
  <g id="Layer_1" data-name="Layer 1">
    <g>
      <rect x=".5" y=".5" width="255" height="255" rx="38.5" ry="38.5"/>
      <path d="m217,1c20.95,0,38,17.05,38,38v178c0,20.95-17.05,38-38,38H39c-20.95,0-38-17.05-38-38V39C1,18.05,18.05,1,39,1h178m0-1H39C17.55,0,0,17.55,0,39v178c0,21.45,17.55,39,39,39h178c21.45,0,39-17.55,39-39V39c0-21.45-17.55-39-39-39h0Z"/>
    </g>
  </g>
  <g id="Layer_9" data-name="Layer 9">
    <path class="cls-1" d="m126.1,6.25c-23.34.16-46.06,10.78-57.95,31.49-11.61,20.23-17.59,42.5-16.09,59.3.75,8.4,3.28,15.31,7.56,20.29,4.28,4.99,10.33,8.31,19.28,9.26l5.65.61-1.54,5.47c-1.2,4.25-1.93,8.35-1.93,12.8,0,13.89,2.21,40.77,9.51,63.49,3.65,11.36,8.59,21.66,14.79,28.82,6.2,7.16,13.28,11.22,22.51,11.22s16.33-4.06,22.53-11.22c6.2-7.16,11.14-17.46,14.79-28.82,7.3-22.72,9.51-49.59,9.51-63.49,0-4.44-.72-8.55-1.93-12.8l-1.52-5.41,5.59-.66c8.81-1.05,14.93-4.3,19.25-9.1,4.32-4.81,6.93-11.39,7.71-19.52,1.55-16.27-4.6-38.37-17.89-60.13-13.1-21.46-36.44-31.75-59.79-31.6h-.03Zm-39.66,64c12.56,0,22.64,10.06,22.64,22.62s-10.08,22.64-22.64,22.64-22.62-10.08-22.62-22.64,10.06-22.62,22.62-22.62h0Zm82.95,0c12.56,0,22.64,10.06,22.64,22.62s-10.08,22.64-22.64,22.64-22.62-10.08-22.62-22.64c0-12.56,10.06-22.62,22.62-22.62Zm-83.48,18.03c-3.4,0-6.05,2.67-6.05,6.07s2.65,6.05,6.05,6.05,6.07-2.65,6.07-6.05-2.67-6.07-6.07-6.07h0Zm84.38,0c-3.4,0-6.05,2.67-6.05,6.07,0,3.4,2.65,6.05,6.05,6.05s6.07-2.65,6.07-6.05-2.67-6.07-6.07-6.07h0Zm-41.83,26.67c19.92,0,35.39,18.5,35.39,40.38,0,10.24-1.26,28.87-5.93,45.57-2.33,8.35-5.47,16.23-10.11,22.38-4.64,6.16-11.28,10.69-19.35,10.69s-14.71-4.54-19.35-10.69c-4.64-6.16-7.78-14.03-10.11-22.38-4.66-16.7-5.94-35.32-5.94-45.57,0-21.88,15.49-40.38,35.4-40.38h0Zm0,9.6c-9.21,0-17.55,5.88-22.13,14.93h44.23c-4.57-9.05-12.9-14.93-22.11-14.93h0Zm-14.02,89.37c.75,1.3,1.52,2.51,2.33,3.58,3.48,4.62,7.03,6.87,11.69,6.87s8.19-2.25,11.67-6.87c.81-1.07,1.58-2.28,2.33-3.58h-28.02,0Z"/>
  </g>
</svg>