<?xml version="1.0" encoding="UTF-8"?>
<svg xmlns="http://www.w3.org/2000/svg" viewBox="0 0 256 256">
  <defs>
    <style>
      .cls-1 {
        fill: #fff;
      }

      .cls-2 {
        fill: #f2f2f2;
      }

      .cls-2, .cls-3 {
        stroke: #fff;
        stroke-miterlimit: 10;
      }

      .cls-3 {
        fill: none;
        stroke-linecap: round;
        stroke-width: 8px;
      }
    </style>
  </defs>
  <g id="Layer_1" data-name="Layer 1">
    <g>
      <rect x=".5" y=".5" width="255" height="255" rx="38.5" ry="38.5"/>
      <path d="m217,1c20.95,0,38,17.05,38,38v178c0,20.95-17.05,38-38,38H39c-20.95,0-38-17.05-38-38V39C1,18.05,18.05,1,39,1h178m0-1H39C17.55,0,0,17.55,0,39v178c0,21.45,17.55,39,39,39h178c21.45,0,39-17.55,39-39V39c0-21.45-17.55-39-39-39h0Z"/>
    </g>
  </g>
  <g id="Layer_12" data-name="Layer 12">
    <path class="cls-1" d="m247.51,129.58c-4.95-4.61-12.26-11.5-21-20-23.02-22.39-25.41-28.36-39-38-6.48-4.59-18.36-12.74-36-17-5.67-1.37-24.45-5.37-47.51.42-17.96,4.5-30.06,12.79-36,17-13.59,9.64-15.98,15.61-39,38-8.74,8.5-16.05,15.39-21,20,11.64,11.39,24.65,23.79,39,37,7.45,6.86,18.32,16.74,34,27,5.14,3.36,7.87,5.13,12,7,1.77.8,3.7,1.58,5.74,2.3,9.04,3.66,18.91,5.7,29.26,5.7,17.6,0,33.83-5.83,46.88-15.66,15.48-10.17,26.24-19.95,33.63-26.75,14.35-13.21,27.36-25.61,39-37Z"/>
    <circle cx="128" cy="130" r="75"/>
    <path class="cls-1" d="m143.32,71.7c-2.86-4.22-6.35-8.45-12.05-12.69l-3.99-.02c-5.74,4.18-9.27,8.37-12.16,12.56,0,0-4.85,7.3-6.76,18.9-1.85,11.25,3.24,38.19,18.5,69.53l3.99.02c15.52-31.18,20.83-58.06,19.07-69.33-1.81-11.62-6.6-18.97-6.6-18.97Z"/>
    <circle class="cls-2" cx="129" cy="185" r="10.5"/>
    <path class="cls-3" d="m91.5,89.5c-2.12,1.78-18.71,16.27-18,40,.65,21.97,15.62,35,18,37"/>
    <path class="cls-3" d="m166.99,89.28c2.12,1.78,18.71,16.27,18,40-.65,21.97-15.62,35-18,37"/>
  </g>
</svg>