<?xml version="1.0" encoding="UTF-8"?>
<svg xmlns="http://www.w3.org/2000/svg" viewBox="0 0 256 256">
  <defs>
    <style>
      .cls-1 {
        fill: #6d0000;
      }

      .cls-2 {
        fill: #d30000;
      }

      .cls-3 {
        fill: #ffcaca;
      }
    </style>
  </defs>
  <g id="Layer_1" data-name="Layer 1">
    <g>
      <rect x=".5" y=".5" width="255" height="255" rx="38.5" ry="38.5"/>
      <path d="m217,1c20.95,0,38,17.05,38,38v178c0,20.95-17.05,38-38,38H39c-20.95,0-38-17.05-38-38V39C1,18.05,18.05,1,39,1h178m0-1H39C17.55,0,0,17.55,0,39v178c0,21.45,17.55,39,39,39h178c21.45,0,39-17.55,39-39V39c0-21.45-17.55-39-39-39h0Z"/>
    </g>
  </g>
  <g id="Layer_9" data-name="Layer 9">
    <path class="cls-2" d="m123.94,61.37c-7.7,30.01-19.25,50.38-29.34,68.11-12.15,21.36-21.97,38.6-21.97,66.02,0,12.86,6.32,24.02,16,32.18,9.68,8.15,22.69,13.06,35.25,13.06s25.67-4.62,34.98-12.24c9.3-7.62,15.18-18.05,15.18-30.19,0-26.27-9.52-44.37-21.33-66.73-9.8-18.55-21.02-39.98-28.76-70.2h0Z"/>
    <path class="cls-1" d="m123.33,147.36c2.64,0,5.22.25,7.72.72-12.73,3.67-22.04,15.83-22.04,30.08,0,17.12,13.41,31.23,30.07,31.23,11.81,0,21.98-7.11,26.91-17.34-.72,23.33-19.53,41.9-42.66,41.9s-42.69-19.31-42.69-43.29,19.1-43.29,42.69-43.29h0Z"/>
    <path class="cls-3" d="m114.5,127.27c-6.6,16.32-23.5,26.2-25.49,23.71-.65-.82.55-2.65,11.63-23.44,5.82-10.91,8.76-16.43,10.39-19.78,7.99-16.39,10.75-26.09,11.78-25.83.74.19-.4,5.26-4.81,28.91-2.47,13.23-2.58,14.13-3.51,16.43Z"/>
    <ellipse class="cls-3" cx="85.77" cy="159.36" rx="6.5" ry="4.02" transform="translate(-95.12 153.96) rotate(-60)"/>
    <circle class="cls-3" cx="139" cy="179" r="22"/>
    <path class="cls-2" d="m49.47,32c-4.08,16.86-10.2,28.31-15.54,38.28-6.43,12-11.64,21.69-11.64,37.1,0,7.22,3.34,13.5,8.47,18.08,5.13,4.58,12.02,7.34,18.67,7.34s13.6-2.59,18.52-6.88c4.93-4.28,8.04-10.14,8.04-16.97,0-14.76-5.04-24.94-11.3-37.5-5.19-10.43-11.13-22.47-15.23-39.45h0Z"/>
    <path class="cls-1" d="m49.15,80.32c1.4,0,2.76.14,4.09.4-6.74,2.06-11.67,8.89-11.67,16.9,0,9.62,7.1,17.55,15.92,17.55,6.25,0,11.64-3.99,14.25-9.75-.38,13.11-10.34,23.54-22.59,23.54s-22.61-10.85-22.61-24.33,10.11-24.33,22.61-24.33h0Z"/>
    <path class="cls-3" d="m44.47,69.03c-3.49,9.17-12.44,14.72-13.5,13.32-.35-.46.29-1.49,6.16-13.17,3.08-6.13,4.64-9.23,5.5-11.11,4.23-9.21,5.69-14.66,6.24-14.51.39.11-.21,2.96-2.55,16.25-1.31,7.43-1.37,7.94-1.86,9.23Z"/>
    <ellipse class="cls-3" cx="29.26" cy="87.06" rx="3.61" ry="2.16" transform="translate(-61.62 73.75) rotate(-63.09)"/>
    <ellipse class="cls-3" cx="57.44" cy="98.1" rx="11.65" ry="12.36"/>
    <path class="cls-2" d="m206.32,29.72c-4.08,16.86-10.2,28.31-15.54,38.28-6.43,12-11.64,21.69-11.64,37.1,0,7.22,3.34,13.5,8.47,18.08,5.13,4.58,12.02,7.34,18.67,7.34s13.6-2.59,18.52-6.88c4.93-4.28,8.04-10.14,8.04-16.97,0-14.76-5.04-24.94-11.3-37.5-5.19-10.43-11.13-22.47-15.23-39.45h0Z"/>
    <path class="cls-1" d="m206,78.04c1.4,0,2.76.14,4.09.4-6.74,2.06-11.67,8.89-11.67,16.9,0,9.62,7.1,17.55,15.92,17.55,6.25,0,11.64-3.99,14.25-9.75-.38,13.11-10.34,23.54-22.59,23.54s-22.61-10.85-22.61-24.33,10.11-24.33,22.61-24.33h0Z"/>
    <path class="cls-3" d="m201.32,66.75c-3.49,9.17-12.44,14.72-13.5,13.32-.35-.46.29-1.49,6.16-13.17,3.08-6.13,4.64-9.23,5.5-11.11,4.23-9.21,5.69-14.66,6.24-14.51.39.11-.21,2.96-2.55,16.25-1.31,7.43-1.37,7.94-1.86,9.23Z"/>
    <ellipse class="cls-3" cx="186.11" cy="84.78" rx="3.61" ry="2.16" transform="translate(26.29 212.38) rotate(-63.09)"/>
    <ellipse class="cls-3" cx="214.3" cy="95.82" rx="11.65" ry="12.36"/>
  </g>
</svg>