<?xml version="1.0" encoding="UTF-8"?>
<svg xmlns="http://www.w3.org/2000/svg" viewBox="0 0 256 256">
  <defs>
    <style>
      .cls-1 {
        fill: #fff;
      }
    </style>
  </defs>
  <g id="Layer_1" data-name="Layer 1">
    <g>
      <rect x=".5" y=".5" width="255" height="255" rx="38.5" ry="38.5"/>
      <path d="m217,1c20.95,0,38,17.05,38,38v178c0,20.95-17.05,38-38,38H39c-20.95,0-38-17.05-38-38V39C1,18.05,18.05,1,39,1h178m0-1H39C17.55,0,0,17.55,0,39v178c0,21.45,17.55,39,39,39h178c21.45,0,39-17.55,39-39V39c0-21.45-17.55-39-39-39h0Z"/>
    </g>
  </g>
  <g id="Layer_9" data-name="Layer 9">
    <path class="cls-1" d="m207.47,34.55l12.97,12.97L45.51,222.43l-12.97-12.97L207.47,34.55Zm-125.98,93.77c0-25.69,20.84-46.52,46.53-46.51,5.33,0,10.61.92,15.63,2.71l23.02-23.02c-12.5-4-25.55-6.01-38.68-5.97-15.31.04-30.49,2.85-44.8,8.28-7.12,2.73-14.01,6.03-20.61,9.86-6.45,3.76-12.62,7.99-18.47,12.64-5.49,4.35-10.71,9.05-15.61,14.06-4.23,4.28-8.25,8.77-12.03,13.45l-2.37,2.95-2.08,2.79c-1.3,1.7-2.4,3.3-3.29,4.6-.89,1.3-1.58,2.41-2.04,3.11l-.7,1.09.7,1.09c.46.7,1.15,1.83,2.04,3.11.89,1.27,1.99,2.9,3.29,4.6l2.08,2.79,2.37,2.95c3.78,4.68,7.8,9.17,12.03,13.45,4.9,5.01,10.11,9.71,15.61,14.06,2.53,2.01,5.15,3.95,7.86,5.84l32.22-32.22c-1.8-5.05-2.72-10.37-2.71-15.72h0Zm167.81-1.11c-.46-.71-1.15-1.86-2.04-3.12-.89-1.26-1.99-2.92-3.29-4.63-1.3-1.83-2.79-3.71-4.45-5.76-3.78-4.7-7.8-9.21-12.03-13.5-4.9-5.02-10.11-9.73-15.61-14.09-3.03-2.4-6.14-4.69-9.33-6.87l-31.49,31.49c9.72,23.78-1.68,50.94-25.46,60.66-11.28,4.61-23.92,4.61-35.2,0l-22.97,22.97c13.07,4.44,26.77,6.72,40.57,6.77,15.3.05,30.48-2.69,44.8-8.09,7.12-2.72,14.02-6.01,20.61-9.84,6.45-3.76,12.63-7.98,18.47-12.64,5.5-4.36,10.71-9.07,15.61-14.09,4.23-4.3,8.25-8.8,12.03-13.5,1.67-2.06,3.15-3.96,4.45-5.76,1.3-1.71,2.4-3.31,3.29-4.63.89-1.32,1.58-2.45,2.04-3.12l.7-1.1-.7-1.11Z"/>
  </g>
</svg>