<?xml version="1.0" encoding="UTF-8"?>
<svg xmlns="http://www.w3.org/2000/svg" viewBox="0 0 256 256">
  <defs>
    <style>
      .cls-1 {
        fill: #ffabab;
      }

      .cls-2 {
        stroke: #000;
        stroke-linecap: round;
        stroke-miterlimit: 10;
        stroke-width: 10px;
      }

      .cls-2, .cls-3 {
        fill: #ffbdbd;
      }
    </style>
  </defs>
  <g id="Layer_1" data-name="Layer 1">
    <g>
      <rect x=".5" y=".5" width="255" height="255" rx="38.5" ry="38.5"/>
      <path d="m217,1c20.95,0,38,17.05,38,38v178c0,20.95-17.05,38-38,38H39c-20.95,0-38-17.05-38-38V39C1,18.05,18.05,1,39,1h178m0-1H39C17.55,0,0,17.55,0,39v178c0,21.45,17.55,39,39,39h178c21.45,0,39-17.55,39-39V39c0-21.45-17.55-39-39-39h0Z"/>
    </g>
  </g>
  <g id="Layer_3" data-name="Layer 3">
    <g>
      <circle class="cls-3" cx="131" cy="196" r="57.5"/>
      <path class="cls-1" d="m131,139c31.43,0,57,25.57,57,57s-25.57,57-57,57-57-25.57-57-57,25.57-57,57-57m0-1c-32.03,0-58,25.97-58,58s25.97,58,58,58,58-25.97,58-58-25.97-58-58-58h0Z"/>
    </g>
    <g>
      <path class="cls-3" d="m126.7,121.36s-.96-.04-1.9-.23c-.45-.15-49.7-22.82-53.95-68.96-.54-5.82-.44-12.02,3.87-17.93,4.25-5.83,13.3-12.65,24.82-12.65.59,0,1.19.02,1.79.06,3.72.23,10.92,1.47,17.42,7.16,4.59,4.02,6.97,8.7,8.16,11.91l.54,1.45.64-1.41c5-11.02,15.17-18.34,26.55-19.12.65-.04,1.31-.07,1.96-.07,10.38,0,19.62,5.75,24.17,11.46,3.95,4.95,5.2,10.49,4.34,19.12-4.66,46.36-56.42,69.01-56.93,69.17-.36.03-.8.04-1.09.04-.22,0-.36,0-.37,0Z"/>
      <path class="cls-1" d="m156.59,22.22c10.17,0,19.22,5.63,23.68,11.22,3.83,4.81,5.05,10.21,4.2,18.66-4.56,45.33-54.19,67.66-56.42,68.59-.37.03-.73.04-.98.04-.2,0-.33,0-.34,0,0,0-.86-.04-1.72-.2-1.57-.61-13.83-6.75-25.9-17.65-11.42-10.31-25.48-27.49-27.62-50.76-.52-5.69-.43-11.76,3.75-17.5,4.49-6.17,13.75-12.39,24.31-12.39.58,0,1.17.02,1.75.05,3.64.23,10.69,1.44,17.04,7.01,4.49,3.93,6.82,8.51,7.98,11.65l1.07,2.9,1.28-2.82c4.9-10.8,14.87-17.99,26.01-18.74.64-.04,1.28-.07,1.92-.07m0-1.27c-.66,0-1.33.02-2.01.07-11.62.79-22.04,8.36-27.08,19.49-.97-2.63-3.26-7.72-8.33-12.17-7.08-6.2-14.99-7.14-17.79-7.32-.61-.04-1.22-.06-1.83-.06-11.56,0-20.93,6.87-25.33,12.91-4.16,5.71-4.6,11.68-3.99,18.36,4.25,46.16,53.61,69.35,54.45,69.52,1,.21,2,.24,2,.24,0,0,.15,0,.39,0,.31,0,.78,0,1.24-.06.74-.07,52.73-23.08,57.42-69.72.77-7.62.07-13.89-4.47-19.58-4.22-5.29-13.43-11.7-24.67-11.7h0Z"/>
    </g>
    <g>
      <path class="cls-3" d="m56.47,145.26c-.28,0-29.41-2.04-44.01-27.33-1.86-3.22-3.53-6.8-3.15-11.16.43-4.97,3.32-10.95,8.84-13.1,1.44-.56,2.99-.85,4.61-.85,5.5,0,10.81,3.21,13.85,8.37l.65-.31c-2.78-7.37-.36-15.59,5.62-19.13,1.96-1.16,4.18-1.74,6.62-1.74,2.93,0,6.05.88,8.58,2.41,3.21,1.95,5.33,4.85,7.31,10,10.66,27.69-7.17,52.02-7.37,52.23-.28.17-.64.32-.64.32,0,0-.45.19-.92.29h.02Z"/>
      <path class="cls-1" d="m49.49,80.37c2.86,0,5.92.86,8.39,2.36,3.14,1.91,5.21,4.75,7.16,9.82,5.37,13.95,3.25,27.1.52,35.67-2.85,8.97-7.09,15.29-7.77,16.13-.28.17-.56.29-.56.29,0,0-.38.16-.79.25-1.08-.06-29.37-2.39-43.67-27.15-1.83-3.17-3.47-6.68-3.11-10.95.42-4.86,3.24-10.7,8.61-12.79,1.4-.55,2.91-.82,4.48-.82,5.37,0,10.56,3.14,13.54,8.19l1.3-.62c-2.72-7.2-.37-15.24,5.47-18.69,1.9-1.12,4.06-1.69,6.44-1.69m0-.73c-2.3,0-4.65.52-6.81,1.79-5.94,3.51-8.72,11.79-5.78,19.57-3.25-5.51-8.84-8.55-14.16-8.55-1.63,0-3.24.29-4.74.87-5.96,2.33-8.67,8.74-9.07,13.41-.36,4.19,1.08,7.7,3.2,11.37,14.4,24.94,42.89,27.51,44.33,27.51.03,0,.04,0,.05,0,.52-.11,1-.31,1-.31s.38-.16.74-.39c.32-.21,18.11-24.96,7.46-52.63-1.74-4.52-3.79-7.94-7.46-10.18-2.33-1.42-5.49-2.47-8.76-2.47h0Z"/>
    </g>
    <g>
      <path class="cls-3" d="m202.04,144.9c-.42-.09-.84-.26-.89-.28h0c-.05-.02-.38-.17-.69-.37-.14-.17-17.98-24.49-7.32-52.19,1.98-5.15,4.1-8.05,7.31-10,2.52-1.53,5.65-2.41,8.58-2.41,2.44,0,4.67.59,6.62,1.74,5.99,3.54,8.4,11.76,5.62,19.13l.65.31c3.04-5.16,8.35-8.37,13.85-8.37,1.62,0,3.17.29,4.61.85,5.51,2.15,8.41,8.13,8.84,13.1.37,4.36-1.29,7.94-3.15,11.16-14.61,25.3-43.73,27.33-44.01,27.33h-.02Z"/>
      <path class="cls-1" d="m209.03,80.01h0c2.37,0,4.54.57,6.44,1.69,5.84,3.45,8.19,11.48,5.47,18.69l1.3.62c2.98-5.05,8.16-8.19,13.54-8.19,1.57,0,3.08.28,4.48.82,5.37,2.09,8.19,7.93,8.61,12.79.37,4.26-1.28,7.78-3.11,10.95-14.29,24.74-42.54,27.08-43.67,27.15-.41-.09-.78-.24-.79-.25-.02,0-.29-.13-.56-.29-.69-.85-4.92-7.16-7.77-16.13-2.73-8.57-4.85-21.72.52-35.67,1.95-5.07,4.02-7.91,7.16-9.82,2.47-1.5,5.52-2.36,8.39-2.36m0-.73c-3.27,0-6.44,1.05-8.76,2.47-3.67,2.24-5.72,5.66-7.46,10.18-10.65,27.67,7.14,52.42,7.46,52.63.36.23.74.39.74.39,0,0,.47.2,1,.31,0,0,.03,0,.05,0,1.44,0,29.92-2.57,44.33-27.51,2.12-3.67,3.56-7.18,3.2-11.37-.4-4.66-3.1-11.08-9.07-13.41-1.5-.59-3.11-.87-4.74-.87-5.32,0-10.92,3.04-14.16,8.55,2.94-7.78.17-16.06-5.78-19.57-2.16-1.27-4.51-1.79-6.81-1.79h0Z"/>
    </g>
    <g>
      <path class="cls-3" d="m203.04,60.6c-.14,0-.24,0-.27,0-.34-.08-.68-.23-.68-.23,0,0-.27-.12-.53-.27-.12-.12-14.14-16.88-7.8-34.16,1.18-3.23,2.57-5,4.79-6.1,1.53-.76,3.41-1.18,5.29-1.18,2.05,0,4.03.51,5.72,1.48,4.51,2.58,6.66,8.03,5,12.66l-.81,2.27,1.26-2.06c1.83-2.99,5.15-4.77,8.88-4.77,1.43,0,2.82.27,4.13.8,4.11,1.66,6.5,5.68,7.05,8.93.48,2.83-.56,5.06-1.74,7.05-9.21,15.43-29.44,15.61-30.29,15.61Z"/>
      <path class="cls-1" d="m203.84,18.89h0c2.01,0,3.94.5,5.6,1.45,4.41,2.52,6.51,7.84,4.89,12.36l-1.63,4.55,2.52-4.12c1.78-2.91,5.02-4.65,8.67-4.65,1.4,0,2.76.26,4.04.78,4.02,1.63,6.36,5.56,6.9,8.74.46,2.75-.55,4.93-1.71,6.88-9.14,15.31-29.23,15.48-30.08,15.48-.11,0-.18,0-.22,0-.32-.08-.62-.21-.62-.21,0,0-.22-.1-.45-.23-.63-.72-13.95-16.99-7.75-33.89,1.16-3.16,2.51-4.89,4.67-5.97,1.49-.75,3.33-1.16,5.18-1.16m0-.5c-2.06,0-3.97.5-5.4,1.21-2.55,1.27-3.87,3.4-4.92,6.24-6.39,17.42,7.66,34.31,7.91,34.46.27.17.56.29.56.29,0,0,.35.15.74.25.02,0,.13,0,.31,0,2.67,0,21.7-.98,30.51-15.73,1.36-2.28,2.24-4.48,1.78-7.22-.51-3.04-2.77-7.33-7.2-9.12-1.35-.55-2.79-.82-4.23-.82-3.6,0-7.14,1.7-9.09,4.89,1.76-4.9-.64-10.4-5.11-12.96-1.89-1.08-3.93-1.51-5.84-1.51h0Z"/>
    </g>
    <g>
      <path class="cls-3" d="m49.81,60.98c-.86,0-21.08-.18-30.29-15.61-1.19-1.99-2.22-4.22-1.74-7.05.55-3.25,2.94-7.27,7.05-8.93,1.31-.53,2.7-.8,4.13-.8,3.74,0,7.06,1.78,8.88,4.77l1.26,2.06-.81-2.27c-1.66-4.63.49-10.08,5-12.66,1.69-.97,3.67-1.48,5.72-1.48,1.88,0,3.76.42,5.29,1.18,2.22,1.11,3.61,2.88,4.79,6.1,6.34,17.28-7.68,34.04-7.83,34.18-.22.13-.48.24-.5.25,0,0-.34.15-.7.23-.01,0-.1,0-.25,0h0Z"/>
      <path class="cls-1" d="m49.01,19.27c1.84,0,3.68.41,5.18,1.16,2.16,1.08,3.51,2.81,4.67,5.97,6.2,16.9-7.12,33.17-7.75,33.89-.22.13-.45.23-.45.23,0,0-.3.13-.62.21-.04,0-.12,0-.22,0-.85,0-20.94-.18-30.08-15.48-1.16-1.95-2.17-4.13-1.71-6.88.53-3.18,2.87-7.11,6.9-8.74,1.28-.52,2.64-.78,4.04-.78,3.65,0,6.89,1.74,8.67,4.65l2.52,4.12-1.63-4.55c-1.62-4.52.48-9.83,4.89-12.36,1.65-.95,3.59-1.45,5.6-1.45m0-.5c-1.91,0-3.95.43-5.84,1.51-4.47,2.56-6.87,8.05-5.11,12.96-1.95-3.19-5.49-4.89-9.09-4.89-1.43,0-2.87.27-4.23.82-4.43,1.79-6.69,6.08-7.2,9.12-.46,2.73.41,4.94,1.78,7.22,8.81,14.75,27.84,15.73,30.51,15.73.18,0,.29,0,.31,0,.38-.09.74-.25.74-.25,0,0,.29-.12.56-.29.24-.15,14.3-17.04,7.91-34.46-1.04-2.84-2.36-4.97-4.92-6.24-1.43-.71-3.34-1.21-5.4-1.21h0Z"/>
    </g>
    <path class="cls-2" d="m101,213c5.59,15.71,17.19,25.65,29.78,25.5,12.39-.15,23.72-10.03,29.22-25.5"/>
  </g>
</svg>