<?xml version="1.0" encoding="UTF-8"?>
<svg xmlns="http://www.w3.org/2000/svg" viewBox="0 0 256 256">
  <defs>
    <style>
      .cls-1 {
        fill: #c2f4ff;
      }

      .cls-2 {
        fill: #fff;
      }

      .cls-3 {
        stroke-width: 6.51px;
      }

      .cls-3, .cls-4 {
        stroke: #000;
      }

      .cls-3, .cls-4, .cls-5, .cls-6 {
        fill: none;
        stroke-linecap: round;
        stroke-miterlimit: 10;
      }

      .cls-4 {
        stroke-width: 5.07px;
      }

      .cls-5 {
        stroke-width: 7.14px;
      }

      .cls-5, .cls-6 {
        stroke: #fff;
      }

      .cls-6 {
        stroke-width: 11.47px;
      }
    </style>
  </defs>
  <g id="Layer_1" data-name="Layer 1">
    <g>
      <rect x=".5" y=".5" width="255" height="255" rx="38.5" ry="38.5"/>
      <path d="m217,1c20.95,0,38,17.05,38,38v178c0,20.95-17.05,38-38,38H39c-20.95,0-38-17.05-38-38V39C1,18.05,18.05,1,39,1h178m0-1H39C17.55,0,0,17.55,0,39v178c0,21.45,17.55,39,39,39h178c21.45,0,39-17.55,39-39V39c0-21.45-17.55-39-39-39h0Z"/>
    </g>
  </g>
  <g id="Layer_6" data-name="Layer 6">
    <g>
      <ellipse class="cls-1" cx="135" cy="185" rx="71.65" ry="67.65"/>
      <path d="m135,117.7c39.31,0,71.3,30.19,71.3,67.3s-31.98,67.3-71.3,67.3-71.3-30.19-71.3-67.3,31.98-67.3,71.3-67.3m0-.7c-39.76,0-72,30.44-72,68s32.24,68,72,68,72-30.44,72-68-32.24-68-72-68h0Z"/>
    </g>
    <ellipse cx="104.61" cy="180.64" rx="17.73" ry="18.81"/>
    <path class="cls-4" d="m109.31,143.73c-2.18-.22-13.38-1.11-23.37,6.97-10.28,8.31-11.58,19.89-11.78,21.97"/>
    <ellipse cx="165.39" cy="180.64" rx="17.73" ry="18.81"/>
    <path class="cls-4" d="m160.69,143.73c2.18-.22,13.38-1.11,23.37,6.97,10.28,8.31,11.58,19.89,11.78,21.97"/>
    <path class="cls-3" d="m103.65,220.8c6.11,11.6,11.47,15.63,16.09,15.54,10.89-.23,14.4-23.26,26.99-25.09,7.26-1.06,14.85,5.33,22.1,15.1"/>
    <line class="cls-6" x1="135.77" y1="57.65" x2="135.23" y2="85.28"/>
    <path class="cls-6" d="m116.86,36.49c-.21-.47-4.02-9.43,3.24-16.88,4.54-4.67,12.18-7.47,19.45-6.22,10.5,1.8,15.21,11.2,16.2,16.88,1.77,10.16-6.17,21.04-19.99,27.1"/>
    <g>
      <circle class="cls-2" cx="136" cy="101" r="7.65"/>
      <path d="m136,93.7c4.03,0,7.3,3.28,7.3,7.3s-3.28,7.3-7.3,7.3-7.3-3.28-7.3-7.3,3.28-7.3,7.3-7.3m0-.7c-4.42,0-8,3.58-8,8s3.58,8,8,8,8-3.58,8-8-3.58-8-8-8h0Z"/>
    </g>
    <line class="cls-6" x1="46.5" y1="83.36" x2="63.08" y2="105.46"/>
    <path class="cls-6" d="m18.57,78.33c-.45-.24-8.97-4.96-7.84-15.3.71-6.48,5-13.39,11.49-16.88,9.38-5.04,18.88-.54,23.17,3.32,7.65,6.92,8.1,20.38.94,33.66"/>
    <g>
      <path class="cls-2" d="m73.38,125.03c-2.37,0-4.57-1.07-6.03-2.94-1.26-1.61-1.81-3.61-1.57-5.64.25-2.03,1.27-3.84,2.88-5.1,1.36-1.06,2.99-1.62,4.71-1.62,2.37,0,4.57,1.07,6.03,2.94,2.6,3.32,2.01,8.14-1.32,10.74-1.36,1.06-2.99,1.62-4.71,1.62Z"/>
      <path d="m73.37,110.07h0c2.27,0,4.37,1.02,5.76,2.81,1.2,1.54,1.73,3.45,1.49,5.39-.24,1.94-1.21,3.66-2.75,4.87-1.3,1.01-2.85,1.55-4.49,1.55-2.27,0-4.37-1.02-5.76-2.81-2.48-3.17-1.92-7.77,1.26-10.25,1.3-1.01,2.85-1.55,4.49-1.55m0-.7c-1.72,0-3.46.55-4.92,1.7-3.48,2.72-4.1,7.75-1.38,11.23,1.58,2.02,3.93,3.07,6.31,3.07,1.72,0,3.46-.55,4.92-1.7,3.48-2.72,4.1-7.75,1.38-11.23-1.58-2.02-3.93-3.07-6.31-3.07h0Z"/>
    </g>
    <line class="cls-6" x1="211.49" y1="80.63" x2="196.36" y2="103.75"/>
    <path class="cls-6" d="m206.71,52.66c.07-.51,1.6-10.12,11.71-12.58,6.33-1.54,14.29.15,19.78,5.06,7.94,7.1,6.94,17.57,4.76,22.91-3.9,9.55-16.41,14.55-31.33,12.35"/>
    <g>
      <path class="cls-2" d="m188.66,125.13c-1.43,0-2.84-.4-4.06-1.17-1.73-1.09-2.94-2.78-3.39-4.77s-.11-4.04.98-5.77c1.41-2.25,3.83-3.59,6.49-3.59,1.43,0,2.84.4,4.06,1.17,3.57,2.24,4.66,6.97,2.42,10.55-1.41,2.25-3.83,3.59-6.49,3.59Z"/>
      <path d="m188.67,110.17h0c1.37,0,2.71.39,3.87,1.12,3.41,2.14,4.45,6.66,2.31,10.07-1.34,2.14-3.66,3.43-6.2,3.43-1.37,0-2.71-.39-3.87-1.12-1.65-1.04-2.8-2.65-3.24-4.56s-.11-3.86.93-5.51c1.34-2.14,3.66-3.43,6.2-3.43m0-.7c-2.66,0-5.27,1.33-6.79,3.75-2.35,3.74-1.21,8.68,2.53,11.03,1.32.83,2.79,1.22,4.24,1.22,2.66,0,5.27-1.33,6.79-3.75,2.35-3.74,1.21-8.68-2.53-11.03-1.32-.83-2.79-1.22-4.24-1.22h0Z"/>
    </g>
    <line class="cls-5" x1="78.61" y1="45.53" x2="84.14" y2="61.8"/>
    <path class="cls-5" d="m63.07,37.15c-.22-.23-4.35-4.67-1.68-10.56,1.67-3.69,5.55-6.95,10.06-7.75,6.52-1.17,11.27,3.33,13.05,6.45,3.19,5.57.84,13.62-5.96,20.09"/>
    <g>
      <path class="cls-2" d="m87.92,75.6c-2,0-3.8-1.26-4.48-3.14-.43-1.2-.37-2.49.17-3.64.54-1.15,1.5-2.02,2.69-2.46.52-.19,1.07-.29,1.62-.29,2,0,3.8,1.26,4.48,3.14.43,1.2.37,2.49-.17,3.64-.54,1.15-1.5,2.02-2.69,2.46-.52.19-1.07.29-1.62.29Z"/>
      <path d="m87.92,66.29c1.91,0,3.62,1.21,4.27,3,.41,1.14.36,2.38-.16,3.47-.52,1.1-1.43,1.93-2.57,2.34-.5.18-1.02.27-1.55.27-1.91,0-3.62-1.21-4.27-3-.41-1.14-.36-2.38.16-3.47.52-1.1,1.43-1.93,2.57-2.34.5-.18,1.02-.27,1.55-.27m0-.43c-.56,0-1.13.1-1.69.3-2.59.93-3.92,3.79-2.99,6.37.73,2.03,2.64,3.29,4.68,3.29.56,0,1.13-.1,1.69-.3,2.59-.93,3.92-3.79,2.99-6.37-.73-2.03-2.64-3.29-4.68-3.29h0Z"/>
    </g>
    <line class="cls-5" x1="182.02" y1="44.6" x2="176.57" y2="60.91"/>
    <path class="cls-5" d="m174.71,28.53c-.04-.32-.64-6.35,5.06-9.43,3.56-1.93,8.62-2.17,12.7-.09,5.9,3.02,6.96,9.47,6.49,13.03-.83,6.36-7.57,11.35-16.9,12.39"/>
    <g>
      <path class="cls-2" d="m174.12,75.15c-.48,0-.96-.07-1.42-.22-2.51-.78-3.91-3.46-3.12-5.96.62-2,2.45-3.34,4.54-3.34.48,0,.96.07,1.42.22,2.51.78,3.91,3.46,3.12,5.96-.62,2-2.45,3.34-4.54,3.34Z"/>
      <path d="m174.12,65.84h0c.46,0,.91.07,1.36.21,1.16.36,2.11,1.15,2.67,2.23.56,1.08.67,2.31.31,3.46-.6,1.91-2.34,3.19-4.34,3.19-.46,0-.91-.07-1.36-.21-1.16-.36-2.11-1.15-2.67-2.23-.56-1.08-.67-2.31-.31-3.46.6-1.91,2.34-3.19,4.34-3.19m0-.43c-2.12,0-4.08,1.37-4.75,3.5-.82,2.62.64,5.42,3.27,6.23.49.15.99.23,1.49.23,2.12,0,4.08-1.37,4.75-3.5.82-2.62-.64-5.42-3.27-6.23-.49-.15-.99-.23-1.49-.23h0Z"/>
    </g>
  </g>
</svg>