<?xml version="1.0" encoding="UTF-8"?>
<svg xmlns="http://www.w3.org/2000/svg" viewBox="0 0 256 256">
  <defs>
    <style>
      .cls-1, .cls-2, .cls-3, .cls-4, .cls-5, .cls-6 {
        stroke-miterlimit: 10;
      }

      .cls-1, .cls-2, .cls-4, .cls-5 {
        stroke: #000;
      }

      .cls-1, .cls-2, .cls-5 {
        fill: #fff;
      }

      .cls-1, .cls-2, .cls-5, .cls-7 {
        fill-rule: evenodd;
      }

      .cls-1, .cls-3 {
        stroke-width: 3px;
      }

      .cls-2, .cls-6 {
        stroke-width: 4px;
      }

      .cls-3, .cls-4, .cls-6 {
        fill: none;
      }

      .cls-3, .cls-6 {
        stroke: #fff;
      }

      .cls-4 {
        stroke-linecap: round;
        stroke-width: 6.13px;
      }

      .cls-8 {
        fill: #fff9bd;
      }

      .cls-5 {
        stroke-width: 2px;
      }
    </style>
  </defs>
  <g id="Layer_1" data-name="Layer 1">
    <g>
      <rect x=".5" y=".5" width="255" height="255" rx="38.5" ry="38.5"/>
      <path d="m217,1c20.95,0,38,17.05,38,38v178c0,20.95-17.05,38-38,38H39c-20.95,0-38-17.05-38-38V39C1,18.05,18.05,1,39,1h178m0-1H39C17.55,0,0,17.55,0,39v178c0,21.45,17.55,39,39,39h178c21.45,0,39-17.55,39-39V39c0-21.45-17.55-39-39-39h0Z"/>
    </g>
  </g>
  <g id="Layer_7" data-name="Layer 7">
    <g>
      <circle class="cls-8" cx="128.5" cy="151.5" r="96.87"/>
      <path d="m128.5,55.26c53.07,0,96.24,43.17,96.24,96.24s-43.17,96.24-96.24,96.24-96.24-43.17-96.24-96.24,43.17-96.24,96.24-96.24m0-1.26c-53.85,0-97.5,43.65-97.5,97.5s43.65,97.5,97.5,97.5,97.5-43.65,97.5-97.5-43.65-97.5-97.5-97.5h0Z"/>
    </g>
    <path class="cls-4" d="m64.51,165.86c-16.86-17.3-15.59-43-1.73-55.18,12.76-11.2,36.8-11.48,47.33,2.95,8.47,11.61,6.8,30.81-5.01,39.9-9.89,7.61-24.12,5.67-31.8-4.35-6.14-8.01-4.71-19.45,3.2-25.54,6.33-4.87,15.44-3.63,20.35,2.79,3.93,5.13,3.01,12.45-2.05,16.35-4.05,3.12-9.88,2.32-13.02-1.78-2.19-2.85-2.1-8.36,1.31-10.46,2.32-1.42,5.71-1,8.34,1.14"/>
    <path class="cls-4" d="m149.39,166.13c-16.86-17.3-15.59-43-1.73-55.18,12.76-11.2,36.8-11.48,47.33,2.95,8.47,11.61,6.8,30.81-5.01,39.9-9.89,7.61-24.12,5.67-31.8-4.35-6.14-8.01-4.71-19.45,3.2-25.54,6.33-4.87,15.44-3.63,20.35,2.79,3.93,5.13,3.01,12.45-2.05,16.35-4.05,3.12-9.88,2.32-13.02-1.78-2.19-2.85-2.1-8.36,1.31-10.46,2.32-1.42,5.71-1,8.34,1.14"/>
    <path class="cls-7" d="m178.33,221.27c-3.53,4.14-19.68-10.07-49.32-10.3-30.16-.24-47.02,14.2-50.13,10.3-4.32-5.41,20.4-42.97,53.36-41.21,30.38,1.62,50.76,35.73,46.09,41.21Z"/>
    <ellipse class="cls-6" cx="77" cy="47.5" rx="71.83" ry="15.55" transform="translate(-13.24 40.98) rotate(-27.54)"/>
    <ellipse class="cls-3" cx="207.22" cy="61.9" rx="8.64" ry="37.15" transform="translate(54.1 214.63) rotate(-61.56)"/>
    <path class="cls-2" d="m38.98,67.97l-8.63.29c-.32.01-.62.18-.8.45l-4.66,7.27c-.44.69-1.48.57-1.76-.2l-2.94-8.12c-.11-.3-.36-.54-.68-.62l-8.36-2.18c-.79-.21-1-1.23-.36-1.73l6.81-5.31c.26-.2.4-.51.38-.84l-.51-8.62c-.05-.82.86-1.33,1.54-.87l7.15,4.84c.27.18.61.22.91.1l8.04-3.15c.76-.3,1.53.41,1.31,1.19l-2.39,8.3c-.09.31-.02.65.19.9l5.48,6.68c.52.63.09,1.58-.73,1.61Z"/>
    <path class="cls-1" d="m132.99,49.22l-12.53.42c-.47.02-.9.26-1.16.66l-6.76,10.56c-.64,1-2.15.83-2.55-.28l-4.27-11.79c-.16-.44-.53-.78-.98-.9l-12.13-3.17c-1.15-.3-1.45-1.78-.52-2.51l9.89-7.7c.37-.29.58-.74.55-1.21l-.74-12.51c-.07-1.18,1.25-1.93,2.23-1.27l10.38,7.03c.39.26.88.32,1.32.15l11.67-4.57c1.1-.43,2.22.59,1.89,1.73l-3.47,12.04c-.13.45-.03.94.27,1.3l7.95,9.69c.75.92.13,2.3-1.06,2.34Z"/>
    <path class="cls-5" d="m199.8,61.42l-8.63.29c-.32.01-.62.18-.8.45l-4.66,7.27c-.44.69-1.48.57-1.76-.2l-2.94-8.12c-.11-.3-.36-.54-.68-.62l-8.36-2.18c-.79-.21-1-1.23-.36-1.73l6.81-5.31c.26-.2.4-.51.38-.84l-.51-8.62c-.05-.82.86-1.33,1.54-.87l7.15,4.84c.27.18.61.22.91.1l8.04-3.15c.76-.3,1.53.41,1.31,1.19l-2.39,8.3c-.09.31-.02.65.19.9l5.48,6.68c.52.63.09,1.58-.73,1.61Z"/>
    <path class="cls-5" d="m242.8,68.42l-8.63.29c-.32.01-.62.18-.8.45l-4.66,7.27c-.44.69-1.48.57-1.76-.2l-2.94-8.12c-.11-.3-.36-.54-.68-.62l-8.36-2.18c-.79-.21-1-1.23-.36-1.73l6.81-5.31c.26-.2.4-.51.38-.84l-.51-8.62c-.05-.82.86-1.33,1.54-.87l7.15,4.84c.27.18.61.22.91.1l8.04-3.15c.76-.3,1.53.41,1.31,1.19l-2.39,8.3c-.09.31-.02.65.19.9l5.48,6.68c.52.63.09,1.58-.73,1.61Z"/>
  </g>
</svg>