<?xml version="1.0" encoding="UTF-8"?>
<svg xmlns="http://www.w3.org/2000/svg" viewBox="0 0 256 256">
  <defs>
    <style>
      .cls-1 {
        fill: #fff;
      }
    </style>
  </defs>
  <g id="Layer_1" data-name="Layer 1">
    <g>
      <rect x=".5" y=".5" width="255" height="255" rx="38.5" ry="38.5"/>
      <path d="m217,1c20.95,0,38,17.05,38,38v178c0,20.95-17.05,38-38,38H39c-20.95,0-38-17.05-38-38V39C1,18.05,18.05,1,39,1h178m0-1H39C17.55,0,0,17.55,0,39v178c0,21.45,17.55,39,39,39h178c21.45,0,39-17.55,39-39V39c0-21.45-17.55-39-39-39h0Z"/>
    </g>
  </g>
  <g id="Layer_9" data-name="Layer 9">
    <path d="m80.41,106.44c14.72.04,29.17,4.92,38.48,17.08-8.68,5.22-17.47,9.37-26.4,12.33,1.29-2.02,2.01-4.29,2.01-6.7,0-8.31-8.64-15.05-19.31-15.05s-19.3,6.74-19.3,15.05c0,4.86,2.96,9.18,7.55,11.94-.63.02-1.25.03-1.88.04-.63,0-1.25,0-1.88,0h0c-10.68-.11-21.53-1.99-32.61-5.85,3.51-15.51,28.81-28.89,53.35-28.82h0Z"/>
    <path d="m171.5,106.44c24.54-.07,49.84,13.31,53.35,28.82-11.08,3.86-21.93,5.74-32.61,5.85h0c-.63,0-1.26,0-1.88,0-.63,0-1.25-.02-1.88-.03,4.59-2.75,7.55-7.07,7.55-11.94,0-8.31-8.64-15.05-19.3-15.05s-19.31,6.74-19.31,15.05c0,2.41.72,4.68,2.01,6.7-8.92-2.95-17.72-7.1-26.4-12.33,9.3-12.16,23.75-17.04,38.48-17.08h0Z"/>
    <path class="cls-1" d="m127.96,4.78C68.15,4.78,8.35,34.68,8.35,79.54c0,29.9,22.43,44.85,22.43,74.76,0,22.43-7.48,22.43-7.48,37.38,0,7.47,23.93,15.95,44.85,22.43v29.9h119.61v-29.9s45.14-13.93,44.85-22.43c-.46-13.93-7.48-14.95-7.48-37.38,0-14.95,22.75-45.56,22.43-74.76,0-44.85-59.8-74.76-119.61-74.76h0Zm-44.85,89.71c16.51,0,29.9,13.39,29.9,29.9s-13.39,29.9-29.9,29.9c-16.51,0-29.9-13.39-29.9-29.9s13.39-29.9,29.9-29.9h0Zm89.71,0c16.51,0,29.9,13.39,29.9,29.9s-13.39,29.9-29.9,29.9-29.9-13.39-29.9-29.9,13.39-29.9,29.9-29.9h0Zm-44.85,52.33c7.48,0,22.43,29.9,22.43,37.38q0,14.95-7.48,14.95h-29.9q-7.48,0-7.48-14.95c0-7.48,14.95-37.38,22.43-37.38h0Z"/>
  </g>
</svg>