<?xml version="1.0" encoding="UTF-8"?>
<svg xmlns="http://www.w3.org/2000/svg" viewBox="0 0 256 256">
  <defs>
    <style>
      .cls-1 {
        fill: #fff;
      }
    </style>
  </defs>
  <g id="Layer_1" data-name="Layer 1">
    <g>
      <rect x=".5" y=".5" width="255" height="255" rx="38.5" ry="38.5"/>
      <path d="m217,1c20.95,0,38,17.05,38,38v178c0,20.95-17.05,38-38,38H39c-20.95,0-38-17.05-38-38V39C1,18.05,18.05,1,39,1h178m0-1H39C17.55,0,0,17.55,0,39v178c0,21.45,17.55,39,39,39h178c21.45,0,39-17.55,39-39V39c0-21.45-17.55-39-39-39h0Z"/>
    </g>
  </g>
  <g id="Layer_9" data-name="Layer 9">
    <path class="cls-1" d="m233.58,15.94l12.42,12.42L34.11,240.25l-12.42-12.42L233.58,15.94Zm-121.5,105.89c-5.14-5.94-12.16-8.72-19.2-7.73-.09,4.85-.2,9.64-.32,14.38-.14,5.76-.27,11.31-.38,16.65l21.39-21.39c-.46-.66-.95-1.29-1.48-1.9h-.01Zm-11.71,86.76c3.66,1.91,9.9-1.73,14.49-5.11l5.12,6.95c-6.65,4.9-12.38,7.33-17.32,7.33-2.19.01-4.35-.51-6.29-1.52-4.86-2.54-8.02-7.91-9.99-16.06l-24.42,24.4c13.07,36.14,80.57,21.63,80.57-35.69,0-33.14,49.93-35.04,61.83-78.34,3.18-11.58,4.26-22.18,3.52-31.86l-114.15,114.15c1.72,10.82,4.42,14.59,6.64,15.74h0Zm-16.45-80.32c.31-12.69.63-25.81.66-39.35.03-13.24,2.74-24.2,8.06-32.58,4.64-7.43,11.72-13.01,20.03-15.78,20.21-6.96,46.18,1.67,55.89,14.04l-6.79,5.34c-7.6-9.68-29.93-16.83-46.28-11.2-10.61,3.64-17.57,12.07-20.57,24.66,3.27-3.04,6.93-5.64,10.88-7.73,11.15-5.76,22.26-5.33,32.13,1.24l-4.78,7.19c-6.26-4.16-13.06-4.9-20.2-2.16-11.23,4.27-18.9,14.94-19.71,17.39,0,5.43-.05,10.78-.16,16.07,9.49-.9,18.77,2.94,25.57,10.8.39.45.77.91,1.13,1.38l74.76-74.77c-7.08-9.49-16.65-17.49-28.08-24.08-27.52-15.94-106.63-6.4-106.63,55v103.8l23.63-23.65c.08-7.8.26-16.33.48-25.59h0Z"/>
  </g>
</svg>