<?xml version="1.0" encoding="UTF-8"?>
<svg xmlns="http://www.w3.org/2000/svg" viewBox="0 0 256 256">
  <defs>
    <style>
      .cls-1 {
        fill: #5ded3a;
      }
    </style>
  </defs>
  <g id="Layer_1" data-name="Layer 1">
    <g>
      <rect x=".5" y=".5" width="255" height="255" rx="38.5" ry="38.5"/>
      <path d="m217,1c20.95,0,38,17.05,38,38v178c0,20.95-17.05,38-38,38H39c-20.95,0-38-17.05-38-38V39C1,18.05,18.05,1,39,1h178m0-1H39C17.55,0,0,17.55,0,39v178c0,21.45,17.55,39,39,39h178c21.45,0,39-17.55,39-39V39c0-21.45-17.55-39-39-39h0Z"/>
    </g>
  </g>
  <g id="Layer_9" data-name="Layer 9">
    <path class="cls-1" d="m75.5,18.76c-10.5,12.19-16.9,28.05-16.9,45.41,0,12.52,3.31,24.28,9.11,34.44-11.71.06-23.56,3.07-34.41,9.34-15.03,8.68-25.58,22.14-30.89,37.34,5.04-8.24,12.24-15.19,21.19-20.35,12.36-7.13,26.18-9.36,39.25-7.29-1.35,5.31-2.08,10.87-2.08,16.6,0,30.54,20.48,56.38,48.42,64.54-4.79,12.13-13.55,22.81-25.74,29.84-8.95,5.17-18.74,7.61-28.4,7.86,15.82,3.02,32.91.92,47.95-7.78,10.8-6.24,19.3-14.95,25.21-25.01,5.9,10.06,14.4,18.78,25.21,25.02,15.04,8.69,32.13,10.78,47.95,7.76-9.66-.25-19.45-2.67-28.4-7.84-12.22-7.06-21.01-17.77-25.79-29.96,27.74-8.28,48.02-34.03,48.02-64.43,0-5.7-.72-11.23-2.06-16.52,13.19-2.19,27.18.01,39.68,7.23,8.95,5.17,16.14,12.12,21.19,20.35-5.31-15.2-15.86-28.66-30.89-37.33-10.79-6.23-22.57-9.25-34.21-9.34,5.8-10.17,9.12-21.94,9.12-34.46,0-17.38-6.74-33.21-17.26-45.41,4.61,8.49,7.39,18.18,7.39,28.51,0,14.57-5.2,27.92-13.84,38.3-12.06-11.49-28.39-18.56-46.32-18.56s-33.94,6.93-45.98,18.23c-8.48-10.33-13.56-23.55-13.56-37.97,0-10.34,2.44-20.02,7.05-28.51h0Zm52.49,58.19c15.29,0,29.15,5.95,39.41,15.67-9.24,7.97-20.94,13.16-33.81,14.29v10.53c6.87,1.91,11.85,8.16,11.85,15.67,0,1.27-.14,2.5-.42,3.69l9.27,5.05c7.45-10.41,17.77-17.8,29.23-21.72,1.14,4.51,1.75,9.24,1.75,14.11,0,26.01-17.23,47.89-40.92,54.91-2.69-12.72-1.26-26.35,4.85-38.76l-9.27-5.05c-2.86,2.51-6.62,4.04-10.77,4.04s-8.16-1.62-11.05-4.29l-10.65,5.73c5.96,12.34,7.3,25.86,4.6,38.47-23.91-6.89-41.36-28.88-41.36-55.05,0-4.92.62-9.69,1.78-14.24,11.77,3.93,22.36,11.52,29.92,22.26l10.82-5.83c-.22-1.07-.33-2.18-.33-3.32,0-7.11,4.46-13.1,10.77-15.34v-10.82c-13.27-1.02-25.32-6.36-34.76-14.62,10.23-9.54,23.97-15.39,39.1-15.39Z"/>
  </g>
</svg>