<?xml version="1.0" encoding="UTF-8"?>
<svg xmlns="http://www.w3.org/2000/svg" viewBox="0 0 256 256">
  <defs>
    <style>
      .cls-1 {
        fill: #fff;
      }

      .cls-2 {
        fill: none;
        stroke: #fff;
        stroke-miterlimit: 10;
        stroke-width: 16.07px;
      }
    </style>
  </defs>
  <g id="Layer_1" data-name="Layer 1">
    <g>
      <rect x=".5" y=".5" width="255" height="255" rx="38.5" ry="38.5"/>
      <path d="m217,1c20.95,0,38,17.05,38,38v178c0,20.95-17.05,38-38,38H39c-20.95,0-38-17.05-38-38V39C1,18.05,18.05,1,39,1h178m0-1H39C17.55,0,0,17.55,0,39v178c0,21.45,17.55,39,39,39h178c21.45,0,39-17.55,39-39V39c0-21.45-17.55-39-39-39h0Z"/>
    </g>
  </g>
  <g id="Layer_11" data-name="Layer 11">
    <path class="cls-1" d="m181,107h-105c-14.67,38.67-29.33,77.33-44,116h193c-14.67-38.67-29.33-77.33-44-116Z"/>
    <ellipse class="cls-2" cx="128.25" cy="81.5" rx="30.75" ry="31"/>
    <path class="cls-1" d="m60.33,61.71c-3.49-8.45-8.63-14.49-12.79-18.48,0,0-.02-.01-.04-.02-.8-.33-4.42,5.99-6.55,10.91-1.11,2.58-2.49,6.32-3.44,11.14-2.35-3.64-4.7-7.53-6.99-11.67-5.99-10.81-10.41-21.19-13.71-30.61-.1,6.84.62,17.56,5.23,29.61,5.36,14.02,13.27,22.74,15.43,25.04,3.02,3.21,5.85,5.63,7.98,7.31-.42-2.4-.82-6.5.28-11.4s3.24-8.43,4.65-10.41c2.11,4.1,4.21,8.4,6.26,12.88,4.17,9.12,7.66,17.91,10.58,26.23-.51-9.51-1.6-17.35-2.58-23.05-1.38-7.98-2.14-12.26-4.3-17.48Z"/>
    <path class="cls-1" d="m41.87,103.5c-4.41-3.43-8.97-5.09-12.39-5.95,0,0-.01,0-.03,0-.53.06-.54,4.52-.18,7.78.19,1.71.59,4.11,1.55,6.96-2.35-1.22-4.78-2.58-7.25-4.09-6.46-3.94-11.95-8.11-16.56-12.12,2.02,3.66,5.64,9.15,11.74,14.16,7.09,5.83,13.94,8.07,15.78,8.64,2.58.79,4.81,1.22,6.45,1.47-.95-1.15-2.41-3.21-3.3-6.15s-.83-5.46-.68-6.94c2.37,1.54,4.78,3.19,7.23,4.95,4.98,3.58,9.49,7.2,13.56,10.74-3.15-4.9-6.1-8.74-8.35-11.47-3.15-3.82-4.85-5.87-7.58-7.99Z"/>
    <path class="cls-1" d="m197.79,61.51c3.49-8.45,8.63-14.49,12.79-18.48,0,0,.02-.01.04-.02.8-.33,4.42,5.99,6.55,10.91,1.11,2.58,2.49,6.32,3.44,11.14,2.35-3.64,4.7-7.53,6.99-11.67,5.99-10.81,10.41-21.19,13.71-30.61.1,6.84-.62,17.56-5.23,29.61-5.36,14.02-13.27,22.74-15.43,25.04-3.02,3.21-5.85,5.63-7.98,7.31.42-2.4.82-6.5-.28-11.4s-3.24-8.43-4.65-10.41c-2.11,4.1-4.21,8.4-6.26,12.88-4.17,9.12-7.66,17.91-10.58,26.23.51-9.51,1.6-17.35,2.58-23.05,1.38-7.98,2.14-12.26,4.3-17.48Z"/>
    <path class="cls-1" d="m216.24,103.3c4.41-3.43,8.97-5.09,12.39-5.95,0,0,.01,0,.03,0,.53.06.54,4.52.18,7.78-.19,1.71-.59,4.11-1.55,6.96,2.35-1.22,4.78-2.58,7.25-4.09,6.46-3.94,11.95-8.11,16.56-12.12-2.02,3.66-5.64,9.15-11.74,14.16-7.09,5.83-13.94,8.07-15.78,8.64-2.58.79-4.81,1.22-6.45,1.47.95-1.15,2.41-3.21,3.3-6.15s.83-5.46.68-6.94c-2.37,1.54-4.78,3.19-7.23,4.95-4.98,3.58-9.49,7.2-13.56,10.74,3.15-4.9,6.1-8.74,8.35-11.47,3.15-3.82,4.85-5.87,7.58-7.99Z"/>
  </g>
</svg>