<?xml version="1.0" encoding="UTF-8"?>
<svg xmlns="http://www.w3.org/2000/svg" viewBox="0 0 256 256">
  <defs>
    <style>
      .cls-1 {
        fill: red;
      }
    </style>
  </defs>
  <g id="Layer_1" data-name="Layer 1">
    <g>
      <rect x=".5" y=".5" width="255" height="255" rx="38.5" ry="38.5"/>
      <path d="m217,1c20.95,0,38,17.05,38,38v178c0,20.95-17.05,38-38,38H39c-20.95,0-38-17.05-38-38V39C1,18.05,18.05,1,39,1h178m0-1H39C17.55,0,0,17.55,0,39v178c0,21.45,17.55,39,39,39h178c21.45,0,39-17.55,39-39V39c0-21.45-17.55-39-39-39h0Z"/>
    </g>
  </g>
  <g id="Layer_2" data-name="Layer 2">
    <ellipse class="cls-1" cx="46.51" cy="72.3" rx="34.51" ry="36.27"/>
    <path class="cls-1" d="m172.82,56.46c-9.9-13.28-22.46-17.79-31.5-21.01-15.75-5.62-29.41-4.78-37.43-3.55-1.91.3-10.25,1.86-15.84,10.59-2.9,4.53-3.89,9.16-4.27,11.87v25.22c0,9.25,6.54,16.81,14.54,16.81,7.47,1.17,14.94,2.33,22.41,3.5,3.49,1.24,8.55,3.61,13.32,8.41,7.54,7.57,7.18,13.98,12.11,18.21,8.73,7.5,27.58,2.67,36.34-9.81,12.13-17.28.94-45.97-9.69-60.24Z"/>
    <rect class="cls-1" x="89.33" y="100.33" width="18.03" height="100.58" rx="5.55" ry="5.55"/>
    <rect class="cls-1" x="69.92" y="100.33" width="13.87" height="85.74" rx="4.27" ry="4.27"/>
    <path class="cls-1" d="m154.59,227.28c-7.2-12.36-14.39-24.73-21.59-37.09,10.48-12.28,20.96-24.56,31.44-36.84,4.08-4.77,4.14-12.64.13-17.49s-10.63-4.92-14.71-.15c-12.55,13.76-25.11,27.53-37.66,41.29v24.73c9.51,13.91,19.03,27.82,28.54,41.73,3.74,4.53,9.92,4.59,13.73.14,3.81-4.45,3.86-11.79.12-16.32Z"/>
    <path class="cls-1" d="m233.48,190.9c-12.6-1.31-25.19-2.62-37.79-3.94-1.25-17.43-2.51-34.87-3.76-52.3-.48-6.78-5.54-11.86-11.23-11.29-5.7.57-9.97,6.58-9.49,13.36.89,20.28,1.78,40.56,2.67,60.83,5.34,5.26,10.67,10.53,16.01,15.79,15.08.18,30.15.36,45.23.54,5.32-.53,9.31-6.14,8.86-12.47-.45-6.33-5.17-11.07-10.49-10.53Z"/>
  </g>
</svg>