<?xml version="1.0" encoding="UTF-8"?>
<svg xmlns="http://www.w3.org/2000/svg" viewBox="0 0 256 256">
  <defs>
    <style>
      .cls-1 {
        fill: #fffb5c;
      }
    </style>
  </defs>
  <g id="Layer_1" data-name="Layer 1">
    <g>
      <rect x=".5" y=".5" width="255" height="255" rx="38.5" ry="38.5"/>
      <path d="m217,1c20.95,0,38,17.05,38,38v178c0,20.95-17.05,38-38,38H39c-20.95,0-38-17.05-38-38V39C1,18.05,18.05,1,39,1h178m0-1H39C17.55,0,0,17.55,0,39v178c0,21.45,17.55,39,39,39h178c21.45,0,39-17.55,39-39V39c0-21.45-17.55-39-39-39h0Z"/>
    </g>
  </g>
  <g id="Layer_2" data-name="Layer 2">
    <g>
      <ellipse class="cls-1" cx="46.51" cy="72.3" rx="33.94" ry="35.71"/>
      <path class="cls-1" d="m46.51,37.16c18.4,0,33.37,15.76,33.37,35.14s-14.97,35.14-33.37,35.14-33.37-15.76-33.37-35.14,14.97-35.14,33.37-35.14m0-1.14c-19.06,0-34.51,16.24-34.51,36.27s15.45,36.27,34.51,36.27,34.51-16.24,34.51-36.27-15.45-36.27-34.51-36.27h0Z"/>
    </g>
    <g>
      <path class="cls-1" d="m157.16,129.62c-4.36,0-8.06-1.2-10.69-3.46-2.2-1.9-3.33-4.27-4.63-7.02-1.57-3.3-3.34-7.05-7.45-11.17-3.79-3.81-8.33-6.67-13.5-8.51l-22.49-3.52c-7.83,0-14.15-7.34-14.15-16.36v-25.22c.6-4.23,2.05-8.28,4.2-11.63,5.1-7.98,12.55-9.92,15.52-10.38,3.88-.59,7.82-.89,11.7-.89,8.7,0,17.28,1.49,25.51,4.42,9.05,3.23,21.44,7.65,31.28,20.86,11.03,14.8,21.33,43.11,9.68,59.7-5.53,7.88-15.57,13.18-24.98,13.18,0,0,0,0,0,0Z"/>
      <path class="cls-1" d="m115.66,31.92c8.65,0,17.18,1.48,25.35,4.39,8.99,3.21,21.31,7.6,31.07,20.7,10.95,14.69,21.19,42.76,9.68,59.16-5.45,7.77-15.34,12.98-24.6,12.98-4.25,0-7.84-1.16-10.39-3.34-2.13-1.83-3.24-4.16-4.52-6.86-1.58-3.34-3.38-7.12-7.54-11.3-3.84-3.86-8.44-6.76-13.67-8.62l-.08-.03h-.09s-11.83-1.86-11.83-1.86l-10.58-1.65h-.07s-.07-.01-.07-.01c-7.51,0-13.62-7.13-13.62-15.89v-25.15c.6-4.21,2.03-8.17,4.12-11.44,5-7.82,12.3-9.72,15.2-10.17,3.86-.59,7.77-.89,11.63-.89m0-.92c-4.64,0-8.64.42-11.77.9-1.91.3-10.25,1.86-15.84,10.59-2.9,4.53-3.89,9.16-4.27,11.87v25.22c0,9.25,6.54,16.81,14.54,16.81,7.47,1.17,14.94,2.33,22.41,3.5,3.49,1.24,8.55,3.61,13.32,8.41,7.54,7.57,7.18,13.98,12.11,18.21,2.83,2.43,6.72,3.57,10.99,3.57,8.9,0,19.43-4.94,25.35-13.37,12.13-17.28.94-45.97-9.69-60.24-9.9-13.28-22.46-17.79-31.5-21.01-9.6-3.42-18.42-4.45-25.66-4.45h0Z"/>
    </g>
    <g>
      <rect class="cls-1" x="89.79" y="100.79" width="17.1" height="99.66" rx="5.09" ry="5.09"/>
      <path class="cls-1" d="m101.8,101.25c2.55,0,4.63,2.08,4.63,4.63v89.47c0,2.55-2.08,4.63-4.63,4.63h-6.92c-2.55,0-4.63-2.08-4.63-4.63v-89.47c0-2.55,2.08-4.63,4.63-4.63h6.92m0-.92h-6.92c-3.05,0-5.55,2.5-5.55,5.55v89.47c0,3.05,2.5,5.55,5.55,5.55h6.92c3.05,0,5.55-2.5,5.55-5.55v-89.47c0-3.05-2.5-5.55-5.55-5.55h0Z"/>
    </g>
    <g>
      <rect class="cls-1" x="70.38" y="100.79" width="12.95" height="84.82" rx="3.81" ry="3.81"/>
      <path class="cls-1" d="m79.51,101.25c1.85,0,3.35,1.5,3.35,3.35v77.2c0,1.85-1.5,3.35-3.35,3.35h-5.32c-1.85,0-3.35-1.5-3.35-3.35v-77.2c0-1.85,1.5-3.35,3.35-3.35h5.32m0-.92h-5.32c-2.35,0-4.27,1.92-4.27,4.27v77.2c0,2.35,1.92,4.27,4.27,4.27h5.32c2.35,0,4.27-1.92,4.27-4.27v-77.2c0-2.35-1.92-4.27-4.27-4.27h0Z"/>
    </g>
    <g>
      <path class="cls-1" d="m147.67,246.43c-2.49,0-4.83-1.16-6.57-3.27l-28.43-41.58v-24.41l37.54-41.16c1.87-2.18,4.33-3.38,6.95-3.38s5.19,1.25,7.06,3.52c3.88,4.7,3.83,12.28-.12,16.89l-31.66,37.09,21.75,37.37c3.66,4.44,3.61,11.49-.07,15.79-1.73,2.02-4.02,3.13-6.45,3.13Z"/>
      <path class="cls-1" d="m157.16,133.09c2.54,0,4.92,1.19,6.71,3.35,3.75,4.53,3.69,11.85-.12,16.3l-17.29,20.26-14.15,16.58-.42.5.33.56,4.74,8.15,16.84,28.94.04.07.05.06c3.48,4.21,3.43,11-.11,15.14-1.64,1.92-3.81,2.97-6.1,2.97s-4.54-1.09-6.19-3.07l-28.35-41.46v-24.09l37.44-41.05c1.77-2.07,4.11-3.21,6.59-3.21m0-.92c-2.64,0-5.27,1.17-7.29,3.53-12.55,13.76-25.11,27.53-37.66,41.29v24.73c9.51,13.91,19.03,27.82,28.54,41.73,1.89,2.29,4.41,3.44,6.92,3.44s4.92-1.1,6.8-3.3c3.81-4.45,3.86-11.79.12-16.32-7.2-12.36-14.39-24.73-21.59-37.09,10.48-12.28,20.96-24.56,31.44-36.84,4.08-4.77,4.14-12.64.13-17.49-2.03-2.45-4.72-3.68-7.42-3.68h0Z"/>
    </g>
    <g>
      <path class="cls-1" d="m190.07,212.91l-15.74-15.54-2.66-60.65c-.46-6.56,3.61-12.33,9.08-12.88.28-.03.55-.04.83-.04,5.12,0,9.47,4.79,9.9,10.9l3.79,52.69,38.17,3.98c.35-.03.61-.04.86-.04,4.76,0,8.81,4.46,9.21,10.15.43,6.09-3.35,11.45-8.42,11.98l-45.02-.53Z"/>
      <path class="cls-1" d="m181.57,123.33v.92c4.88,0,9.03,4.6,9.44,10.47l1.68,23.38,2.08,28.92.06.77.77.08,15.27,1.59,22.52,2.35h.09s.09,0,.09,0c.24-.02.48-.04.72-.04,4.52,0,8.37,4.27,8.75,9.72.41,5.83-3.16,10.97-7.98,11.48l-44.8-.53-7.79-7.69-7.69-7.59-1.31-29.84-1.35-30.65c-.45-6.3,3.44-11.86,8.66-12.38.26-.03.52-.04.78-.04v-.92m0,0c-.29,0-.58.01-.87.04-5.7.57-9.97,6.58-9.49,13.36.89,20.28,1.78,40.56,2.67,60.83,5.34,5.26,10.67,10.53,16.01,15.79,15.08.18,30.15.36,45.23.54,5.32-.53,9.31-6.14,8.86-12.47-.42-6-4.69-10.57-9.67-10.57-.27,0-.54.01-.82.04-12.6-1.31-25.19-2.62-37.79-3.94-1.25-17.43-2.51-34.87-3.76-52.3-.45-6.43-5.03-11.33-10.36-11.33h0Z"/>
    </g>
  </g>
</svg>