<?xml version="1.0" encoding="UTF-8"?>
<svg xmlns="http://www.w3.org/2000/svg" viewBox="0 0 256 256">
  <defs>
    <style>
      .cls-1 {
        fill: #fff;
      }
    </style>
  </defs>
  <g id="Layer_1" data-name="Layer 1">
    <g>
      <rect x=".5" y=".5" width="255" height="255" rx="38.5" ry="38.5"/>
      <path d="m217,1c20.95,0,38,17.05,38,38v178c0,20.95-17.05,38-38,38H39c-20.95,0-38-17.05-38-38V39C1,18.05,18.05,1,39,1h178m0-1H39C17.55,0,0,17.55,0,39v178c0,21.45,17.55,39,39,39h178c21.45,0,39-17.55,39-39V39c0-21.45-17.55-39-39-39h0Z"/>
    </g>
  </g>
  <g id="Layer_10" data-name="Layer 10">
    <g>
      <circle class="cls-1" cx="125.5" cy="166.5" r="32"/>
      <path d="m125.5,135c17.37,0,31.5,14.13,31.5,31.5s-14.13,31.5-31.5,31.5-31.5-14.13-31.5-31.5,14.13-31.5,31.5-31.5m0-1c-17.95,0-32.5,14.55-32.5,32.5s14.55,32.5,32.5,32.5,32.5-14.55,32.5-32.5-14.55-32.5-32.5-32.5h0Z"/>
    </g>
    <path class="cls-1" d="m158,229.93c.53,1.44-6,26.08-6,26.08,0,0-10.8.02-30,0-21.53-.02-24,0-24,0,0,0-7.32-22.89-5-28.5,1.37-3.32,11.65-28.5,32.5-28.5,15.67,0,28.46,20.06,32.5,30.93Z"/>
    <path class="cls-1" d="m122,10c-4.35-4.66-18.41,1.03-26.42,6.4-20.19,13.54-23.16,39.17-24.32,50.82-1.85,18.63,2.15,36.47,7.25,49.19-5.06-7.7-10.47-17.79-13.83-30.87-10.91-42.45,10.04-76.15-1.14-79.85-8.2-2.72-26.14,13.21-34.81,28.47-15.06,26.49-2.71,51.85.9,59.26,10.06,20.67,29.23,34.62,43.54,40.88-6.93-1.78-16.05-4.77-25.72-11.17-26.17-17.34-31.56-43.33-39.16-40.62-5.58,1.99-7.21,17.6-4.34,29.03,4.97,19.85,23.63,27.8,29.09,30.12,13.6,5.79,28.39,5.81,38.85,3.83-5.36,1.8-13.96,4.7-25.38,4.19-24.26-1.09-38.31-16.56-42.23-11.61-2.87,3.63,2.36,14.91,8.86,21.51,11.29,11.47,26.81,9.24,31.35,8.59,8.12-1.17,15.44-4.61,21.18-8.54-1.75,1.6-3.92,3.52-6.62,5.49-1.8.71-3.34,1.74-4.53,2.99-1.89,1.13-3.98,2.22-6.28,3.22-19.3,8.42-35.32,2.55-36.77,7.62-1.06,3.72,6.7,9.89,13.93,12.2,9.17,2.93,17.72-.28,22.96-3.08-2.94,3.19-6.16,8.06-6.17,14.34,0,5.67,2.62,12.6,5.5,12.69,3.93.12,3.41-12.6,13.8-24.41.07-.08.13-.14.2-.21-.9,1.65-1.66,3.45-2.2,5.37-.65,2.29-2.86,10.14,1.78,16.6,2.67,3.72,7.68,7.06,9.62,5.79,2.66-1.73-3.69-9.84-2.41-22.37.18-1.77.49-3.38.87-4.86.15,2.19.51,5.33,1.48,8.96,3.65,13.71,13.5,25.43,17.18,24.03,1.18-.45.67-1.86,3-6,2.66-4.73,4.38-4.75,5-7,.86-3.13-1.78-5.6-10-16-6.47-8.18-7.94-10.59-9-14-1.62-5.23-1.12-9.16-1-10,.22-1.55,1.16-5.49,5-11,6.06-8.69,12.08-7.86,16-14,2.05-3.21,3.85-8.82,1-19,0,0-2.43-12.41-1.03-48.83,1.5-39.22,32.06-60.64,25.03-68.17Z"/>
    <path class="cls-1" d="m129,11c4.34-4.48,17.5,1.09,24.56,5.67,20.22,13.1,23.16,39.13,24.32,50.82,1.85,18.63-2.15,36.47-7.25,49.19,5.06-7.7,10.47-17.79,13.83-30.87,10.91-42.45-10.04-76.15,1.14-79.85,8.2-2.72,26.14,13.21,34.81,28.47,15.06,26.49,2.71,51.85-.9,59.26-10.06,20.67-29.23,34.62-43.54,40.88,6.93-1.78,16.05-4.77,25.72-11.17,26.17-17.34,31.56-43.33,39.16-40.62,5.58,1.99,7.21,17.6,4.34,29.03-4.97,19.85-23.63,27.8-29.09,30.12-13.6,5.79-28.39,5.81-38.85,3.83,5.36,1.8,13.96,4.7,25.38,4.19,24.26-1.09,38.31-16.56,42.23-11.61,2.87,3.63-2.36,14.91-8.86,21.51-11.29,11.47-26.81,9.24-31.35,8.59-8.12-1.17-15.44-4.61-21.18-8.54,1.75,1.6,3.92,3.52,6.62,5.49,1.8.71,3.34,1.74,4.53,2.99,1.89,1.13,3.98,2.22,6.28,3.22,19.3,8.42,35.32,2.55,36.77,7.62,1.06,3.72-6.7,9.89-13.93,12.2-9.17,2.93-17.72-.28-22.96-3.08,2.94,3.19,6.16,8.06,6.17,14.34,0,5.67-2.62,12.6-5.5,12.69-3.93.12-3.41-12.6-13.8-24.41-.07-.08-.13-.14-.2-.21.9,1.65,1.66,3.45,2.2,5.37.65,2.29,2.86,10.14-1.78,16.6-2.67,3.72-7.68,7.06-9.62,5.79-2.66-1.73,3.69-9.84,2.41-22.37-.18-1.77-.49-3.38-.87-4.86-.15,2.19-.51,5.33-1.48,8.96-3.65,13.71-13.5,25.43-17.18,24.03-1.18-.45-.67-1.86-3-6-2.66-4.73-4.38-4.75-5-7-.86-3.13,1.78-5.6,10-16,6.47-8.18,7.94-10.59,9-14,1.62-5.23,1.12-9.16,1-10-.22-1.55-1.16-5.49-5-11-6.06-8.69-12.08-7.86-16-14-2.05-3.21-3.85-8.82-1-19,0,0,2.44-12.54,1.03-48.83-1.51-38.87-30.24-60.12-23.17-67.43Z"/>
    <path class="cls-1" d="m36.38,214.04c-2.32,3.28-5.06,6.78-7.56,9.95-1.58,1.89-3.75,4.54-5.15,6.53-2.68,3.4-6.41,5.72-10.64,6.87-.25.06-.49-.18-.42-.42.73-2.97,2.16-5.41,3.93-7.75,1.65-2.26,4.14-3.66,6.26-5.41,1.59-1.33,4.83-3.94,6.47-5.2,2.21-1.69,4.4-3.38,6.68-4.99.26-.2.63.16.42.42h0Z"/>
    <path class="cls-1" d="m46.04,219.62c-.41,4-1.06,8.39-1.68,12.38-.44,2.42-1.03,5.79-1.27,8.21-.66,4.28-2.76,8.13-5.89,11.21-.14.13-.37.12-.5-.02-1.24-4.23-.96-8.75.66-12.78,1.63-3.49,3.2-7.98,4.73-11.54,1.09-2.55,2.17-5.11,3.37-7.63.13-.3.62-.17.58.16h0Z"/>
    <path class="cls-1" d="m35.83,204.82c-3.92.9-8.29,1.69-12.27,2.38-2.44.36-5.82.88-8.19,1.43-4.26.75-8.59,0-12.51-1.98-.17-.09-.23-.31-.14-.48,3.61-2.53,7.98-3.72,12.32-3.47,3.83.43,8.59.47,12.44.78,2.77.21,5.53.42,8.31.74.33.03.36.54.03.6h0Z"/>
    <path class="cls-1" d="m220.67,213.12c3.28,2.32,6.78,5.06,9.95,7.56,1.89,1.58,4.54,3.75,6.53,5.15,3.4,2.68,5.72,6.41,6.87,10.64.06.25-.18.49-.42.42-2.97-.73-5.41-2.16-7.75-3.93-2.26-1.65-3.66-4.14-5.41-6.26-1.33-1.59-3.94-4.83-5.2-6.47-1.69-2.21-3.38-4.4-4.99-6.68-.2-.26.16-.63.42-.42h0Z"/>
    <path class="cls-1" d="m211.17,218.97c1.71,3.64,3.42,7.74,4.95,11.48.87,2.3,2.11,5.49,3.15,7.69,1.64,4.01,1.83,8.39.74,12.64-.06.19-.25.29-.44.24-3.25-2.99-5.33-7.01-6.02-11.29-.4-3.83-1.38-8.49-1.9-12.32-.38-2.75-.77-5.5-1.05-8.27-.04-.32.45-.47.58-.16h0Z"/>
    <path class="cls-1" d="m220.84,203.73c4-.46,8.43-.75,12.46-1,2.46-.09,5.88-.23,8.3-.51,4.32-.27,8.53.96,12.21,3.36.16.11.2.33.08.49-3.87,2.12-8.35,2.8-12.63,2.08-3.75-.85-8.48-1.42-12.28-2.16-2.73-.52-5.45-1.03-8.17-1.66-.32-.07-.3-.57.03-.6h0Z"/>
  </g>
</svg>