<?xml version="1.0" encoding="UTF-8"?>
<svg xmlns="http://www.w3.org/2000/svg" viewBox="0 0 256 256">
  <defs>
    <style>
      .cls-1 {
        fill: #333;
      }

      .cls-2 {
        fill: none;
        stroke: #000;
        stroke-linecap: round;
        stroke-miterlimit: 10;
        stroke-width: 5px;
      }
    </style>
  </defs>
  <g id="Layer_1" data-name="Layer 1">
    <g>
      <rect x=".5" y=".5" width="255" height="255" rx="38.5" ry="38.5"/>
      <path d="m217,1c20.95,0,38,17.05,38,38v178c0,20.95-17.05,38-38,38H39c-20.95,0-38-17.05-38-38V39C1,18.05,18.05,1,39,1h178m0-1H39C17.55,0,0,17.55,0,39v178c0,21.45,17.55,39,39,39h178c21.45,0,39-17.55,39-39V39c0-21.45-17.55-39-39-39h0Z"/>
    </g>
  </g>
  <g id="Layer_13" data-name="Layer 13">
    <path class="cls-1" d="m114.62,187.37c-.88-.67-3.45-2.06-11.62,1.63-7.74,3.5-11.73,7.6-17,12-8.12,6.78-18.7,15.63-23,13-3.96-2.42-3.04-14.86-2.18-20.33.39-2.5.95-4.72.76-6.42.33-.19.67-.43,1.01-.74,1-.37,1.71-.93,1.97-1.66.1-.29.13-.6.08-.94,1.41-2.44,2.28-5.75,1.42-8.89-1.13-4.15-5.24-7.85-7.44-7.01-1.34.51-1.81,2.63-1.93,4.86-12.2-15.22-13.53-18.81-15.04-18.19-3.37,1.37-2.93,21.56,7.26,29.04.95.7,1.99,1.27,3.05,1.74-11.2,5.93-14.2,36.02-1.94,44.53,1.47,1.02,4.71,2.8,14,2,25.69-2.22,50.98-20.21,52.63-36.38.15-1.51.63-6.23-2.01-8.24Z"/>
    <path class="cls-1" d="m136.4,185.82c.88-.67,3.45-2.06,11.62,1.63,7.74,3.5,11.73,7.6,17,12,8.12,6.78,18.7,15.63,23,13,3.96-2.42,3.04-14.86,2.18-20.33-.39-2.5-.95-4.72-.76-6.42-.33-.19-.67-.43-1.01-.74-1-.37-1.71-.93-1.97-1.66-.1-.29-.13-.6-.08-.94-1.41-2.44-2.28-5.75-1.42-8.89,1.13-4.15,5.24-7.85,7.44-7.01,1.34.51,1.81,2.63,1.93,4.86,12.2-15.22,13.53-18.81,15.04-18.19,3.37,1.37,2.93,21.56-7.26,29.04-.95.7-1.99,1.27-3.05,1.74,11.2,5.93,14.2,36.02,1.94,44.53-1.47,1.02-4.71,2.8-14,2-25.69-2.22-50.98-20.21-52.63-36.38-.15-1.51-.63-6.23,2.01-8.24Z"/>
    <g>
      <g>
        <circle class="cls-1" cx="126" cy="148" r="33"/>
        <path d="m126,118c16.57,0,30,13.43,30,30s-13.43,30-30,30-30-13.43-30-30,13.43-30,30-30m0-6c-19.85,0-36,16.15-36,36s16.15,36,36,36,36-16.15,36-36-16.15-36-36-36h0Z"/>
      </g>
      <g>
        <path class="cls-1" d="m126,308c-10.98,0-21.19-6.97-28.74-19.62-7.26-12.17-11.26-28.28-11.26-45.38s4-33.21,11.26-45.38c7.55-12.65,17.76-19.62,28.74-19.62s21.19,6.97,28.74,19.62c7.26,12.17,11.26,28.28,11.26,45.38s-4,33.21-11.26,45.38c-7.55,12.65-17.76,19.62-28.74,19.62Z"/>
        <path d="m126,181c20.43,0,37,27.76,37,62s-16.57,62-37,62-37-27.76-37-62,16.57-62,37-62m0-6c-12.08,0-23.2,7.49-31.32,21.08-7.54,12.63-11.68,29.29-11.68,46.92s4.15,34.29,11.68,46.92c8.11,13.6,19.24,21.08,31.32,21.08s23.2-7.49,31.32-21.08c7.54-12.63,11.68-29.29,11.68-46.92s-4.15-34.29-11.68-46.92c-8.11-13.6-19.24-21.08-31.32-21.08h0Z"/>
      </g>
    </g>
    <path class="cls-1" d="m150,180c.2-2.78,2.97-4.42,5-6,8.81-6.87,12.43-19.45,12-28-.28-5.41-2.18-9.29-4-13-1.49-3.03-5.65-11.24-15.16-17.26-3.34-2.11-10.48-5.94-20.05-6.24-3.68-.12-6.65.33-8.44.67-7.37,1.42-14.25,5-19.93,10.47-4.6,4.44-8.02,9.74-10.09,15.54-2.38,6.68-2.34,12.2-2.32,13.34.06,3.32.26,15.04,8,22.47,2.29,2.2,4.41,3.23,5,6,.74,3.48-1.24,8.26-4,9-6.44,1.72-21.47-17.48-22-37.53-.23-8.62,2.27-15.53,3.33-18.36,2.76-7.39,7.17-14.15,13.06-19.83,10.35-9.98,23.8-15.23,37.82-14.78,19.72.63,33.01,13.81,37.29,17.99,3.58,3.5,8.77,8.67,12.49,17.22,1.55,3.55,5.13,12.04,4,22.28-2.07,18.77-19.09,35.46-27,33-2.7-.84-5.2-4.18-5-7Z"/>
    <polygon class="cls-1" points="107 101 125.5 12.57 144 101 107 101 107 101"/>
    <polygon class="cls-1" points="87.59 126.34 26.36 48.92 107.02 102.89 87.59 126.34 87.59 126.34"/>
    <polygon class="cls-1" points="81 150 37.5 136.5 81 123 81 150"/>
    <polygon class="cls-1" points="166.09 129.78 227.33 52.35 146.67 106.32 166.09 129.78 166.09 129.78"/>
    <polygon class="cls-1" points="172.69 126.43 216.19 139.93 172.69 153.43 172.69 126.43 172.69 126.43"/>
    <path class="cls-2" d="m101.5,147.5c.27.34,3.8,4.5,10.25,4.5.49,0,6.66-.09,10.25-4.5"/>
    <path class="cls-2" d="m130.75,147.64c.27.34,3.8,4.5,10.25,4.5.49,0,6.66-.09,10.25-4.5"/>
  </g>
</svg>