<?xml version="1.0" encoding="UTF-8"?>
<svg xmlns="http://www.w3.org/2000/svg" viewBox="0 0 256 256">
  <defs>
    <style>
      .cls-1 {
        fill: #94deff;
      }

      .cls-2 {
        fill: none;
        stroke: #2366c9;
        stroke-miterlimit: 10;
        stroke-width: 22.91px;
      }
    </style>
  </defs>
  <g id="Layer_1" data-name="Layer 1">
    <g>
      <rect x=".5" y=".5" width="255" height="255" rx="38.5" ry="38.5"/>
      <path d="m217,1c20.95,0,38,17.05,38,38v178c0,20.95-17.05,38-38,38H39c-20.95,0-38-17.05-38-38V39C1,18.05,18.05,1,39,1h178m0-1H39C17.55,0,0,17.55,0,39v178c0,21.45,17.55,39,39,39h178c21.45,0,39-17.55,39-39V39c0-21.45-17.55-39-39-39h0Z"/>
    </g>
  </g>
  <g id="Layer_9" data-name="Layer 9">
    <polygon class="cls-1" points="127.35 30.51 133.84 63.57 160.72 52.45 136.43 76.75 139.71 93.45 133.12 95.21 137.27 110.68 152.72 106.53 151 100.15 167.52 94.5 176.38 61.4 180.19 90.15 211.98 79.28 186.51 101.5 208.85 118.9 176.37 110.36 163.59 121.51 158.3 116.23 146.98 127.56 158.3 138.88 163.16 134.02 176.17 145.38 209.21 136.54 186.25 154.18 211.67 176.35 179.53 165.36 175.63 193.39 166.77 160.98 150.84 155.54 152.72 148.53 137.27 144.38 133.12 159.84 139.7 161.6 136.43 178.27 160.72 202.55 133.84 191.45 127.35 224.52 120.83 191.3 94.69 201.91 118.24 178.14 115.01 161.7 121.95 159.84 117.8 144.37 102.33 148.53 104.24 155.66 88.81 160.94 79.96 193.31 76.08 165.29 43.98 176.28 69.38 154.11 46.4 136.45 79.47 145.32 92.14 134.26 96.75 138.87 108.06 127.56 96.75 116.23 91.69 121.28 79.27 110.45 46.74 119 69.13 101.59 43.65 79.35 75.42 90.22 79.21 61.48 88.07 94.55 104.08 100.02 102.33 106.53 117.8 110.68 121.95 95.21 115 93.35 118.24 76.88 94.69 53.1 120.83 63.7 127.35 30.51 127.35 30.51"/>
    <circle class="cls-2" cx="128" cy="128" r="112.5"/>
  </g>
</svg>