<?xml version="1.0" encoding="UTF-8"?>
<svg xmlns="http://www.w3.org/2000/svg" viewBox="0 0 256 256">
  <defs>
    <style>
      .cls-1 {
        fill: #fff;
      }
    </style>
  </defs>
  <g id="Layer_1" data-name="Layer 1">
    <g>
      <rect x=".5" y=".5" width="255" height="255" rx="38.5" ry="38.5"/>
      <path d="m217,1c20.95,0,38,17.05,38,38v178c0,20.95-17.05,38-38,38H39c-20.95,0-38-17.05-38-38V39C1,18.05,18.05,1,39,1h178m0-1H39C17.55,0,0,17.55,0,39v178c0,21.45,17.55,39,39,39h178c21.45,0,39-17.55,39-39V39c0-21.45-17.55-39-39-39h0Z"/>
    </g>
  </g>
  <g id="Layer_9" data-name="Layer 9">
    <path class="cls-1" d="m88.6,19.59c-15.36-.01-29.91,3.85-41.73,11.35-13.52,8.56-23.38,22.08-26.19,39.48s1.33,38.41,14.66,62.39c9.3,16.74,20.76,29.93,27.98,43.87,3.29,6.35,5.78,12.8,6.93,19.92-.12.17-.24.33-.35.5l.48.34c.66,4.52.79,9.32.23,14.54-6.87,1.33-12.05,7.36-12.05,14.62,0,8.23,6.67,14.91,14.89,14.91s14.89-6.68,14.89-14.91c0-6.17-3.76-11.46-9.1-13.72.48-4.78.47-9.33.04-13.65,4.31-5.07,9.36-7.65,15.6-8.53,6.89-.98,15.35.36,25.01,3.81,2.39,4.57,4.55,9.41,6.41,14.6-4.29,2.54-7.17,7.21-7.17,12.55,0,8.04,6.52,14.56,14.56,14.56s14.56-6.52,14.56-14.56-5.87-13.91-13.34-14.53c-1.89-5.43-4.09-10.51-6.52-15.3,4.76-4.61,12.88-7.8,22.33-9.65,10.3-2.02,21.88-2.55,31.62-2.81,3.29,3.01,6.52,6.17,9.67,9.5-.26,1.06-.4,2.17-.4,3.31,0,7.67,6.22,13.9,13.9,13.9s13.88-6.22,13.88-13.9-6.21-13.88-13.88-13.88c-3.25,0-6.24,1.12-8.6,2.99-3.03-3.14-6.13-6.11-9.26-8.96-.46-23.05,6.24-41.08,17.74-55.91,4.16-1.06,8.44-2.56,12.86-4.56,2.69,2.67,6.39,4.32,10.48,4.32,8.23,0,14.89-6.68,14.89-14.91s-6.67-14.89-14.89-14.89-14.89,6.67-14.89,14.89c0,.98.1,1.94.28,2.87-3.66,1.64-7.17,2.89-10.54,3.77-7.27-9.33-7.93-16.66-5.91-24.77,2.15-8.64,8.14-18.09,14.06-29.02,2.95-1.89,5.59-4.17,7.83-6.86,2.56,1.95,5.77,3.11,9.24,3.11,8.41,0,15.23-6.82,15.23-15.23s-6.82-15.23-15.23-15.23-15.23,6.82-15.23,15.23c0,1.59.25,3.13.7,4.57-5.28,7.89-15.38,12.3-27.62,12.52-12.45.22-26.76-4.02-38.79-12.78-18.39-13.4-39.49-19.83-59.24-19.85h0Zm21.94,11.73c8.72,2.24,17.4,5.84,25.65,10.89l.04,6.92c-.69-.54-1.37-1.08-2.07-1.61-7.38-5.67-15.12-11.12-23.41-15.35l-.22-.85h0Zm-31.37,1.48c.8-.01,1.58,0,2.37.03l2.15,7.4c-5.24-2.44-10.74-4.39-16.55-5.67,4.14-1.13,8.14-1.7,12.02-1.76h0Zm11.87,1.3c1.58.36,3.13.78,4.69,1.28,2.56.81,5.08,1.82,7.59,2.96l4.59,17.33c-4.29-3.41-8.73-6.63-13.35-9.51l-3.52-12.05Zm-29.46,8.34c8.67,1.42,16.65,4.54,24.19,8.78l-5.06,8.74c-6.17-6.05-12.5-11.96-19.13-17.52h0Zm52.32,1.57c5.06,3.12,10.03,6.69,14.92,10.45,2.51,1.93,5,3.91,7.48,5.89l.13,20.68c-5.49-5-11.06-10.28-16.81-15.44l-5.72-21.59h0Zm31.11,4.15c5.95,4,12.29,7.08,18.73,9.21l.31,13.25c-6.08-4.09-12.42-9.19-19-14.48l-.04-7.97h0Zm-90.18.09c7.33,6.11,14.34,12.8,21.27,19.73l-6.48,11.21c-5.95-8.87-10.95-19-14.79-30.95h0Zm-7.87,4.09c.04.11.08.23.12.34h-.15c0-.12.02-.23.03-.34h0Zm46.28,3.52c6.43,4.34,12.58,9.38,18.63,14.7l.22.82-7.75,12.39c-5.74-5.75-11.43-11.6-17.18-17.39l6.08-10.52h0Zm105.4,3.68c-3.85,6.85-7.41,13.59-9.31,20.76-5.25.1-10.69-1.51-16.39-4.38l-.37-16.23c4.8.95,9.57,1.39,14.2,1.3,4.08-.07,8.07-.55,11.86-1.45h0Zm-160.84,3.77c.14,10.24,1.74,19.37,4.41,27.65l-7.62-1.61c-.29-7.51.67-16.07,3.21-26.03h0Zm15.19,4.08c3.03,6.41,6.46,12.28,10.2,17.71l-6.36,2.68c-2.28-6.09-3.66-12.8-3.84-20.39h0Zm92.15.06c4.98,3.96,9.93,7.75,14.91,11.04,1.41.93,2.84,1.82,4.27,2.67l.5,21.43c-6.63-3.6-13.09-8.37-19.54-13.78l-.13-21.36h0Zm-62.64,7.01c5.59,5.7,11.19,11.49,16.92,17.21l-7.71,12.34c-5.9-5.19-11.41-10.81-16.4-17.08l7.2-12.47h0Zm36.47,2.48c5.31,4.86,10.6,9.8,15.98,14.54.37.32.73.63,1.1.95l-8.05,13.43c-5.95-4.99-11.66-10.29-17.27-15.74l8.24-13.18h0Zm54.21,8.74c4.85,2.02,9.8,3.28,14.89,3.39-.12,6.6,1.66,13.49,6.04,20.46-5.14.37-9.99-.08-14.66-1.19-1.95-.46-3.88-1.04-5.79-1.73l-.48-20.93h0Zm-104.62,6.66c4.66,5.84,9.7,11.15,15.04,16.07l-10.67,3.75c-4.39-4.48-8.29-9.31-11.42-14.61-.35-.59-.68-1.19-1.01-1.79l8.06-3.41h0Zm37.26,5.63c5.63,5.42,11.42,10.71,17.5,15.71l-5.8,9.68c-.63-.42-1.27-.83-1.89-1.25-5.94-3.99-11.68-8.08-17.14-12.42l7.33-11.73h0Zm37.03.2c6.56,5.3,13.35,10.05,20.61,13.62l-7.64,13.38c-7.41-4.04-14.32-8.69-20.92-13.76l7.94-13.24h0Zm-107.21.37l10.36,2.18c2.5,5.48,5.47,10.59,8.78,15.42l-12.91-.89c-2.83-5.02-5.01-10.48-6.23-16.71h0Zm55.6,16.48c5.36,4.39,10.93,8.48,16.64,12.4l-11.36,3.83c-2.1-1.44-4.19-2.9-6.24-4.4-3.49-2.55-6.87-5.17-10.1-7.93l11.07-3.9h0Zm80.38.18c1.9.65,3.84,1.22,5.82,1.69,5.12,1.21,10.46,1.73,16.04,1.42-3.61,5.67-6.62,11.78-8.94,18.34-7.4-1.95-14.32-4.49-20.86-7.52l7.95-13.93h0Zm-41.35,3.96c6.65,5.02,13.65,9.65,21.17,13.72l-5.07,8.88c-7.27-4.65-14.48-9.11-21.49-13.6l5.39-9h0Zm-59.54,3.08c4.56,4.21,9.43,8.08,14.4,11.7.36.26.72.52,1.08.78l-3.15,1.06c-1.49-1.53-2.98-3.05-4.43-4.57-2.8-2.95-5.51-5.9-8.09-8.88l.19-.07h0Zm-22.63,2.24l12.71.88.91.06h.04c3.34,4.07,6.87,7.99,10.51,11.81.03.03.06.06.09.09l-12.09.44c-3.25-3.16-6.36-6.34-9.19-9.65-1.03-1.2-2.01-2.41-2.98-3.64h0Zm69.01,9.1c7.06,4.59,14.25,9.05,21.45,13.63l-11.29,5.07c-.76-.59-1.54-1.17-2.32-1.75-6.02-4.46-12.59-8.75-19.23-13.13l11.39-3.83h0Zm42.17,3.24c7.09,3.3,14.63,6.09,22.71,8.24-1.57,6.26-2.56,12.91-2.89,19.94-8.31-6.79-16.84-12.82-25.37-18.46l5.56-9.72h0Zm-64.09,4.12c8.04,5.4,15.96,10.42,22.91,15.45l-10.76,4.84c-5.69-6.57-11.63-12.63-17.44-18.51l5.29-1.77h0Zm-14.63,4.84c5.41,5.49,10.88,10.97,16.14,16.73h-11.64c-5.02-5.89-10.5-11.19-15.92-16.3l11.02-.41h.4s0-.01,0-.01Zm-23.87.89c5.5,5.32,11.1,10.45,16.3,15.83h-7.78c-3.37-5.31-7-10.49-10.63-15.76l2.11-.07h0Zm90.64,6.22c8.54,5.61,17.02,11.51,25.21,18.12-7.56.38-15.69,1.08-23.5,2.61-.72.14-1.44.28-2.16.44-2.86-5.78-7.11-10.84-12.17-15.51l12.61-5.66h0Zm-21.4,9.6c5.28,4.49,9.51,9.07,12.28,13.94-5.3,1.79-10.17,4.22-14.15,7.58-3.37-5.64-7.06-10.86-10.94-15.77l12.8-5.75h0Zm-55.57,8.78h10.42c2.97,3.7,5.67,7.61,7.96,11.84-4.07,1.2-7.86,3.14-11.27,5.83-1.5-5.77-3.7-11.16-6.35-16.27-.25-.47-.51-.94-.76-1.41h0Zm21.43,0h12.52c3.18,3.88,6.22,7.93,9.06,12.21-5.4-1.32-10.59-1.99-15.52-1.8-1.8-3.7-3.84-7.15-6.05-10.41h0Z"/>
  </g>
</svg>