<?xml version="1.0" encoding="UTF-8"?>
<svg xmlns="http://www.w3.org/2000/svg" viewBox="0 0 256 256">
  <defs>
    <style>
      .cls-1 {
        fill: #fff;
      }

      .cls-2 {
        stroke: #000;
        stroke-miterlimit: 10;
      }

      .cls-3 {
        clip-path: url(#clippath);
      }

      .cls-4 {
        fill: none;
      }
    </style>
    <clipPath id="clippath">
      <path class="cls-4" d="m276.44,57.22H102.61c-20.95,0-38.09,17.21-38.09,38.24v174.52c0,21.03,17.14,38.24,38.09,38.24h173.83c20.95,0,38.09-17.21,38.09-38.24V95.46c0-21.03-17.14-38.24-38.09-38.24Z"/>
    </clipPath>
  </defs>
  <g id="Layer_1" data-name="Layer 1">
    <path class="cls-2" d="m279.03,55.72H101.03c-21.45,0-39,17.55-39,39v178c0,21.45,17.55,39,39,39h178c21.45,0,39-17.55,39-39V94.72c0-21.45-17.55-39-39-39Z"/>
  </g>
  <g id="Layer_15" data-name="Layer 15">
    <path class="cls-1" d="m182.53,180.18s-19.03,27.04-42.5,27.04-42.5-27.04-42.5-27.04c0,0,19.03-27.04,42.5-27.04s42.5,27.04,42.5,27.04Z"/>
    <path class="cls-1" d="m279.53,180s-19.2,27.04-42.89,27.04-42.89-27.04-42.89-27.04c0,0,19.2-27.04,42.89-27.04s42.89,27.04,42.89,27.04Z"/>
    <circle cx="140.03" cy="179.72" r="12.5"/>
    <circle cx="232.03" cy="179.72" r="12.5"/>
    <g class="cls-3">
      <path class="cls-1" d="m138.9,264.07c5.14-12.92,4.51-29.91-1.96-47.06-2.7.76-21.1,6.23-34.08,19-.14-.03-.28-.06-.42-.09-2.31-18.28-11.7-37.35-26.2-52.71-2.74,3.82-28.04,40.13-18.86,76.38.14.55.89,3.43,2.26,7.18-.31,2-.48,4.05-.48,6.15,0,20.85,16.18,37.75,36.13,37.75,2.86,0,5.64-.36,8.31-1.01,3.4.87,6.79,1.46,9.91,1.77,24.5,2.39,52.36-11.21,71.62-33.81-2.88-1.54-22.64-11.77-46.23-13.55Z"/>
      <path class="cls-1" d="m239.64,264.25c-5.14-12.92-4.51-29.91,1.96-47.06,2.7.76,21.1,6.23,34.08,19,.14-.03.28-.06.42-.09,2.31-18.28,11.7-37.35,26.2-52.71,2.74,3.82,28.04,40.13,18.86,76.38-.14.55-.89,3.43-2.26,7.18.31,2,.48,4.05.48,6.15,0,20.85-16.18,37.75-36.13,37.75-2.86,0-5.64-.36-8.31-1.01-3.4.87-6.79,1.46-9.91,1.77-24.5,2.39-52.36-11.21-71.62-33.81,2.88-1.54,22.64-11.77,46.23-13.55Z"/>
      <path class="cls-1" d="m102.2,134.16c12.62,5.76,29.54,5.91,46.91.23-.63-2.74-5.21-21.45-17.31-35.06.04-.14.08-.27.11-.41,18.29-1.46,37.71-10,53.66-23.82-3.68-2.93-38.62-29.99-75.12-22.48-.55.11-3.46.74-7.25,1.93-1.98-.41-4.01-.67-6.09-.77-20.74-.97-38.31,14.46-39.24,34.48-.13,2.87.09,5.67.62,8.38-1.02,3.37-1.77,6.74-2.22,9.86-3.52,24.46,8.71,53.04,30.3,73.41,1.67-2.82,12.76-22.16,15.63-45.73Z"/>
      <path class="cls-1" d="m249.13,94.33c-8.25,11.18-11.94,27.77-10.04,46.01,2.8-.05,21.98-.63,37.77-9.66.13.07.25.13.38.2-2.41,18.26,1.84,39.11,11.97,57.67,3.62-3,37.29-31.63,37.62-69.04,0-.57,0-3.55-.36-7.52.81-1.86,1.5-3.8,2.03-5.82,5.29-20.16-6.07-40.64-25.36-45.74-2.77-.73-5.54-1.1-8.29-1.14-3.07-1.71-6.2-3.15-9.14-4.24-23.09-8.58-53.48-2.55-77.84,14.38,2.4,2.22,18.91,17.17,41.27,24.92Z"/>
    </g>
  </g>
</svg>