<?xml version="1.0" encoding="UTF-8"?>
<svg xmlns="http://www.w3.org/2000/svg" viewBox="0 0 256 256">
  <defs>
    <style>
      .cls-1 {
        fill: #ce0000;
      }

      .cls-2 {
        fill: #ff9700;
        stroke: #edff00;
        stroke-miterlimit: 10;
        stroke-width: 3px;
      }
    </style>
  </defs>
  <g id="Layer_1" data-name="Layer 1">
    <g>
      <rect x=".5" y=".5" width="255" height="255" rx="38.5" ry="38.5"/>
      <path d="m217,1c20.95,0,38,17.05,38,38v178c0,20.95-17.05,38-38,38H39c-20.95,0-38-17.05-38-38V39C1,18.05,18.05,1,39,1h178m0-1H39C17.55,0,0,17.55,0,39v178c0,21.45,17.55,39,39,39h178c21.45,0,39-17.55,39-39V39c0-21.45-17.55-39-39-39h0Z"/>
    </g>
  </g>
  <g id="Layer_9" data-name="Layer 9">
    <path class="cls-2" d="m83.12,18.1c-85.45,49.58,24.16,105.65-4.74,154.51-16.3,27.56-52.94-13.17-50.32-58.92-23.14,58.73-6.29,100.73,23.92,123.5.64.16,8.17.23,19.14.26-13.23-7.85-14.9-35.02,15.25-47.98l7.33-3.25-1.36,7.87c-.63,3.88-.15,6.48.55,7.87.7,1.39,1.44,1.65,2.72,1.9,2.54.51,7.88-1.11,12.21-6.8,8.66-11.37,13.53-37.28-12.49-77.61l-1.9-2.99-6.46-8.95,10.8,4.6,2.44.81c37.57,11.85,62.88,27.17,81.15,52.38,10.01-10.64,17.98-26.41,20.36-42.61l1.63-12.76,6.24,11.14c11.86,21.29,14.07,48.75,5.16,72.73-6.61,17.79-19.53,33.62-39.04,43.45,6.33,0,11.18.01,11.73.06,71.92-16.16,64.76-113.83-6.59-183.14,0,.34,0,.68,0,1.02,36.7,86.38-63.42,87.88-55.42,5.33-19.37,46.69-61.74-1-42.32-42.42h0Z"/>
    <path class="cls-1" d="m132.78,162.6c6.28,7.35,10.39,15.38,10.59,23.61.27,11.17-4.32,21.9-11.4,30.93-6.89,8.8-16.19,16.09-26.31,20.29,15.39-.03,30.17-.07,44.25-.12l-.03-.09c14.38-8.64,21.99-18.05,24.98-26.87,2.99-8.82,1.51-17.31-2.72-24.96-7.18-13-23.1-22.17-39.36-22.8h0Z"/>
  </g>
</svg>