<?xml version="1.0" encoding="UTF-8"?>
<svg xmlns="http://www.w3.org/2000/svg" viewBox="0 0 256 256">
  <defs>
    <style>
      .cls-1 {
        fill: #fff;
      }
    </style>
  </defs>
  <g id="Layer_1" data-name="Layer 1">
    <g>
      <rect x=".5" y=".5" width="255" height="255" rx="38.5" ry="38.5"/>
      <path d="m217,1c20.95,0,38,17.05,38,38v178c0,20.95-17.05,38-38,38H39c-20.95,0-38-17.05-38-38V39C1,18.05,18.05,1,39,1h178m0-1H39C17.55,0,0,17.55,0,39v178c0,21.45,17.55,39,39,39h178c21.45,0,39-17.55,39-39V39c0-21.45-17.55-39-39-39h0Z"/>
    </g>
  </g>
  <g id="Layer_9" data-name="Layer 9">
    <path class="cls-1" d="m130.5,13.53c2.65.26,5.05,1.25,7.39,2.5l4.64-8.31c-3.26-1.94-7.09-3.09-10.55-3.72-.46,3.18-.97,6.36-1.48,9.53Zm-4.64-9.38c-3.87.26-7.19,1.28-10.76,3.06l4.23,8.51c2.6-.96,4.89-1.9,7.44-2.04l-.92-9.53Zm-19.63,9.53c-2.55,2.64-5,5.96-6.47,8.67l8.31,4.64c1.58-2.4,3.01-4.63,4.89-6.53-2.19-2.27-4.59-4.48-6.73-6.78h0Zm44.91.97l-7.14,6.32c1.94,2.03,3.36,4.4,4.74,6.83l8.51-4.33c-1.78-3.21-3.98-6.39-6.12-8.82Zm-55.47,17.38c-1.07,3.42-1.68,7.23-1.94,10.3l9.48.92c.31-3.17.71-5.48,1.53-8.41l-9.07-2.8Zm65.36,1.12c-3.06.95-6.12,1.74-9.23,2.5.56,2.84,1.12,6.01,1.38,8.46l9.53-.51c-.41-3.59-.92-7.28-1.68-10.45h0Zm-57.71,18.66l-9.43.97c.2,3.57,1.33,7.29,2.19,10.25l9.07-2.91c-.87-2.96-1.48-5.61-1.84-8.31Zm49.55.87c-.41,2.91-1.22,5.71-2.04,8.26l8.92,3.36c1.17-3.42,2.09-7.14,2.55-10.2l-9.43-1.43Zm-44.2,14.99s-5.86,2.75-8.21,3.42c0,0,2.45,4.89,3.52,8.72,3.87-1.12,7.9-1.63,11.88-2.29-2.4-3.52-5.35-6.83-7.19-9.84h0Zm38.39.87c-2.14,3.21-4.69,6.12-7.09,9.13,3.98,1.07,8.16,1.38,12.03,2.8,0,0,2.24-6.58,3.11-9.02-2.91-.97-8.05-2.91-8.05-2.91h0Zm-55.52,6.47c-3.36,2.24-5.66,4.13-8.21,6.83l6.88,6.58c2.35-2.29,3.98-3.82,6.42-5.35l-5.1-8.05Zm73.21,1.43l-5.51,7.75c2.35,1.58,4.44,3.52,6.27,5.66l7.09-6.37c-2.75-2.85-4.79-5-7.85-7.04Zm-87.74,13.97c-1.78,2.91-3.21,6.02-4.44,9.18l8.87,3.52c1.02-2.75,2.29-5.45,3.82-7.95l-8.26-4.74Zm101.71,1.63l-8.26,4.69c1.43,2.6,2.75,5.3,3.87,8.05l8.82-3.62c-1.22-3.16-2.8-6.17-4.44-9.13h0Zm-109.2,17.23c-.82,3.16-1.53,6.47-1.94,9.79l9.38,1.43c.41-3.01,1.12-5.96,1.78-8.92l-9.23-2.29Zm116.8,1.53l-9.23,2.45c.92,2.91,1.33,5.86,1.94,8.87l9.38-1.58c-.56-3.26-1.17-6.53-2.09-9.74h0Zm-119.86,18.1c-.25,3.47-.31,6.42-.31,9.84h9.53c.05-3.21.1-6.58.31-9.18l-9.53-.66Zm123.17,1.48l-9.53.76c.25,2.96.41,6.12.41,9.18l9.53-.05c-.05-3.57-.2-6.73-.41-9.89Zm-113.69,17.64l-9.53.51c.2,3.26.51,6.47.87,9.74l9.48-1.02c-.41-3.06-.61-6.17-.82-9.23Zm104.26,1.48c-.1,3.06-.51,6.12-.87,9.18l9.43,1.22c.51-3.21.71-6.47.97-9.74l-9.53-.66Zm-111.75,16.21c.25,3.21,1.02,6.58,1.48,9.33h10.35v-9.53c-3.93-.1-7.85.05-11.83.2h0Zm21.36-.2c-.05,3.26,0,6.27,0,9.53l9.79-.25c-.25-3.11-.46-6.17-.61-9.28h-9.18Zm66.27,0c-.25,3.21-.51,6.47-.76,9.69l9.53.71-.1-10.4h-8.67Zm18.2,0v9.53h11.83c.66-3.26,1.17-5.91,1.73-9.18-4.49-.46-9.02-.36-13.56-.36Zm-74.07,18.81l-9.48.61.61,9.53,9.48-.66-.61-9.48Zm54.4.36l-.66,9.48,9.48.71.71-9.48-9.53-.71Zm-30.69,6.07v9.53h9.48v-9.53h-9.48Zm-22.43,12.59l-9.53.61.66,9.53,9.48-.66-.61-9.48Zm51.75.36l-.71,9.48,9.48.71.71-9.48-9.48-.71Zm-29.31,6.12v9.53h9.48v-9.53h-9.48Zm-21.21,12.54l-9.48.61.61,9.53,9.53-.66-.66-9.48Zm49.09.31l-.71,9.53,9.48.71.71-9.53-9.48-.71Zm-27.89,6.22v9.53h9.48v-9.53h-9.48Zm-19.93,12.49l-9.53.61c.25,3.47.46,6.93.71,10.4h8l.82-11.01Zm46.39.31l.41,10.71h8.36c.2-3.31.51-6.68.76-9.99l-9.53-.71Zm-37.67,1.17v9.53h9.48v-9.53h-9.48Zm19.02,0v9.53h9.53v-9.53h-9.53Z"/>
  </g>
</svg>