<?xml version="1.0" encoding="UTF-8"?>
<svg xmlns="http://www.w3.org/2000/svg" viewBox="0 0 256 256">
  <defs>
    <style>
      .cls-1 {
        fill: #ff0;
      }
    </style>
  </defs>
  <g id="Layer_1" data-name="Layer 1">
    <g>
      <rect x=".5" y=".5" width="255" height="255" rx="38.5" ry="38.5"/>
      <path d="m217,1c20.95,0,38,17.05,38,38v178c0,20.95-17.05,38-38,38H39c-20.95,0-38-17.05-38-38V39C1,18.05,18.05,1,39,1h178m0-1H39C17.55,0,0,17.55,0,39v178c0,21.45,17.55,39,39,39h178c21.45,0,39-17.55,39-39V39c0-21.45-17.55-39-39-39h0Z"/>
    </g>
  </g>
  <g id="Layer_10" data-name="Layer 10">
    <path class="cls-1" d="m126.67,5.42c-45.47,0-82.49,33.93-82.49,75.99,0,23.81,8.85,34.96,18.71,49.49,6.57,9.69,13.35,20.83,17.15,36.82h92.73c3.78-16.38,10.62-27.72,17.25-37.51,9.87-14.57,18.71-25.52,18.71-48.81,0-42.09-36.58-75.99-82.05-75.99h0Zm-56.04,66.74l13.04,10.66,22.22,18.17,17.52-17.81,3.81-3.88,3.88,3.83,17.27,17.07,22.45-17.46,12.74-9.91-4.3,14.92-20.15,69.84-10.15-2.53,15.85-54.92-13.5,10.5-3.81,2.95-3.39-3.36-16.8-16.58-17.17,17.45-3.48,3.54-3.86-3.16-13.06-10.66,15.69,54.38-10.15,2.51-20.18-69.96-4.49-15.59h0Zm12.69,105.31v21.46l81.54-21.46h-81.54,0Zm86.27,8.9l-86.27,22.71v15.36l86.27-22.7v-15.38h0Zm0,25.5l-67.08,17.66h67.08v-17.66h0Zm-74.45,27.41v10.71h63.62v-10.71h-63.62Z"/>
  </g>
</svg>