<?xml version="1.0" encoding="utf-8"?>
<!-- Generator: Adobe Illustrator 27.6.1, SVG Export Plug-In . SVG Version: 6.00 Build 0)  -->
<svg version="1.1" id="Layer_1" xmlns="http://www.w3.org/2000/svg" xmlns:xlink="http://www.w3.org/1999/xlink" x="0px" y="0px"
	 viewBox="0 0 256 257.1" style="enable-background:new 0 0 256 257.1;" xml:space="preserve">
<style type="text/css">
	.st0{stroke:#000000;stroke-width:1.0022;stroke-miterlimit:10;}
	.st1{fill:#FF0000;}
	.st2{stroke:#000000;stroke-width:9.19;stroke-linecap:round;stroke-miterlimit:10;}
	.st3{fill:#FFFFFF;stroke:#000000;stroke-width:5.58;stroke-miterlimit:10;}
	.st4{fill:none;stroke:#000000;stroke-width:5.58;stroke-miterlimit:10;}
	.st5{fill:#808080;}
	.st6{fill:none;stroke:#808080;stroke-width:6;stroke-linecap:round;stroke-miterlimit:10;}
</style>
<path class="st0" d="M217,0H39C17.5,0,0,17.6,0,39.2V218c0,21.5,17.5,39.2,39,39.2h178c21.5,0,39-17.6,39-39.2V39.2
	C256,17.6,238.5,0,217,0z"/>
<circle class="st1" cx="128" cy="159.1" r="94.5"/>
<ellipse cx="89.1" cy="131.9" rx="11.8" ry="21.2"/>
<ellipse cx="167.6" cy="131.6" rx="11.8" ry="21.2"/>
<path class="st2" d="M189.7,95.5c-1.9,3.2-5.7,8.9-12.7,13.7c-7.9,5.4-15.7,6.6-19.5,7"/>
<path class="st3" d="M188.2,174.1c15.2,19.8-5.6,46.2-7.7,48.9H75.4c-2.1-2.6-22.9-29.1-7.7-48.9
	C88.8,146.7,167.2,146.7,188.2,174.1z"/>
<line class="st4" x1="83.3" y1="162.3" x2="96.9" y2="222.9"/>
<line class="st4" x1="128" y1="155" x2="128" y2="221.2"/>
<line class="st4" x1="173.5" y1="163.1" x2="155.9" y2="222.9"/>
<path class="st5" d="M27.8,48.6c1.9,0.6,3.9,0.9,5.7,0.8c-0.5,0.8-1,1.7-1.3,2.7c-2.4,7.2,1.8,15.1,9.5,17.7s15.9-1.1,18.3-8.3
	c1.7-5,0.2-10.2-3.4-13.9c0.1,0,0.1-0.1,0.2-0.1c1.8,1.8,4.1,3.3,6.8,4.2c8.1,2.7,16.6-0.8,19-7.8s-2.2-15-10.3-17.7
	c-4.1-1.4-8.4-1.2-11.9,0.4c-0.4-0.4-0.7-0.7-1.1-1.1c0.2-0.3,0.3-0.7,0.4-1c1.5-4.5-1.6-9.5-6.9-11.3s-10.8,0.4-12.3,4.8
	c-0.7,2.1-0.4,4.3,0.7,6.3c-0.3,0.2-0.7,0.5-1,0.7c-1.1-0.8-2.4-1.4-3.8-1.9c-7.6-2.5-15.6,1.1-18,8.2S20.3,46,27.8,48.6L27.8,48.6z
	"/>
<path class="st5" d="M195.1,25.5c2.2,0,4.4,0.5,6.3,1.3c-0.2-1.2-0.4-2.4-0.4-3.6c0-9.3,7.3-16.8,16.3-16.8s16.3,7.5,16.3,16.8
	c0,6.4-3.5,11.9-8.5,14.8c0.1,0.1,0.1,0.1,0.2,0.2c2.5-1.4,5.5-2.2,8.6-2.2c9.5,0,17.1,7.4,17.1,16.5s-7.7,16.5-17.1,16.5
	c-4.8,0-9.2-1.9-12.3-5c-0.5,0.3-1,0.6-1.5,0.8c0.1,0.4,0.1,0.9,0.1,1.3c0,5.8-5,10.4-11.2,10.4s-11.2-4.7-11.2-10.4
	c0-2.7,1.1-5.1,2.9-7c-0.3-0.4-0.5-0.8-0.8-1.2c-1.5,0.5-3,0.7-4.7,0.7c-8.8,0-16-7.4-16-16.5S186.3,25.5,195.1,25.5L195.1,25.5z"/>
<line class="st6" x1="60.3" y1="48.3" x2="77.7" y2="72"/>
<line class="st6" x1="204.5" y1="54" x2="183.6" y2="74.8"/>
<path class="st2" d="M67,96.1c1.9,3.2,5.7,8.9,12.7,13.7c7.9,5.4,15.7,6.6,19.5,7"/>
</svg>
