<?xml version="1.0" encoding="UTF-8"?>
<svg xmlns="http://www.w3.org/2000/svg" viewBox="0 0 256 256">
  <defs>
    <style>
      .cls-1 {
        fill: #fff;
      }

      .cls-2 {
        fill: #ff1f1f;
        stroke: #fff;
        stroke-miterlimit: 10;
      }
    </style>
  </defs>
  <g id="Layer_1" data-name="Layer 1">
    <g>
      <rect x=".5" y=".5" width="255" height="255" rx="38.5" ry="38.5"/>
      <path d="m217,1c20.95,0,38,17.05,38,38v178c0,20.95-17.05,38-38,38H39c-20.95,0-38-17.05-38-38V39C1,18.05,18.05,1,39,1h178m0-1H39C17.55,0,0,17.55,0,39v178c0,21.45,17.55,39,39,39h178c21.45,0,39-17.55,39-39V39c0-21.45-17.55-39-39-39h0Z"/>
    </g>
  </g>
  <g id="Layer_9" data-name="Layer 9">
    <path class="cls-1" d="m125.95,4c-29.72,0-56.96,13.27-77.14,35.55C28.63,61.82,15.91,92.98,15.91,127.5s12.72,65.68,32.9,87.95c20.18,22.28,47.42,35.55,77.14,35.55s56.94-13.27,77.12-35.55c20.18-22.28,32.92-53.44,32.92-87.95s-12.74-65.68-32.93-87.95C182.89,17.27,155.68,4,125.96,4h0Z"/>
    <path d="m80.41,106.44c14.72.04,29.17,4.92,38.48,17.08-8.68,5.22-17.47,9.37-26.4,12.33,1.29-2.02,2.01-4.29,2.01-6.7,0-8.31-8.64-15.05-19.31-15.05s-19.3,6.74-19.3,15.05c0,4.86,2.96,9.18,7.55,11.94-.63.02-1.25.03-1.88.04-.63,0-1.25,0-1.88,0h0c-10.68-.11-21.53-1.99-32.61-5.85,3.51-15.51,28.81-28.89,53.35-28.82h0Z"/>
    <path d="m171.5,106.44c24.54-.07,49.84,13.31,53.35,28.82-11.08,3.86-21.93,5.74-32.61,5.85h0c-.63,0-1.26,0-1.88,0-.63,0-1.25-.02-1.88-.03,4.59-2.75,7.55-7.07,7.55-11.94,0-8.31-8.64-15.05-19.3-15.05s-19.31,6.74-19.31,15.05c0,2.41.72,4.68,2.01,6.7-8.92-2.95-17.72-7.1-26.4-12.33,9.3-12.16,23.75-17.04,38.48-17.08h0Z"/>
    <path class="cls-2" d="m95.75,150.25c5.91-.02,12.15,1.88,17.2,5.81l13.01,10.14,13.01-10.14c5.05-3.93,11.29-5.83,17.2-5.81.39,0,.79.01,1.18.03,6.25.29,11.86,2.52,16.05,5.78,4.18,3.26,7.05,7.64,7.42,12.51.37,4.87-2.04,10.13-7.42,14.32l-13.01,10.14,13.01,10.14c5.38,4.2,7.79,9.45,7.42,14.32-.37,4.87-3.24,9.25-7.42,12.51-4.18,3.26-9.8,5.5-16.05,5.78-6.25.29-12.99-1.59-18.37-5.78l-13.01-10.14-13.01,10.14c-5.38,4.2-12.13,6.07-18.37,5.78-6.25-.29-11.86-2.52-16.05-5.78-4.18-3.26-7.05-7.64-7.42-12.51-.37-4.87,2.04-10.13,7.42-14.32l13.01-10.14-13.01-10.14c-5.38-4.2-7.79-9.45-7.42-14.32.37-4.87,3.24-9.25,7.42-12.51,4.18-3.26,9.8-5.5,16.05-5.78.39-.02.78-.03,1.18-.03h0Z"/>
    <path d="m96.38,159.64c-.37,0-.73,0-1.1.01-2.93.13-5.95,1.26-8.24,3.05-2.29,1.79-3.74,4.14-3.91,6.42-.17,2.28.66,4.6,3.91,7.13l60.44,47.11c3.25,2.53,6.22,3.18,9.15,3.05,2.93-.13,5.95-1.26,8.24-3.05,2.29-1.79,3.74-4.14,3.91-6.42.17-2.28-.66-4.6-3.91-7.13l-60.44-47.11c-2.84-2.22-5.47-2.99-8.05-3.06h0Z"/>
    <path d="m155.53,159.64c-1.32.04-2.34.27-2.72.36-1.71.42-3.48,1.26-5.33,2.7-17.83,13.77-35.65,27.53-53.48,41.3,6.67,4,13.33,8,20,12,16.96-13.25,33.91-26.5,50.87-39.75,3.25-2.54,4.08-4.85,3.91-7.13-.25-3.36-2.96-5.62-3.91-6.42-3.85-3.22-8.36-3.09-9.34-3.06Z"/>
    <path d="m100.05,199.67l-13.01,10.14c-3.25,2.53-4.08,4.85-3.91,7.13.17,2.28,1.62,4.63,3.91,6.42,2.29,1.79,5.31,2.92,8.24,3.05,2.93.13,5.9-.52,9.15-3.05l13.01-10.14-17.38-13.55h0Z"/>
  </g>
</svg>