<?xml version="1.0" encoding="UTF-8"?>
<svg xmlns="http://www.w3.org/2000/svg" viewBox="0 0 256 256">
  <defs>
    <style>
      .cls-1 {
        fill: #fff;
      }

      .cls-2, .cls-3, .cls-4 {
        fill: #a4ffc0;
      }

      .cls-2, .cls-5, .cls-6, .cls-4 {
        stroke: #fff;
        stroke-miterlimit: 10;
      }

      .cls-2, .cls-6 {
        stroke-linecap: round;
      }

      .cls-5 {
        stroke-width: .87px;
      }

      .cls-5, .cls-6 {
        fill: none;
      }

      .cls-6 {
        stroke-width: .99px;
      }
    </style>
  </defs>
  <g id="Layer_1" data-name="Layer 1">
    <g>
      <rect x=".5" y=".5" width="255" height="255" rx="38.5" ry="38.5"/>
      <path d="m217,1c20.95,0,38,17.05,38,38v178c0,20.95-17.05,38-38,38H39c-20.95,0-38-17.05-38-38V39C1,18.05,18.05,1,39,1h178m0-1H39C17.55,0,0,17.55,0,39v178C0,238.45,17.55,256,39,256h178c21.45,0,39-17.55,39-39V39c0-21.45-17.55-39-39-39h0Z"/>
    </g>
    <path class="cls-6" d="m103.63,41.21c4.88-14.07,20.38-21.01,33.06-16.45,10.69,3.85,17.82,18.25,16.27,30.45"/>
    <line class="cls-2" x1=".5" y1="80.5" x2="60.5" y2="92.5"/>
    <line class="cls-2" x1=".5" y1="108.5" x2="65.5" y2="124.5"/>
    <line class="cls-2" x1="183.5" y1="89.5" x2="256.5" y2="74.5"/>
    <line class="cls-2" x1="203.5" y1="119.5" x2="256.5" y2="100.5"/>
  </g>
  <g id="Layer_9" data-name="Layer 9">
    <path class="cls-3" d="m247.18,43.58l-64.87,11.73,9.63-25.7-26.21,15.69v-4.51c-3.16,2.88-6.29,5.78-9.59,8.49-1.44,1.18-2.59,2.72-4.14,3.72-.62,9.97-4.59,18.27-9.94,24.1l43.28,13.07c15.5-5.74,30.02-14.15,45.48-19.7h-29.27l45.63-26.88Z"/>
    <path class="cls-3" d="m55.16,70.46h-28.13c5.84,3.63,11.5,7.58,17.1,11.62,5.45,3.93,10.72,7.69,16.74,10.71l50.67-15.31c-6.09-6.39-10.02-16.56-10.02-28.01,0-2.72.23-5.37.65-7.91-4.71-8.05-10.46-15.3-16.09-22.67v24.88l-23.72-14.19,9.46,25.28-62.3-11.28,45.63,26.88Z"/>
    <path class="cls-3" d="m198.1,145.56h39.02c-10.95-9-23.61-15.99-33.79-25.91l-7.93,1.58-29.84-7.07-13.85,58.44c5.45,1.27,11.6,2.07,15.48,5.8l24.43,14.62-11.48-30.67,67.02,12.12-49.08-28.92Z"/>
    <path class="cls-3" d="m73.96,162.81l-10.4,27.8c.55-.26,1.11-.5,1.67-.75,9.46-5.08,18.98-10.04,28.52-14.98,1.93-2.64,3.65-5.39,5.01-8.29l-9.18-50.31c-16.74,4.63-33.04,11.02-49.04,17.6-8.29,3.41-16.49,7.62-24.76,11.68h42.85l-49.08,28.92,64.43-11.66Z"/>
    <line class="cls-4" x1="152" y1="173" x2="183.5" y2="255.5"/>
    <line class="cls-4" x1="98.5" y1="166.5" x2="71.5" y2="255.5"/>
    <path class="cls-1" d="m139.96,70.63c-.43.86-4.62-1.86-11.97-1.95-7.69-.09-12.12,2.78-12.52,1.95-.5-1.04,5.69-7.31,13.08-6.96,6.68.32,11.93,5.92,11.41,6.96Z"/>
    <path class="cls-5" d="m106,49c.83-7.18,5.86-12.1,11.24-11,4.3.88,7.26,6.26,6.59,12-.53,4.6-3.75,7.75-7.19,7.04-2.75-.57-4.64-4-4.22-7.68.34-2.94,2.4-4.96,4.6-4.51,1.76.36,2.97,2.56,2.7,4.92-.22,1.88-1.54,3.17-2.95,2.88-1.13-.23-1.9-1.64-1.73-3.15.14-1.2.98-2.03,1.89-1.85.72.15,1.22,1.05,1.11,2.01"/>
    <path class="cls-5" d="m127.94,48.68c.83-7.18,5.86-12.1,11.24-11,4.3.88,7.26,6.26,6.59,12-.53,4.6-3.75,7.75-7.19,7.04-2.75-.57-4.64-4-4.22-7.68.34-2.94,2.4-4.96,4.6-4.51,1.76.36,2.97,2.56,2.7,4.92-.22,1.88-1.54,3.17-2.95,2.88-1.13-.23-1.9-1.64-1.73-3.15.14-1.2.98-2.03,1.89-1.85.72.15,1.22,1.05,1.11,2.01"/>
  </g>
</svg>