<?xml version="1.0" encoding="UTF-8"?>
<svg xmlns="http://www.w3.org/2000/svg" viewBox="0 0 256 256">
  <defs>
    <style>
      .cls-1 {
        fill: #fff;
      }

      .cls-2 {
        stroke-width: 5px;
      }

      .cls-2, .cls-3 {
        fill: none;
        stroke: #000;
        stroke-miterlimit: 10;
      }

      .cls-3 {
        stroke-linecap: round;
        stroke-width: 3px;
      }
    </style>
  </defs>
  <g id="Layer_1" data-name="Layer 1">
    <g>
      <path d="m39,255.5c-21.23,0-38.5-17.27-38.5-38.5v-119.37c4.03,18.07,11.9,35.63,18.06,47.59l.89-.46c-6.68-12.98-15.38-32.58-18.95-52.21v-31.45c3.05-12.39,10.36-21.7,21.74-27.67,26.79-13.76,57.78-14.9,87.74-16.01,11.24-.42,22.87-.84,34.08-1.94l-.1-1c-11.18,1.09-22.79,1.52-34.02,1.93-30.07,1.11-61.16,2.26-88.16,16.12C11.19,38.11,4.05,46.47.5,57.45v-18.45C.5,17.77,17.77.5,39,.5h178c21.23,0,38.5,17.27,38.5,38.5v178c0,21.23-17.27,38.5-38.5,38.5H39Zm198.56-110.97l.07,1h.13s-.07-1.01-.07-1.01h-.13Zm.15-.01l.06,1-.06-1h0ZM169.73,13.76c21.07,0,36.62,4.65,48.95,14.63,20.08,15.62,31.14,39.44,31.13,67.09h1c0-27.96-11.19-52.06-31.51-67.87-12.51-10.13-28.27-14.85-49.58-14.85v1Z"/>
      <path d="m217,1c20.95,0,38,17.05,38,38v178c0,20.95-17.05,38-38,38H39c-20.95,0-38-17.05-38-38v-115.13c4.25,16.64,11.41,32.51,17.11,43.59l1.78-.91c-6.65-12.93-15.32-32.44-18.89-51.98v-31.39c3.01-12.21,10.23-21.39,21.46-27.29,26.7-13.71,57.62-14.85,87.53-15.95,11.25-.42,22.89-.84,34.11-1.94h.08s0-.01,0-.01h.1c10.32-1.2,18.16-1.73,25.44-1.73,20.9,0,36.33,4.59,48.55,14.45l.67-.75-.61.79.04.03h0c19.95,15.52,30.94,39.21,30.93,66.69,0,16.74-4.13,33.52-11.95,48.56l-.71.05c-19.72,1.33-40.69,1.96-65.98,1.96-19.44,0-39.23-.37-58.37-.73-19.12-.36-38.88-.73-58.27-.73-11.97,0-22.78.14-33.07.42l.06,2c10.27-.29,21.07-.42,33.01-.42,19.37,0,39.12.37,58.23.73,19.15.36,38.95.74,58.42.74,25.33,0,46.34-.62,66.11-1.96l1.07-.07h.1s.1-.01.1-.01l.56-.04.26-.49c8.13-15.45,12.43-32.74,12.44-49.99,0-28.12-11.26-52.36-31.69-68.25l-.05-.04h0s-.04-.03-.04-.03c-12.6-10.16-28.43-14.89-49.81-14.89-7.36,0-15.27.53-25.68,1.73h-.09s-.05.02-.05.02c-11.16,1.09-22.77,1.52-33.99,1.93-30.12,1.11-61.27,2.26-88.38,16.18-9.8,5.15-16.69,12.68-20.54,22.46v-15.57C1,18.05,18.05,1,39,1h178m0-1H39C17.55,0,0,17.55,0,39v22.06c2.83-11.61,9.56-21.53,22-28.06,37-19,81-14,122-18,.02,0,.05,0,.07,0,8.45-.97,17.1-1.73,25.66-1.73h0c17.74,0,35.07,3.27,49.22,14.7.02.01.03.03.05.04,21.6,16.8,31.32,41.89,31.32,67.48,0,17.05-4.32,34.33-12.32,49.52-.07,0-.13,0-.2.01-22.3,1.54-44.69,2.03-67.12,2.03h0c-38.88,0-77.86-1.47-116.64-1.47-11.03,0-22.05.12-33.04.42,11-.31,22.01-.42,33.04-.42,38.78,0,77.77,1.47,116.64,1.47h0c22.43,0,44.82-.49,67.12-2.03.07,0,.13,0,.2-.01,8-15.2,12.32-32.47,12.32-49.52,0-25.59-9.72-50.67-31.32-67.48-.02-.01-.03-.03-.05-.04-14.15-11.43-31.47-14.7-49.22-14.7h0c-8.56,0-17.21.76-25.66,1.73-.02,0-.05,0-.07,0-41,4-85-1-122,18C9.56,39.53,2.83,49.44,0,61.06v31.6c3.34,18.36,11.26,37.3,19,52.35-7.74-15.05-15.66-33.98-19-52.35v124.35c0,21.45,17.55,39,39,39h178c21.45,0,39-17.55,39-39V39c0-21.45-17.55-39-39-39h0Z"/>
    </g>
  </g>
  <g id="Layer_14" data-name="Layer 14">
    <path class="cls-1" d="m28,145.83v66.17c0,6.6,5.4,12,12,12h174c6.6,0,12-5.4,12-12v-66.27c-65.77,3.5-132.27-1.27-198,.1Z"/>
    <path d="m221.66,144.63c-.11.01-.22.03-.33.04-2.59.17-5.15.44-7.71.71,0,.31-.05.62-.11.92,2.53-.1,5.06-.2,7.59-.32.11-.44.29-.89.56-1.34Z"/>
    <path d="m120.01,145.62c-2.79.16-5.58.35-8.37.55,0,.04,0,.08-.01.13,2.83.05,5.66.11,8.5.16-.04-.28-.09-.56-.11-.84Z"/>
    <ellipse class="cls-1" cx="125" cy="169" rx="40" ry="54"/>
    <path d="m213.51,146.3c-.12.62-.34,1.21-.68,1.7h2.17v36h-97v-36h2.42c-.13-.51-.22-1.03-.3-1.54-2.83-.05-5.66-.11-8.5-.16-.03.57-.08,1.14-.16,1.7h1.54v36H27.5v5h27.5v41.5h5v-41.5h100v41.5h5v-41.5h71.5v-5h-16.5v-36h1.16c-.2-.63-.23-1.32-.06-2.03-2.53.12-5.06.23-7.59.32Z"/>
    <line class="cls-2" x1="19" y1="146.5" x2="248" y2="146.5"/>
    <circle class="cls-1" cx="125" cy="89" r="23"/>
    <path class="cls-1" d="m89.29,52.6c-.41-.18-4.92-2.03-8.61.49-.55.38-2.46,1.73-3.01,4.24-.37,1.71-.2,4.29,1.55,5.77,1.64,1.39,3.86,1.13,5.45.94,2.77-.32,3.35-1.4,5.38-1.47,1.37-.05,3.33.36,5.76,2.5-.05-1.56-.36-4.75-2.4-8.03-1.37-2.2-3-3.62-4.12-4.45Z"/>
    <path class="cls-1" d="m89.4,68.52c-.23.06-2.74.73-3.49,2.99-.11.34-.48,1.52.1,2.77.39.84,1.3,1.88,2.52,1.94,1.14.06,2-.77,2.61-1.36,1.07-1.03.97-1.67,1.8-2.36.57-.47,1.53-.92,3.25-.8-.52-.64-1.69-1.89-3.61-2.63-1.29-.49-2.44-.57-3.18-.55Z"/>
    <path class="cls-1" d="m105.18,55.26c-.06-.23-.8-2.72-3.08-3.41-.34-.1-1.54-.44-2.76.17-.83.41-1.85,1.35-1.88,2.57-.03,1.14.82,1.98,1.43,2.58,1.06,1.04,1.7.92,2.41,1.74.48.55.96,1.5.88,3.23.63-.54,1.85-1.74,2.53-3.68.46-1.3.5-2.45.47-3.2Z"/>
    <path class="cls-3" d="m104.5,87.5c1.13.14,5.09.5,9-2,4.81-3.08,5.84-8.13,6-9"/>
    <path class="cls-3" d="m144.72,87.23c-1.13.14-5.09.5-9-2-4.81-3.08-5.84-8.13-6-9"/>
  </g>
</svg>