<?xml version="1.0" encoding="UTF-8"?>
<svg xmlns="http://www.w3.org/2000/svg" viewBox="0 0 256 256">
  <defs>
    <style>
      .cls-1, .cls-2, .cls-3 {
        stroke-width: 2px;
      }

      .cls-1, .cls-2, .cls-3, .cls-4 {
        stroke: #000;
        stroke-miterlimit: 10;
      }

      .cls-1, .cls-5 {
        fill: #47dd28;
      }

      .cls-1, .cls-3, .cls-6, .cls-7 {
        fill-rule: evenodd;
      }

      .cls-2, .cls-8, .cls-3, .cls-6 {
        fill: #adff99;
      }

      .cls-4 {
        fill: none;
        stroke-linecap: round;
        stroke-width: 3.1px;
      }
    </style>
  </defs>
  <g id="Layer_1" data-name="Layer 1">
    <g>
      <rect x=".5" y=".5" width="255" height="255" rx="38.5" ry="38.5"/>
      <path d="m217,1c20.95,0,38,17.05,38,38v178c0,20.95-17.05,38-38,38H39c-20.95,0-38-17.05-38-38V39C1,18.05,18.05,1,39,1h178m0-1H39C17.55,0,0,17.55,0,39v178c0,21.45,17.55,39,39,39h178c21.45,0,39-17.55,39-39V39c0-21.45-17.55-39-39-39h0Z"/>
    </g>
  </g>
  <g id="Layer_8" data-name="Layer 8">
    <ellipse class="cls-8" cx="82.8" cy="30.24" rx="23.09" ry="20.08" transform="translate(-5.13 36.48) rotate(-24.12)"/>
    <path class="cls-6" d="m154.21,155.1c22.52-10.08,34.03-33.35,25.7-51.96-7.35-16.41-27.66-23.71-47.8-18.3-.37-1.47-.87-2.91-1.5-4.33-6.72-15.02-26.17-20.92-43.44-13.19-1.88.84-3.65,1.82-5.32,2.9-.15-2.77-.76-5.53-1.94-8.16-5.85-13.06-22.76-18.2-37.78-11.47s-22.45,22.76-16.6,35.82c3.48,7.76,10.87,12.7,19.45,14.03-18.69,9.03-28.12,28.55-21.12,44.2,6.45,14.4,24.63,20.6,42.44,15.31.18,2.31.75,4.59,1.73,6.78,5.26,11.75,20.48,16.38,34,10.32,8.91-3.99,14.82-11.62,16.33-19.73,10.64,3.71,23.61,3.26,35.86-2.22Zm-58.28-23.9c.03.22.06.43.1.65-.09,0-.17-.01-.25-.02.06-.21.1-.42.16-.63Z"/>
    <path class="cls-6" d="m221.24,173.38c3.2-3.54,4.33-8.35,2.47-12.5-2.63-5.88-10.24-8.19-17-5.16-3.36,1.51-5.88,4.05-7.23,6.95-7.24-9.79-22.28-12.16-34.52-5.11-12.81,7.37-17.69,22.24-10.9,33.22,6.79,10.97,22.69,13.89,35.5,6.52.75-.43,1.46-.89,2.15-1.37.14,2.13.63,4.25,1.54,6.27,4.53,10.12,17.33,14.24,28.6,9.2s16.72-17.33,12.19-27.46c-2.41-5.39-7.17-9.05-12.79-10.56Z"/>
    <ellipse class="cls-8" cx="230.81" cy="235.24" rx="11.92" ry="10.36" transform="translate(-75.98 114.86) rotate(-24.12)"/>
    <ellipse class="cls-8" cx="176.41" cy="221.09" rx="15.64" ry="13.6" transform="translate(-74.95 91.4) rotate(-24.12)"/>
    <ellipse class="cls-8" cx="198.49" cy="136.77" rx="8.94" ry="7.77" transform="translate(-38.56 93.06) rotate(-24.12)"/>
    <ellipse class="cls-8" cx="15.26" cy="102.91" rx="9.68" ry="8.42" transform="translate(-40.72 15.22) rotate(-24.12)"/>
    <ellipse class="cls-8" cx="213.32" cy="225.15" rx="5.96" ry="5.18" transform="translate(-73.38 106.83) rotate(-24.12)"/>
    <path class="cls-1" d="m67.8,161.8l91.72-103.71c-2.26-4.9-3.28-12.86-2.11-20.24.96-6.11,1.87-11.85,7.49-15.47,6.75-4.35,18.23-4.31,24.75,1.72,6.73,6.23,4.06,15.02,3.86,15.65,3.92-8.98,13.58-13.84,21.09-12.34,8.26,1.64,11.15,10.42,11.39,15.51.61,12.63-14.09,21.06-16.07,22.2-8.73,5.01-19.91,6.92-27.44,6.22l-97.67,110.44c3.94,8.34,4.07,37.85-10.52,42.47-7.57,2.4-19.92-1.66-22.96-10.02-1.88-5.16.43-10.16,2.6-13.36-.35-.21-.69-.43-1.03-.67-5.63,3.39-12.21,4.63-18.03,3.2-6.49-1.6-12.54-6.67-12.85-12.1-.74-13.22,32.65-26.54,45.8-29.5Z"/>
    <path class="cls-1" d="m183.31,165.42L91.59,61.71c2.26-4.9,3.28-12.86,2.11-20.24-.96-6.11-1.87-11.85-7.49-15.47-6.75-4.35-18.23-4.31-24.75,1.72-6.73,6.23-4.06,15.02-3.86,15.65-3.92-8.98-13.58-13.84-21.09-12.34-8.26,1.64-11.15,10.42-11.39,15.51-.61,12.63,14.09,21.06,16.07,22.2,8.73,5.01,19.91,6.92,27.44,6.22l97.67,110.44c-3.94,8.34-4.07,37.85,10.52,42.47,7.57,2.4,19.92-1.66,22.96-10.02,1.88-5.16-.43-10.16-2.6-13.36.35-.21.69-.43,1.03-.67,5.63,3.39,12.21,4.63,18.03,3.2,6.49-1.6,12.54-6.67,12.85-12.1.74-13.22-32.65-26.54-45.8-29.5Z"/>
    <g>
      <path class="cls-5" d="m109.7,204.6c-6.43,0-11.66-5.23-11.66-11.66v-20.18l-.7-.02c-11.87-.39-19.48-3.26-22.62-8.55-1.63-2.74-1.61-5.33-1.57-10.04.02-3.24.05-7.28-.42-12.95-.44-5.3-1.22-9.11-1.79-11.89-.44-2.15-.76-3.7-.76-5,0-31.18,25.37-56.55,56.55-56.55s56.55,25.37,56.55,56.55c0,1.42-.34,3.07-.77,5.17-.56,2.71-1.32,6.42-1.75,11.65-.52,6.31-.43,10.81-.35,14.42.11,5.08.16,7.87-1.65,10.68-3.06,4.74-10.1,7.15-20.91,7.15,0,0,0,0,0,0-.87,0-1.77-.02-2.71-.05l-.75-.03v19.64c0,6.43-5.23,11.66-11.66,11.66h-33.02Z"/>
      <path d="m126.73,68.49c30.78,0,55.82,25.04,55.82,55.82,0,1.35-.32,2.89-.76,5.02-.56,2.73-1.33,6.46-1.77,11.74-.52,6.35-.43,10.87-.35,14.5.1,4.93.16,7.65-1.53,10.27-2.92,4.52-9.75,6.81-20.3,6.81-.86,0-1.77-.02-2.68-.05l-1.5-.05v20.39c0,6.03-4.9,10.93-10.93,10.93h-33.02c-6.03,0-10.93-4.9-10.93-10.93v-20.89l-1.41-.05c-11.61-.38-19.02-3.13-22.02-8.19-1.52-2.57-1.51-4.94-1.47-9.66.02-3.26.06-7.31-.42-13.01-.45-5.34-1.23-9.18-1.8-11.98-.43-2.11-.74-3.63-.74-4.86,0-30.78,25.04-55.82,55.82-55.82m0-1.45c-31.63,0-57.27,25.64-57.27,57.27,0,3.18,1.78,7.69,2.55,16.96,1.18,14.11-.79,18.44,2.09,23.29,2.43,4.09,8.22,8.41,23.22,8.9v19.48c0,6.81,5.57,12.38,12.38,12.38h33.02c6.81,0,12.38-5.57,12.38-12.38v-18.88c.94.03,1.85.05,2.73.05,13.54,0,19.08-3.71,21.52-7.48,3.26-5.05.84-10.03,2.11-25.43.76-9.25,2.53-13.47,2.53-16.88,0-31.63-25.64-57.27-57.27-57.27h0Z"/>
    </g>
    <path d="m120.53,147.02c.59,5.63-10.14,13.96-20.64,12.9-9-.91-17.56-8.68-18.06-18.06-.22-4.2,1.05-11.04,5.68-13.42,4.77-2.45,12.12,2.5,26.83,12.38,4.61,3.1,6,4.34,6.19,6.19Z"/>
    <path d="m133.51,147.28c-.59,5.63,10.14,13.96,20.64,12.9,9-.91,17.56-8.68,18.06-18.06.22-4.2-1.05-11.04-5.68-13.42-4.77-2.45-12.12,2.5-26.83,12.38-4.61,3.1-6,4.34-6.19,6.19Z"/>
    <line class="cls-4" x1="112.28" y1="204.81" x2="112.28" y2="181.07"/>
    <line class="cls-4" x1="126.73" y1="211" x2="126.73" y2="187.26"/>
    <line class="cls-4" x1="143.24" y1="204.81" x2="143.24" y2="181.07"/>
    <path class="cls-7" d="m134.18,167.94c-.76,3.07-3.26,6.24-4.93,5.81-2.84-.72-2.57-11.66-3.08-11.63-.52.03.8,11.36-1.85,12.28-1.62.56-4.66-2.84-5.54-6.46-1.49-6.09,2.79-14.09,7.39-14.21,4.74-.13,9.52,8.09,8.01,14.21Z"/>
    <g>
      <path class="cls-3" d="m104.04,225c-.93,0-1.82.2-2.63.55.47-1.67.73-3.45.73-5.29,0-10.09-7.64-18.26-17.07-18.26s-17.07,8.18-17.07,18.26c0,7.39,4.11,13.75,10.01,16.63-.72,1.02-1.16,2.29-1.16,3.67,0,3.36,2.55,6.09,5.69,6.09s5.69-2.73,5.69-6.09c0-.8-.15-1.57-.41-2.27,3.6-.62,6.83-2.45,9.3-5.09.36,3.75,3.32,6.68,6.92,6.68,3.84,0,6.96-3.33,6.96-7.44s-3.11-7.44-6.96-7.44Z"/>
      <ellipse class="cls-2" cx="98.99" cy="243.94" rx="3.79" ry="4.06"/>
    </g>
    <g>
      <path class="cls-3" d="m192.46,80.33c.93,0,1.82.2,2.63.55-.47-1.67-.73-3.45-.73-5.29,0-10.09,7.64-18.26,17.07-18.26s17.07,8.18,17.07,18.26c0,7.39-4.11,13.75-10.01,16.63.72,1.02,1.16,2.29,1.16,3.67,0,3.36-2.55,6.09-5.69,6.09s-5.69-2.73-5.69-6.09c0-.8.15-1.57.41-2.27-3.6-.62-6.83-2.45-9.3-5.09-.36,3.75-3.32,6.68-6.92,6.68-3.84,0-6.96-3.33-6.96-7.44s3.11-7.44,6.96-7.44Z"/>
      <ellipse class="cls-2" cx="197.51" cy="99.27" rx="3.79" ry="4.06"/>
    </g>
    <ellipse class="cls-8" cx="121" cy="47.33" rx="8.94" ry="7.77" transform="translate(-8.78 53.58) rotate(-24.12)"/>
    <ellipse class="cls-8" cx="157" cy="14.33" rx="5.18" ry="5.96" transform="translate(79.76 151.77) rotate(-65.88)"/>
  </g>
</svg>