<?xml version="1.0" encoding="UTF-8"?>
<svg xmlns="http://www.w3.org/2000/svg" viewBox="0 0 256 256">
  <defs>
    <style>
      .cls-1 {
        fill: #fff;
      }
    </style>
  </defs>
  <g id="Layer_1" data-name="Layer 1">
    <g>
      <rect x=".5" y=".5" width="255" height="255" rx="38.5" ry="38.5"/>
      <path d="m217,1c20.95,0,38,17.05,38,38v178c0,20.95-17.05,38-38,38H39c-20.95,0-38-17.05-38-38V39C1,18.05,18.05,1,39,1h178m0-1H39C17.55,0,0,17.55,0,39v178c0,21.45,17.55,39,39,39h178c21.45,0,39-17.55,39-39V39c0-21.45-17.55-39-39-39h0Z"/>
    </g>
  </g>
  <g id="Layer_9" data-name="Layer 9">
    <path class="cls-1" d="m118.38,6.79c-6.27,0-11.35,5.08-11.35,11.35v50.99c.01,1.61.36,3.2,1.03,4.66-.18,2.31.35,4.62,1.51,6.62l20.01,34.32-37.86,26.57,2.92-23.3c.47-3.8-1.01-7.57-3.92-10.05l-31.76-39.26c-3.94-4.87-11.09-5.63-15.96-1.68,0,0,0,0,0,0l-4.4,3.56c-4.88,3.94-5.64,11.09-1.7,15.97,0,0,0,0,0,.01l28.65,35.41-5.39,43.1c-.58,4.69,1.8,9.24,5.98,11.44l17.95,25.62c.34.48.71.93,1.12,1.35.25,4.16,2.75,7.85,6.51,9.61l46.15,21.58c1.5.7,3.13,1.06,4.78,1.06,3.67,1.7,7.96,1.33,11.28-.99l41.76-29.2c5.14-3.59,6.39-10.67,2.8-15.81,0,0,0,0,0,0l-3.25-4.64c-3.59-5.14-10.66-6.4-15.8-2.82l-34.7,24.27-28.3-13.24,57.79-40.55c1.02-.73,1.92-1.62,2.65-2.64,3.18-1.03,5.75-3.42,7.01-6.51l17.84-43.86,42.08-21.49c5.58-2.85,7.8-9.69,4.94-15.27,0,0,0,0,0,0l-2.58-5.06c-2.85-5.58-9.68-7.8-15.27-4.96,0,0,0,0,0,0l-45.37,23.18c-1.98,1.01-3.62,2.58-4.72,4.52-1.79,1.25-3.18,2.99-4,5.02l-13.12,32.25-2.5-3.56c-.19-1.49-.68-2.93-1.44-4.24l-24.35-41.73V18.15c0-6.27-5.08-11.35-11.35-11.35,0,0,0,0,0,0h-5.68,0ZM49.59,179.3c-15.87-.46-29.11,12.03-29.58,27.9,0,.28-.01.57-.01.85,0,15.88,12.87,28.75,28.75,28.75s28.75-12.87,28.75-28.75c0-15.56-12.36-28.3-27.91-28.75Z"/>
  </g>
</svg>