<?xml version="1.0" encoding="UTF-8"?>
<svg xmlns="http://www.w3.org/2000/svg" version="1.1" xmlns:xlink="http://www.w3.org/1999/xlink" viewBox="0 0 257 257">
  <defs>
    <style>
      .cls-1, .cls-2, .cls-3, .cls-4, .cls-5, .cls-6, .cls-7, .cls-8, .cls-9, .cls-10, .cls-11, .cls-12, .cls-13, .cls-14, .cls-15, .cls-16, .cls-17, .cls-18 {
        stroke-width: 0px;
      }

      .cls-1, .cls-19, .cls-20, .cls-13, .cls-21, .cls-22, .cls-23 {
        fill-rule: evenodd;
      }

      .cls-1, .cls-19, .cls-14, .cls-24 {
        fill: #adff99;
      }

      .cls-25 {
        stroke-width: 7px;
      }

      .cls-25, .cls-26, .cls-27, .cls-28, .cls-29, .cls-30, .cls-31, .cls-19, .cls-32, .cls-33, .cls-34, .cls-35, .cls-36, .cls-37, .cls-20, .cls-38, .cls-39, .cls-40, .cls-21, .cls-41, .cls-42, .cls-43, .cls-22, .cls-44, .cls-45, .cls-46, .cls-23, .cls-47, .cls-48, .cls-49, .cls-50, .cls-51, .cls-52, .cls-53, .cls-54, .cls-55, .cls-24, .cls-56 {
        stroke-miterlimit: 10;
      }

      .cls-25, .cls-26, .cls-27, .cls-28, .cls-31, .cls-19, .cls-34, .cls-36, .cls-37, .cls-20, .cls-39, .cls-40, .cls-21, .cls-41, .cls-43, .cls-22, .cls-46, .cls-23, .cls-48, .cls-49, .cls-50, .cls-51, .cls-52, .cls-54, .cls-55, .cls-24 {
        stroke: #000;
      }

      .cls-25, .cls-26, .cls-28, .cls-29, .cls-31, .cls-32, .cls-33, .cls-34, .cls-7, .cls-36, .cls-39, .cls-40, .cls-41, .cls-42, .cls-44, .cls-45, .cls-46, .cls-47, .cls-48, .cls-49, .cls-50, .cls-51, .cls-53, .cls-54, .cls-55, .cls-56 {
        fill: none;
      }

      .cls-25, .cls-26, .cls-28, .cls-31, .cls-32, .cls-34, .cls-36, .cls-37, .cls-40, .cls-41, .cls-42, .cls-44, .cls-47, .cls-48, .cls-49, .cls-50, .cls-51, .cls-52, .cls-53, .cls-54, .cls-55, .cls-56 {
        stroke-linecap: round;
      }

      .cls-2 {
        fill: #44317a;
      }

      .cls-26 {
        stroke-width: 13.4px;
      }

      .cls-27, .cls-3, .cls-6, .cls-37, .cls-13 {
        fill: #000;
      }

      .cls-28, .cls-44 {
        stroke-width: 8px;
      }

      .cls-4, .cls-52 {
        fill: #ffbdbd;
      }

      .cls-5 {
        fill: #f9c2ff;
      }

      .cls-29, .cls-30, .cls-20 {
        stroke-width: 4px;
      }

      .cls-29, .cls-32, .cls-33, .cls-35, .cls-38, .cls-44, .cls-45, .cls-53, .cls-56 {
        stroke: #fff;
      }

      .cls-30 {
        fill: #d2e9ff;
        stroke: #424242;
      }

      .cls-31 {
        stroke-width: 9px;
      }

      .cls-19, .cls-21, .cls-22, .cls-24 {
        stroke-width: 2px;
      }

      .cls-32 {
        stroke-width: 7.1px;
      }

      .cls-33, .cls-23, .cls-48, .cls-53 {
        stroke-width: 3px;
      }

      .cls-34 {
        stroke-width: 6.1px;
      }

      .cls-35 {
        stroke-width: 1.3px;
      }

      .cls-35, .cls-15 {
        fill: #ffabab;
      }

      .cls-6, .cls-57 {
        display: none;
      }

      .cls-8 {
        fill: #fff9bd;
      }

      .cls-36 {
        stroke-width: 5.1px;
      }

      .cls-37 {
        stroke-width: 9.2px;
      }

      .cls-9 {
        fill: red;
      }

      .cls-10 {
        fill: #fff8a1;
      }

      .cls-11 {
        fill: #c2f4ff;
      }

      .cls-20, .cls-43, .cls-22, .cls-23, .cls-17 {
        fill: #fff;
      }

      .cls-12 {
        fill: gray;
      }

      .cls-38 {
        fill: #f2f2f2;
      }

      .cls-39, .cls-43 {
        stroke-width: 5.6px;
      }

      .cls-40 {
        stroke-width: 6.4px;
      }

      .cls-21, .cls-16 {
        fill: #47dd28;
      }

      .cls-41, .cls-46 {
        stroke-width: 5px;
      }

      .cls-58 {
        clip-path: url(#clippath);
      }

      .cls-42 {
        stroke: #333;
        stroke-width: 9px;
      }

      .cls-45 {
        stroke-width: 16.1px;
      }

      .cls-47 {
        stroke: gray;
        stroke-width: 6px;
      }

      .cls-49 {
        stroke-width: 3.1px;
      }

      .cls-50 {
        stroke-width: 6.7px;
      }

      .cls-51 {
        stroke-width: 14px;
      }

      .cls-52 {
        stroke-width: 10px;
      }

      .cls-18 {
        fill: #a4d2ff;
      }

      .cls-54 {
        stroke-width: 6.5px;
      }

      .cls-55 {
        stroke-width: 16px;
      }

      .cls-56 {
        stroke-width: 11.5px;
      }
    </style>
    <clipPath id="clippath">
      <path class="cls-7" d="M214.9,2H41.1C20.1,2,3,19.2,3,40.2v174.5c0,21,17.1,38.2,38.1,38.2h173.8c20.9,0,38.1-17.2,38.1-38.2V40.2c0-21-17.1-38.2-38.1-38.2Z"/>
    </clipPath>
  </defs>
  <g id="Layer_1" data-name="Layer 1" class="cls-57">
    <path class="cls-27" d="M217.5.5H39.5C18,.5.5,18,.5,39.5v178c0,21.5,17.5,39,39,39h178c21.5,0,39-17.5,39-39V39.5c0-21.5-17.5-39-39-39Z"/>
    <circle class="cls-9" cx="128.5" cy="158.5" r="94.5"/>
    <ellipse class="cls-3" cx="89.6" cy="131.3" rx="11.8" ry="21.2"/>
    <ellipse class="cls-3" cx="168.1" cy="131" rx="11.8" ry="21.2"/>
    <path class="cls-37" d="M190.2,94.8c-1.9,3.2-5.7,8.9-12.7,13.7-7.9,5.4-15.7,6.6-19.4,7"/>
    <path class="cls-43" d="M188.7,173.4c15.2,19.8-5.6,46.2-7.7,48.9h-105.1c-2.1-2.6-22.9-29.1-7.7-48.9,21-27.4,99.5-27.4,120.5,0Z"/>
    <path class="cls-3" d="M-267,126"/>
    <line class="cls-39" x1="83.8" y1="161.7" x2="97.4" y2="222.3"/>
    <line class="cls-39" x1="128.5" y1="154.3" x2="128.5" y2="220.5"/>
    <line class="cls-39" x1="174" y1="162.5" x2="156.4" y2="222.3"/>
    <path class="cls-12" d="M28.3,47.9c1.9.6,3.8.9,5.7.8-.5.8-1,1.7-1.3,2.7-2.4,7.2,1.8,15.1,9.5,17.7s15.9-1.1,18.3-8.3.2-10.2-3.4-13.9c0,0,.1,0,.2-.1,1.8,1.8,4.1,3.3,6.8,4.2,8.1,2.7,16.6-.8,19-7.8s-2.2-15-10.3-17.7-8.4-1.2-11.9.4c-.3-.4-.7-.7-1.1-1.1.2-.3.3-.7.4-1,1.5-4.5-1.6-9.5-6.9-11.3s-10.8.4-12.3,4.8-.4,4.3.7,6.3c-.3.2-.7.5-1,.7-1.1-.8-2.4-1.4-3.8-1.9-7.6-2.6-15.6,1.1-18,8.2s1.8,14.9,9.4,17.4Z"/>
    <path class="cls-12" d="M195.6,24.9c2.2,0,4.4.5,6.3,1.3-.3-1.2-.4-2.4-.4-3.6,0-9.3,7.3-16.8,16.3-16.8s16.3,7.5,16.3,16.8-3.5,11.9-8.5,14.8c0,0,.1.1.2.2,2.5-1.4,5.5-2.2,8.6-2.2,9.5,0,17.1,7.4,17.1,16.5s-7.7,16.5-17.1,16.5-9.2-1.9-12.3-5c-.5.3-1,.6-1.5.8,0,.4.1.9.1,1.4,0,5.8-5,10.4-11.2,10.4s-11.2-4.7-11.2-10.4,1.1-5.1,2.9-7c-.3-.4-.5-.8-.8-1.2-1.5.5-3,.7-4.7.7-8.8,0-16-7.4-16-16.5s7.2-16.5,16-16.5Z"/>
    <line class="cls-47" x1="60.8" y1="47.6" x2="78.2" y2="71.4"/>
    <line class="cls-47" x1="205" y1="53.4" x2="184.2" y2="74.2"/>
    <path class="cls-37" d="M67.5,95.4c1.9,3.2,5.7,8.9,12.7,13.7,7.9,5.4,15.7,6.6,19.4,7"/>
  </g>
  <g id="Layer_2" data-name="Layer 2" class="cls-57">
    <ellipse class="cls-9" cx="46.5" cy="72.3" rx="34.5" ry="36.3"/>
    <path class="cls-9" d="M172.8,56.5c-9.9-13.3-22.5-17.8-31.5-21-15.7-5.6-29.4-4.8-37.4-3.5-1.9.3-10.3,1.9-15.8,10.6-2.9,4.5-3.9,9.2-4.3,11.9v25.2c0,9.2,6.5,16.8,14.5,16.8,7.5,1.2,14.9,2.3,22.4,3.5,3.5,1.2,8.5,3.6,13.3,8.4,7.5,7.6,7.2,14,12.1,18.2,8.7,7.5,27.6,2.7,36.3-9.8,12.1-17.3.9-46-9.7-60.2Z"/>
    <rect class="cls-9" x="89.3" y="100.3" width="18" height="100.6" rx="5.6" ry="5.6"/>
    <rect class="cls-9" x="69.9" y="100.3" width="13.9" height="85.7" rx="4.3" ry="4.3"/>
    <path class="cls-9" d="M154.6,227.3c-7.2-12.4-14.4-24.7-21.6-37.1,10.5-12.3,21-24.6,31.4-36.8,4.1-4.8,4.1-12.6.1-17.5s-10.6-4.9-14.7-.2c-12.6,13.8-25.1,27.5-37.7,41.3v24.7c9.5,13.9,19,27.8,28.5,41.7,3.7,4.5,9.9,4.6,13.7.1,3.8-4.4,3.9-11.8.1-16.3Z"/>
    <path class="cls-9" d="M233.5,190.9c-12.6-1.3-25.2-2.6-37.8-3.9-1.3-17.4-2.5-34.9-3.8-52.3-.5-6.8-5.5-11.9-11.2-11.3-5.7.6-10,6.6-9.5,13.4.9,20.3,1.8,40.6,2.7,60.8,5.3,5.3,10.7,10.5,16,15.8,15.1.2,30.2.4,45.2.5,5.3-.5,9.3-6.1,8.9-12.5-.4-6.3-5.2-11.1-10.5-10.5Z"/>
  </g>
  <g id="Layer_3" data-name="Layer 3" class="cls-57">
    <g>
      <path class="cls-4" d="M131,253.5c-31.7,0-57.5-25.8-57.5-57.5s25.8-57.5,57.5-57.5,57.5,25.8,57.5,57.5-25.8,57.5-57.5,57.5Z"/>
      <path class="cls-15" d="M131,139c31.4,0,57,25.6,57,57s-25.6,57-57,57-57-25.6-57-57,25.6-57,57-57M131,138c-32,0-58,26-58,58s26,58,58,58,58-26,58-58-26-58-58-58h0Z"/>
    </g>
    <g>
      <path class="cls-4" d="M126.7,121.4s-1,0-1.9-.2c-.4-.2-49.7-22.8-54-69-.5-5.8-.4-12,3.9-17.9,4.3-5.8,13.3-12.6,24.8-12.6s1.2,0,1.8,0c3.7.2,10.9,1.5,17.4,7.2,4.6,4,7,8.7,8.2,11.9l.5,1.5.6-1.4c5-11,15.2-18.3,26.5-19.1.7,0,1.3,0,2,0,10.4,0,19.6,5.8,24.2,11.5,3.9,4.9,5.2,10.5,4.3,19.1-4.7,46.4-56.4,69-56.9,69.2-.4,0-.8,0-1.1,0-.2,0-.4,0-.4,0Z"/>
      <path class="cls-15" d="M156.6,22.2c10.2,0,19.2,5.6,23.7,11.2,3.8,4.8,5.1,10.2,4.2,18.7-4.6,45.3-54.2,67.7-56.4,68.6-.4,0-.7,0-1,0s-.3,0-.3,0c0,0-.9,0-1.7-.2-1.6-.6-13.8-6.7-25.9-17.7-11.4-10.3-25.5-27.5-27.6-50.8-.5-5.7-.4-11.8,3.7-17.5,4.5-6.2,13.7-12.4,24.3-12.4.6,0,1.2,0,1.7,0,3.6.2,10.7,1.4,17,7,4.5,3.9,6.8,8.5,8,11.7l1.1,2.9,1.3-2.8c4.9-10.8,14.9-18,26-18.7.6,0,1.3,0,1.9,0M156.6,20.9c-.7,0-1.3,0-2,0-11.6.8-22,8.4-27.1,19.5-1-2.6-3.3-7.7-8.3-12.2-7.1-6.2-15-7.1-17.8-7.3-.6,0-1.2,0-1.8,0-11.6,0-20.9,6.9-25.3,12.9-4.2,5.7-4.6,11.7-4,18.4,4.3,46.2,53.6,69.4,54.5,69.5,1,.2,2,.2,2,.2,0,0,.2,0,.4,0s.8,0,1.2,0c.7,0,52.7-23.1,57.4-69.7.8-7.6,0-13.9-4.5-19.6-4.2-5.3-13.4-11.7-24.7-11.7h0Z"/>
    </g>
    <g>
      <path class="cls-4" d="M56.5,145.3c-.3,0-29.4-2-44-27.3-1.9-3.2-3.5-6.8-3.2-11.2.4-5,3.3-10.9,8.8-13.1,1.4-.6,3-.8,4.6-.8,5.5,0,10.8,3.2,13.9,8.4l.7-.3c-2.8-7.4-.4-15.6,5.6-19.1,2-1.2,4.2-1.7,6.6-1.7s6.1.9,8.6,2.4c3.2,2,5.3,4.9,7.3,10,10.7,27.7-7.2,52-7.4,52.2-.3.2-.6.3-.6.3,0,0-.4.2-.9.3h0Z"/>
      <path class="cls-15" d="M49.5,80.4c2.9,0,5.9.9,8.4,2.4,3.1,1.9,5.2,4.8,7.2,9.8,5.4,14,3.2,27.1.5,35.7-2.9,9-7.1,15.3-7.8,16.1-.3.2-.6.3-.6.3,0,0-.4.2-.8.3-1.1,0-29.4-2.4-43.7-27.2-1.8-3.2-3.5-6.7-3.1-10.9.4-4.9,3.2-10.7,8.6-12.8,1.4-.5,2.9-.8,4.5-.8,5.4,0,10.6,3.1,13.5,8.2l1.3-.6c-2.7-7.2-.4-15.2,5.5-18.7,1.9-1.1,4.1-1.7,6.4-1.7M49.5,79.6c-2.3,0-4.7.5-6.8,1.8-5.9,3.5-8.7,11.8-5.8,19.6-3.2-5.5-8.8-8.5-14.2-8.5-1.6,0-3.2.3-4.7.9-6,2.3-8.7,8.7-9.1,13.4-.4,4.2,1.1,7.7,3.2,11.4,14.4,24.9,42.9,27.5,44.3,27.5s0,0,0,0c.5-.1,1-.3,1-.3s.4-.2.7-.4c.3-.2,18.1-25,7.5-52.6-1.7-4.5-3.8-7.9-7.5-10.2-2.3-1.4-5.5-2.5-8.8-2.5h0Z"/>
    </g>
    <g>
      <path class="cls-4" d="M202,144.9c-.4,0-.8-.3-.9-.3h0c0,0-.4-.2-.7-.4-.1-.2-18-24.5-7.3-52.2,2-5.1,4.1-8,7.3-10,2.5-1.5,5.6-2.4,8.6-2.4s4.7.6,6.6,1.7c6,3.5,8.4,11.8,5.6,19.1l.7.3c3-5.2,8.3-8.4,13.9-8.4s3.2.3,4.6.8c5.5,2.2,8.4,8.1,8.8,13.1.4,4.4-1.3,7.9-3.2,11.2-14.6,25.3-43.7,27.3-44,27.3h0Z"/>
      <path class="cls-15" d="M209,80h0c2.4,0,4.5.6,6.4,1.7,5.8,3.4,8.2,11.5,5.5,18.7l1.3.6c3-5.1,8.2-8.2,13.5-8.2s3.1.3,4.5.8c5.4,2.1,8.2,7.9,8.6,12.8.4,4.3-1.3,7.8-3.1,10.9-14.3,24.7-42.5,27.1-43.7,27.1-.4,0-.8-.2-.8-.3,0,0-.3-.1-.6-.3-.7-.8-4.9-7.2-7.8-16.1-2.7-8.6-4.9-21.7.5-35.7,2-5.1,4-7.9,7.2-9.8,2.5-1.5,5.5-2.4,8.4-2.4M209,79.3c-3.3,0-6.4,1.1-8.8,2.5-3.7,2.2-5.7,5.7-7.5,10.2-10.7,27.7,7.1,52.4,7.5,52.6.4.2.7.4.7.4,0,0,.5.2,1,.3,0,0,0,0,0,0,1.4,0,29.9-2.6,44.3-27.5,2.1-3.7,3.6-7.2,3.2-11.4-.4-4.7-3.1-11.1-9.1-13.4-1.5-.6-3.1-.9-4.7-.9-5.3,0-10.9,3-14.2,8.5,2.9-7.8.2-16.1-5.8-19.6-2.2-1.3-4.5-1.8-6.8-1.8h0Z"/>
    </g>
    <g>
      <path class="cls-4" d="M203,60.6c-.1,0-.2,0-.3,0-.3,0-.7-.2-.7-.2,0,0-.3-.1-.5-.3-.1-.1-14.1-16.9-7.8-34.2,1.2-3.2,2.6-5,4.8-6.1,1.5-.8,3.4-1.2,5.3-1.2s4,.5,5.7,1.5c4.5,2.6,6.7,8,5,12.7l-.8,2.3,1.3-2.1c1.8-3,5.1-4.8,8.9-4.8s2.8.3,4.1.8c4.1,1.7,6.5,5.7,7,8.9.5,2.8-.6,5.1-1.7,7-9.2,15.4-29.4,15.6-30.3,15.6Z"/>
      <path class="cls-15" d="M203.8,18.9h0c2,0,3.9.5,5.6,1.4,4.4,2.5,6.5,7.8,4.9,12.4l-1.6,4.5,2.5-4.1c1.8-2.9,5-4.7,8.7-4.7s2.8.3,4,.8c4,1.6,6.4,5.6,6.9,8.7.5,2.8-.5,4.9-1.7,6.9-9.1,15.3-29.2,15.5-30.1,15.5s-.2,0-.2,0c-.3,0-.6-.2-.6-.2,0,0-.2,0-.4-.2-.6-.7-14-17-7.7-33.9,1.2-3.2,2.5-4.9,4.7-6,1.5-.7,3.3-1.2,5.2-1.2M203.8,18.4c-2.1,0-4,.5-5.4,1.2-2.6,1.3-3.9,3.4-4.9,6.2-6.4,17.4,7.7,34.3,7.9,34.5.3.2.6.3.6.3,0,0,.4.2.7.2,0,0,.1,0,.3,0,2.7,0,21.7-1,30.5-15.7,1.4-2.3,2.2-4.5,1.8-7.2-.5-3-2.8-7.3-7.2-9.1-1.4-.5-2.8-.8-4.2-.8-3.6,0-7.1,1.7-9.1,4.9,1.8-4.9-.6-10.4-5.1-13-1.9-1.1-3.9-1.5-5.8-1.5h0Z"/>
    </g>
    <g>
      <path class="cls-4" d="M49.8,61c-.9,0-21.1-.2-30.3-15.6-1.2-2-2.2-4.2-1.7-7,.5-3.2,2.9-7.3,7-8.9,1.3-.5,2.7-.8,4.1-.8,3.7,0,7.1,1.8,8.9,4.8l1.3,2.1-.8-2.3c-1.7-4.6.5-10.1,5-12.7,1.7-1,3.7-1.5,5.7-1.5s3.8.4,5.3,1.2c2.2,1.1,3.6,2.9,4.8,6.1,6.3,17.3-7.7,34-7.8,34.2-.2.1-.5.2-.5.3,0,0-.3.1-.7.2,0,0-.1,0-.2,0h0Z"/>
      <path class="cls-15" d="M49,19.3c1.8,0,3.7.4,5.2,1.2,2.2,1.1,3.5,2.8,4.7,6,6.2,16.9-7.1,33.2-7.7,33.9-.2.1-.4.2-.4.2,0,0-.3.1-.6.2,0,0-.1,0-.2,0-.9,0-20.9-.2-30.1-15.5-1.2-1.9-2.2-4.1-1.7-6.9.5-3.2,2.9-7.1,6.9-8.7,1.3-.5,2.6-.8,4-.8,3.6,0,6.9,1.7,8.7,4.7l2.5,4.1-1.6-4.5c-1.6-4.5.5-9.8,4.9-12.4,1.7-.9,3.6-1.4,5.6-1.4M49,18.8c-1.9,0-4,.4-5.8,1.5-4.5,2.6-6.9,8.1-5.1,13-2-3.2-5.5-4.9-9.1-4.9-1.4,0-2.9.3-4.2.8-4.4,1.8-6.7,6.1-7.2,9.1-.5,2.7.4,4.9,1.8,7.2,8.8,14.7,27.8,15.7,30.5,15.7s.3,0,.3,0c.4,0,.7-.2.7-.2,0,0,.3-.1.6-.3.2-.1,14.3-17,7.9-34.5-1-2.8-2.4-5-4.9-6.2-1.4-.7-3.3-1.2-5.4-1.2h0Z"/>
    </g>
    <path class="cls-52" d="M101,213c5.6,15.7,17.2,25.6,29.8,25.5,12.4-.1,23.7-10,29.2-25.5"/>
    <path class="cls-35" d="M362.5,44.5"/>
  </g>
  <g id="Layer_4" data-name="Layer 4" class="cls-57">
    <g>
      <path class="cls-17" d="M128,255.5c-54.3,0-98.5-44.2-98.5-98.5s44.2-98.5,98.5-98.5,98.5,44.2,98.5,98.5-44.2,98.5-98.5,98.5Z"/>
      <path class="cls-3" d="M128,59.1c54,0,97.9,43.9,97.9,97.9s-43.9,97.9-97.9,97.9S30.1,211,30.1,157s43.9-97.9,97.9-97.9M128,58c-54.7,0-99,44.3-99,99s44.3,99,99,99,99-44.3,99-99-44.3-99-99-99h0Z"/>
    </g>
    <line class="cls-26" x1="60.4" y1="115" x2="101" y2="158.7"/>
    <line class="cls-26" x1="100.6" y1="115.3" x2="60" y2="159"/>
    <line class="cls-51" x1="187.1" y1="118.4" x2="139.8" y2="141.7"/>
    <line class="cls-51" x1="189.6" y1="161.8" x2="139.6" y2="141.7"/>
    <line class="cls-31" x1="83.1" y1="205.5" x2="96.6" y2="181.5"/>
    <line class="cls-31" x1="97.2" y1="180.3" x2="112.4" y2="207.3"/>
    <line class="cls-31" x1="112.9" y1="206.5" x2="126.4" y2="182.5"/>
    <line class="cls-31" x1="126.9" y1="181.3" x2="142.2" y2="208.3"/>
    <line class="cls-31" x1="142.7" y1="207.4" x2="156.3" y2="183.5"/>
    <line class="cls-31" x1="156.8" y1="182.3" x2="172" y2="209.3"/>
    <g>
      <path class="cls-10" d="M46.1,72.5c-1.1,0-2-.7-2.3-1.7l-4.7-14.4c-.4-1.1-1.2-1.9-2.3-2.2l-14.5-4.3c-.9-.3-1.6-1-1.7-1.9-.2-.9.2-1.8,1-2.4l12.2-8.9c.9-.7,1.4-1.7,1.4-2.9l-.4-15.1c0-.7.2-1.3.7-1.8.5-.5,1.1-.8,1.8-.8s1,.2,1.4.5l12.2,8.9c.6.4,1.3.7,2,.7s.8,0,1.1-.2l14.2-5c.3,0,.6-.1.8-.1.8,0,1.5.4,2,1,.5.6.6,1.4.3,2.2l-4.7,14.4c-.3,1.1-.1,2.3.5,3.2l9.2,12c.6.8.7,1.7.3,2.6-.4.9-1.2,1.4-2.2,1.4h-15.1c-1.1,0-2.2.6-2.8,1.5l-8.6,12.5c-.5.7-1.2,1.1-2,1.1Z"/>
      <path class="cls-3" d="M37.3,16.7c.4,0,.8.1,1.1.4l12.2,8.9c.7.5,1.5.8,2.3.8s.9,0,1.3-.2l14.2-5c.2,0,.4-.1.7-.1.6,0,1.2.3,1.6.8.2.3.5.9.3,1.7l-4.7,14.4c-.4,1.2-.2,2.6.6,3.6l9.2,12c.5.6.5,1.4.2,2-.3.7-1,1.1-1.7,1.1h-15.1c-1.3,0-2.5.6-3.2,1.7l-8.6,12.5c-.4.5-.9.8-1.6.8s-1.5-.4-1.9-1.3l-4.7-14.4c-.4-1.2-1.4-2.2-2.6-2.6l-14.5-4.3c-.7-.2-1.2-.8-1.4-1.5-.1-.7.2-1.5.8-1.9l12.2-8.9c1-.8,1.7-2,1.6-3.3l-.4-15.1c0-.7.3-1.1.5-1.4.4-.4.9-.6,1.4-.6M37.3,15.7c-1.6,0-3,1.3-3,3l.4,15.1c0,1-.4,1.9-1.2,2.5l-12.2,8.9c-2,1.4-1.4,4.5.9,5.2l14.5,4.3c.9.3,1.7,1,2,1.9l4.7,14.4c.4,1.3,1.6,2,2.8,2s1.8-.4,2.4-1.3l8.6-12.5c.5-.8,1.5-1.3,2.4-1.3h15.1c2.4,0,3.8-2.8,2.3-4.7l-9.2-12c-.6-.8-.8-1.8-.5-2.7l4.7-14.4c.6-2-.9-3.9-2.8-3.9-.3,0-.7,0-1,.2l-14.2,5c-.3.1-.7.2-1,.2-.6,0-1.2-.2-1.7-.6l-12.2-8.9c-.5-.4-1.1-.6-1.7-.6h0Z"/>
    </g>
    <g>
      <path class="cls-10" d="M228.6,95c-.7,0-1.4-.4-1.7-1l-6.2-11.1c-.5-.8-1.3-1.4-2.2-1.5l-12.3-1c-.8,0-1.4-.5-1.7-1.3-.3-.8-.2-1.6.3-2.2l8.2-9.5c.6-.7.8-1.7.6-2.6l-2.9-12.5c-.2-.6,0-1.3.4-1.8.4-.5.9-.8,1.5-.8s.5,0,.8.2l11.3,5.2c.4.2.8.3,1.2.3s1-.1,1.5-.4l10.5-6.7c.3-.2.7-.3,1-.3.5,0,1.1.2,1.5.7.4.4.6,1,.5,1.6l-1.2,12.8c0,.9.3,1.9,1,2.5l9.4,8.3c.6.5.8,1.4.6,2.1-.2.8-.8,1.3-1.5,1.5l-12,2.7c-.9.2-1.7.8-2,1.7l-4.7,11.8c-.3.8-1,1.3-1.8,1.3Z"/>
      <path class="cls-3" d="M238.8,48.4h0c.4,0,.8.2,1.1.5.3.4.5.8.4,1.3l-1.2,12.8c-.1,1.1.3,2.2,1.1,2.9l9.4,8.3c.6.5.6,1.2.5,1.7-.2.6-.6,1-1.2,1.2l-12,2.7c-1,.2-1.9,1-2.3,2l-4.7,11.8c-.3.7-.9,1-1.4,1s-1.1-.3-1.4-.8l-6.2-11.1c-.5-1-1.5-1.6-2.5-1.7l-12.3-1c-.6,0-1.1-.4-1.3-1-.2-.5-.2-1.2.3-1.8l8.2-9.5c.7-.8,1-1.9.7-3l-2.9-12.5c-.1-.5,0-1.1.3-1.5.3-.4.7-.6,1.2-.6s.4,0,.6.1l11.3,5.2c.4.2.9.3,1.3.3s1.2-.2,1.7-.5l10.5-6.7c.3-.2.5-.2.8-.2M238.8,47.5c-.4,0-.8.1-1.2.4l-10.5,6.7c-.4.2-.8.4-1.2.4s-.7,0-1-.2l-11.3-5.2c-.3-.2-.7-.2-1-.2-1.5,0-2.7,1.4-2.3,3.1l2.9,12.5c.2.8,0,1.6-.5,2.3l-8.2,9.5c-1.3,1.5-.4,4,1.6,4.2l12.3,1c.8,0,1.5.5,1.9,1.2l6.2,11.1c.5.8,1.3,1.3,2.1,1.3s1.8-.5,2.2-1.5l4.7-11.8c.3-.8.9-1.3,1.7-1.5l12-2.7c1.9-.4,2.6-3,1-4.3l-9.4-8.3c-.6-.5-.9-1.3-.8-2.2l1.2-12.8c.2-1.6-1.1-2.8-2.4-2.8h0Z"/>
    </g>
    <g>
      <path class="cls-10" d="M31.9,102.1c-.3,0-.7-.1-.9-.4l-5.5-5.9c-.3-.4-.8-.6-1.3-.6s-.2,0-.3,0l-7.8,1.2c0,0-.1,0-.2,0-.4,0-.9-.2-1.1-.6-.2-.4-.3-.9,0-1.3l3.7-7.1c.3-.5.3-1.2,0-1.7l-3.7-7.3c-.2-.4-.2-.9,0-1.3.2-.4.6-.6,1-.6s.2,0,.2,0l7.8,1.5c.1,0,.2,0,.3,0,.5,0,.9-.2,1.3-.5l5.5-5.7c.3-.3.6-.4.9-.4.6,0,1.2.4,1.3,1.2l1.2,8.1c0,.6.5,1.1,1,1.4l7.1,3.7c.5.2.7.7.7,1.2,0,.5-.3.9-.7,1.1l-7.1,3.5c-.5.3-.9.8-1,1.4l-1.1,8c-.1.7-.7,1.1-1.2,1.1Z"/>
      <path class="cls-3" d="M31.8,71.6c.5,0,1,.3,1,.9l1.2,8.1c0,.7.5,1.3,1.1,1.6l7.1,3.7c.4.2.6.6.6,1,0,.4-.2.7-.6.9l-7.1,3.5c-.6.3-1,.9-1.1,1.6l-1.1,8c0,.6-.6.9-1,.9s-.5,0-.7-.3l-5.5-5.9c-.4-.4-1-.7-1.5-.7s-.2,0-.3,0l-7.8,1.2c0,0-.1,0-.2,0-.4,0-.7-.2-.9-.5-.2-.3-.2-.7,0-1.1l3.7-7.1c.3-.6.3-1.3,0-2l-3.7-7.3c-.2-.3-.2-.7,0-1.1.2-.3.5-.5.8-.5s.1,0,.2,0l7.8,1.5c.1,0,.3,0,.4,0,.5,0,1.1-.2,1.5-.6l5.5-5.7c.2-.2.5-.3.7-.3M31.8,71.1c-.4,0-.8.1-1.1.5l-5.5,5.7c-.3.3-.7.5-1.1.5s-.2,0-.3,0l-7.8-1.5c-.1,0-.2,0-.3,0-1.1,0-1.9,1.2-1.3,2.3l3.7,7.3c.2.5.2,1,0,1.5l-3.7,7.1c-.6,1.1.2,2.3,1.4,2.3s.2,0,.2,0l7.8-1.2c0,0,.2,0,.2,0,.4,0,.8.2,1.1.5l5.5,5.9c.3.3.7.5,1.1.5.7,0,1.4-.5,1.5-1.3l1.1-8c0-.5.4-1,.8-1.2l7.1-3.5c1.1-.6,1.1-2.2,0-2.8l-7.1-3.7c-.5-.2-.8-.7-.8-1.2l-1.2-8.1c-.1-.9-.8-1.4-1.6-1.4h0Z"/>
    </g>
    <path class="cls-53" d="M100.9,54.7c-12.5-2.4-19.9-14.5-16.3-27.1,2.8-10.1,13.3-16.7,23.3-14.8s12.7,9.3,10.4,17.4-8.5,10.7-14.9,9.5-8.1-5.9-6.7-11.1,5.4-6.9,9.5-6.1,5.2,3.8,4.3,7.1-3.5,4.4-6.1,3.9-3.3-2.4-2.7-4.5,2.2-2.8,3.9-2.5"/>
    <path class="cls-53" d="M186.9,68.8c12.5-2.4,19.9-14.5,16.3-27.1-2.8-10.1-13.3-16.7-23.3-14.8s-12.7,9.3-10.4,17.4c1.8,6.5,8.5,10.7,14.9,9.5s8.1-5.9,6.7-11.1-5.4-6.9-9.5-6.1-5.2,3.8-4.3,7.1,3.5,4.4,6.1,3.9,3.3-2.4,2.7-4.5-2.2-2.8-3.9-2.5"/>
  </g>
  <g id="Layer_5" data-name="Layer 5" class="cls-57">
    <g>
      <path class="cls-9" d="M127.5,247.1c-54.4,0-98.6-44.2-98.6-98.6S73.1,49.9,127.5,49.9s98.6,44.2,98.6,98.6-44.2,98.6-98.6,98.6Z"/>
      <path class="cls-3" d="M127.5,50.8c53.9,0,97.7,43.8,97.7,97.7s-43.8,97.7-97.7,97.7S29.8,202.4,29.8,148.5,73.6,50.8,127.5,50.8M127.5,49c-55,0-99.5,44.5-99.5,99.5s44.5,99.5,99.5,99.5,99.5-44.5,99.5-99.5-44.5-99.5-99.5-99.5h0Z"/>
    </g>
    <ellipse class="cls-3" cx="87.5" cy="150" rx="24.5" ry="26"/>
    <path class="cls-28" d="M55.5,121.5c4.1,1.4,13.6,4.1,22-.5,9.1-5,11.3-15.7,11.9-19.9"/>
    <path class="cls-55" d="M173,219.4c-6.4-6.8-22.2-21.7-44.4-22.4-24-.8-41.3,15.6-47.6,22.4"/>
    <path class="cls-25" d="M61.3,32.8c18.3,38.9,52.2,95.8,113.1,144,20,15.9,39.8,28.2,58,38"/>
    <path class="cls-50" d="M127.9,6.6c3.3,39.2,14.5,98.6,53.6,157.3,12.9,19.3,26.7,35.5,40.1,48.9"/>
    <path class="cls-40" d="M189.5,7.7c-4.4,36-4.8,91.4,22.1,150,8.8,19.3,19.2,35.8,29.7,49.8"/>
    <g>
      <path class="cls-9" d="M37.7,62.7c-1,0-1.8-.7-2-1.6l-2.9-12.9c-.2-.9-.8-1.6-1.6-1.9l-12.3-4.9c-.7-.3-1.2-.9-1.3-1.7,0-.8.3-1.5,1-1.9l11.4-6.8c.8-.4,1.2-1.2,1.3-2.1l.9-13.2c0-1.2,1.1-1.9,2.1-1.9s1,.2,1.3.5l10,8.7c.5.4,1.1.7,1.8.7s.4,0,.7,0l12.8-3.3c.2,0,.3,0,.5,0,.7,0,1.3.3,1.7.9.4.6.4,1.3.2,1.9l-5.2,12.2c-.3.8-.3,1.7.2,2.5l7.1,11.2c.4.6.4,1.4,0,2.1-.4.7-1,1.1-1.8,1.1s-.1,0-.2,0l-13.2-1.2c0,0-.2,0-.2,0-.8,0-1.5.4-2,1l-8.5,10.2c-.4.5-1,.7-1.6.7Z"/>
      <path class="cls-3" d="M34.1,14.1c.4,0,.8.2,1.1.4l10,8.7c.5.5,1.2.7,2,.7s.5,0,.7,0l12.8-3.3c.1,0,.3,0,.4,0,.6,0,1.1.3,1.4.8.3.5.4,1.1.1,1.6l-5.2,12.2c-.4.9-.3,1.9.2,2.8l7.1,11.2c.3.5.4,1.2,0,1.8-.3.6-.9.9-1.5.9s-.1,0-.2,0l-13.2-1.2c0,0-.2,0-.3,0-.9,0-1.7.4-2.3,1.1l-8.5,10.2c-.3.4-.8.6-1.3.6s-1.5-.4-1.7-1.4l-2.9-12.9c-.2-1-.9-1.7-1.8-2.1l-12.3-4.9c-.6-.3-1-.8-1.1-1.5,0-.7.3-1.3.8-1.6l11.4-6.8c.8-.5,1.4-1.4,1.4-2.4l.9-13.2c0-1.1,1-1.6,1.8-1.6M34.1,13.4c-1.2,0-2.3.9-2.4,2.2l-.9,13.2c0,.8-.5,1.5-1.1,1.9l-11.4,6.8c-1.7,1-1.5,3.5.3,4.2l12.3,4.9c.7.3,1.3.9,1.4,1.7l2.9,12.9c.3,1.2,1.3,1.8,2.3,1.8s1.3-.3,1.8-.9l8.5-10.2c.5-.5,1.1-.9,1.8-.9,0,0,.1,0,.2,0l13.2,1.2c0,0,.2,0,.2,0,1.8,0,3-2,2-3.6l-7.1-11.2c-.4-.7-.5-1.5-.2-2.2l5.2-12.2c.7-1.6-.5-3.3-2.2-3.3-.2,0-.4,0-.6,0l-12.8,3.3c-.2,0-.4,0-.6,0-.6,0-1.1-.2-1.6-.6l-10-8.7c-.5-.4-1-.6-1.5-.6h0Z"/>
    </g>
    <g>
      <path class="cls-9" d="M20.5,101.8c-.4,0-.8-.2-1-.6l-3.8-6.4c-.3-.4-.7-.7-1.2-.7l-7.5-.5c-.4,0-.8-.3-1-.7-.2-.4,0-.9.2-1.2l4.9-5.6c.3-.4.4-.9.3-1.4l-1.8-7.2c0-.4,0-.7.2-1,.2-.3.6-.5.9-.5s.3,0,.5,0l6.9,2.9c.2,0,.4.1.6.1s.6,0,.8-.2l6.3-4c.2-.1.4-.2.6-.2.3,0,.6.1.9.4.2.2.3.6.3.9l-.7,7.4c0,.5.2,1,.5,1.3l5.7,4.8c.3.3.5.7.4,1.2-.1.4-.4.8-.9.9l-7.3,1.6c-.5.1-.9.4-1.1.9l-2.8,6.9c-.2.4-.6.7-1.1.7Z"/>
      <path class="cls-3" d="M26.5,75h0c.3,0,.5.1.7.3.2.2.3.5.2.7l-.7,7.4c0,.5.2,1.1.6,1.4l5.7,4.8c.3.2.4.6.3,1,0,.4-.4.6-.7.7l-7.3,1.6c-.5.1-1,.5-1.2,1l-2.8,6.9c-.2.5-.6.6-.9.6s-.7-.2-.8-.5l-3.8-6.4c-.3-.5-.8-.8-1.3-.8l-7.5-.5c-.4,0-.7-.3-.8-.6-.1-.4,0-.7.2-1l4.9-5.6c.4-.4.5-1,.4-1.5l-1.8-7.2c0-.3,0-.6.2-.8.2-.2.5-.4.8-.4s.3,0,.4,0l6.9,2.9c.2,0,.4.1.7.1s.6,0,.9-.3l6.3-4c.2-.1.3-.2.5-.2M26.5,74.6c-.2,0-.5,0-.7.2l-6.3,4c-.2.1-.5.2-.7.2s-.4,0-.5-.1l-6.9-2.9c-.2,0-.4-.1-.5-.1-.8,0-1.5.8-1.3,1.7l1.8,7.2c.1.4,0,.9-.3,1.2l-4.9,5.6c-.7.8-.2,2.1.9,2.2l7.5.5c.4,0,.8.3,1.1.6l3.8,6.4c.3.4.7.6,1.1.6s1-.3,1.2-.8l2.8-6.9c.2-.4.5-.7.9-.8l7.3-1.6c1.1-.2,1.4-1.6.6-2.3l-5.7-4.8c-.3-.3-.5-.7-.5-1.1l.7-7.4c0-.8-.6-1.5-1.3-1.5h0Z"/>
    </g>
    <g>
      <path class="cls-9" d="M223.7,73.9c-.6,0-1.2-.3-1.6-.7l-8.5-10.2c-.5-.6-1.3-1-2-1s-.2,0-.2,0l-13.2,1.2c0,0-.1,0-.2,0h0c-.8,0-1.4-.4-1.8-1.1-.4-.7-.3-1.4,0-2.1l7.1-11.2c.5-.7.5-1.7.2-2.5l-5.2-12.2c-.3-.6-.2-1.3.2-1.9.4-.6,1-.9,1.7-.9s.3,0,.5,0l12.8,3.3c.2,0,.4,0,.7,0,.6,0,1.3-.2,1.8-.7l10-8.7c.4-.3.8-.5,1.3-.5.9,0,2,.7,2.1,1.9l.9,13.2c0,.9.5,1.7,1.3,2.1l11.4,6.8c.7.4,1.1,1.1,1,1.9,0,.8-.5,1.4-1.3,1.7l-12.3,4.9c-.8.3-1.4,1-1.6,1.9l-2.9,12.9c-.2.9-1,1.6-2,1.6Z"/>
      <path class="cls-3" d="M227.3,25.2c.8,0,1.7.6,1.8,1.6l.9,13.2c0,1,.6,1.9,1.4,2.4l11.4,6.8c.6.3.9,1,.8,1.6,0,.7-.5,1.2-1.1,1.5l-12.3,4.9c-.9.4-1.6,1.1-1.8,2.1l-2.9,12.9c-.2.9-1,1.4-1.7,1.4s-1-.2-1.3-.6l-8.5-10.2c-.6-.7-1.4-1.1-2.3-1.1s-.2,0-.3,0l-13.2,1.2c0,0-.1,0-.2,0-.6,0-1.2-.3-1.5-.9-.3-.6-.3-1.2,0-1.8l7.1-11.2c.5-.8.6-1.9.2-2.8l-5.2-12.2c-.2-.5-.2-1.1.1-1.6.3-.5.9-.8,1.4-.8s.3,0,.4,0l12.8,3.3c.2,0,.5,0,.7,0,.7,0,1.4-.3,2-.7l10-8.7c.3-.3.7-.4,1.1-.4M227.3,24.6c-.5,0-1.1.2-1.5.6l-10,8.7c-.4.4-1,.6-1.6.6s-.4,0-.6,0l-12.8-3.3c-.2,0-.4,0-.6,0-1.6,0-2.8,1.7-2.2,3.3l5.2,12.2c.3.7.2,1.5-.2,2.2l-7.1,11.2c-1,1.6.2,3.6,2,3.6s.1,0,.2,0l13.2-1.2c0,0,.1,0,.2,0,.7,0,1.4.3,1.8.9l8.5,10.2c.5.6,1.1.9,1.8.9,1,0,2-.7,2.3-1.8l2.9-12.9c.2-.8.7-1.4,1.4-1.7l12.3-4.9c1.8-.7,2-3.2.3-4.2l-11.4-6.8c-.7-.4-1.1-1.1-1.1-1.9l-.9-13.2c0-1.3-1.2-2.2-2.4-2.2h0Z"/>
    </g>
  </g>
  <g id="Layer_6" data-name="Layer 6" class="cls-57">
    <g>
      <path class="cls-11" d="M135,252.6c-39.5,0-71.6-30.3-71.6-67.6s32.1-67.6,71.6-67.6,71.6,30.3,71.6,67.6-32.1,67.6-71.6,67.6Z"/>
      <path class="cls-3" d="M135,117.7c39.3,0,71.3,30.2,71.3,67.3s-32,67.3-71.3,67.3-71.3-30.2-71.3-67.3,32-67.3,71.3-67.3M135,117c-39.8,0-72,30.4-72,68s32.2,68,72,68,72-30.4,72-68-32.2-68-72-68h0Z"/>
    </g>
    <ellipse class="cls-3" cx="104.6" cy="180.6" rx="17.7" ry="18.8"/>
    <path class="cls-36" d="M109.3,143.7c-2.2-.2-13.4-1.1-23.4,7-10.3,8.3-11.6,19.9-11.8,22"/>
    <ellipse class="cls-3" cx="165.4" cy="180.6" rx="17.7" ry="18.8"/>
    <path class="cls-36" d="M160.7,143.7c2.2-.2,13.4-1.1,23.4,7,10.3,8.3,11.6,19.9,11.8,22"/>
    <path class="cls-54" d="M103.7,220.8c6.1,11.6,11.5,15.6,16.1,15.5,10.9-.2,14.4-23.3,27-25.1,7.3-1.1,14.9,5.3,22.1,15.1"/>
    <line class="cls-56" x1="135.8" y1="57.7" x2="135.2" y2="85.3"/>
    <path class="cls-56" d="M116.9,36.5c-.2-.5-4-9.4,3.2-16.9,4.5-4.7,12.2-7.5,19.4-6.2,10.5,1.8,15.2,11.2,16.2,16.9,1.8,10.2-6.2,21-20,27.1"/>
    <g>
      <circle class="cls-17" cx="136" cy="101" r="7.7"/>
      <path class="cls-3" d="M136,93.7c4,0,7.3,3.3,7.3,7.3s-3.3,7.3-7.3,7.3-7.3-3.3-7.3-7.3,3.3-7.3,7.3-7.3M136,93c-4.4,0-8,3.6-8,8s3.6,8,8,8,8-3.6,8-8-3.6-8-8-8h0Z"/>
    </g>
    <line class="cls-56" x1="46.5" y1="83.4" x2="63.1" y2="105.5"/>
    <path class="cls-56" d="M18.6,78.3c-.5-.2-9-5-7.8-15.3.7-6.5,5-13.4,11.5-16.9,9.4-5,18.9-.5,23.2,3.3,7.7,6.9,8.1,20.4.9,33.7"/>
    <g>
      <path class="cls-17" d="M73.4,125c-2.4,0-4.6-1.1-6-2.9-1.3-1.6-1.8-3.6-1.6-5.6.2-2,1.3-3.8,2.9-5.1,1.4-1.1,3-1.6,4.7-1.6s4.6,1.1,6,2.9c2.6,3.3,2,8.1-1.3,10.7-1.4,1.1-3,1.6-4.7,1.6Z"/>
      <path class="cls-3" d="M73.4,110.1h0c2.3,0,4.4,1,5.8,2.8,1.2,1.5,1.7,3.5,1.5,5.4-.2,1.9-1.2,3.7-2.8,4.9-1.3,1-2.9,1.5-4.5,1.5s-4.4-1-5.8-2.8c-2.5-3.2-1.9-7.8,1.3-10.3,1.3-1,2.9-1.5,4.5-1.5M73.4,109.4c-1.7,0-3.5.6-4.9,1.7-3.5,2.7-4.1,7.7-1.4,11.2,1.6,2,3.9,3.1,6.3,3.1s3.5-.6,4.9-1.7c3.5-2.7,4.1-7.7,1.4-11.2-1.6-2-3.9-3.1-6.3-3.1h0Z"/>
    </g>
    <line class="cls-56" x1="211.5" y1="80.6" x2="196.4" y2="103.7"/>
    <path class="cls-56" d="M206.7,52.7c0-.5,1.6-10.1,11.7-12.6,6.3-1.5,14.3.1,19.8,5.1,7.9,7.1,6.9,17.6,4.8,22.9-3.9,9.6-16.4,14.6-31.3,12.3"/>
    <g>
      <path class="cls-17" d="M188.7,125.1c-1.4,0-2.8-.4-4.1-1.2-1.7-1.1-2.9-2.8-3.4-4.8s-.1-4,1-5.8c1.4-2.2,3.8-3.6,6.5-3.6s2.8.4,4.1,1.2c3.6,2.2,4.7,7,2.4,10.5-1.4,2.2-3.8,3.6-6.5,3.6Z"/>
      <path class="cls-3" d="M188.7,110.2h0c1.4,0,2.7.4,3.9,1.1,3.4,2.1,4.4,6.7,2.3,10.1-1.3,2.1-3.7,3.4-6.2,3.4s-2.7-.4-3.9-1.1c-1.7-1-2.8-2.7-3.2-4.6s-.1-3.9.9-5.5c1.3-2.1,3.7-3.4,6.2-3.4M188.7,109.5c-2.7,0-5.3,1.3-6.8,3.8-2.3,3.7-1.2,8.7,2.5,11,1.3.8,2.8,1.2,4.2,1.2,2.7,0,5.3-1.3,6.8-3.8,2.3-3.7,1.2-8.7-2.5-11-1.3-.8-2.8-1.2-4.2-1.2h0Z"/>
    </g>
    <line class="cls-32" x1="78.6" y1="45.5" x2="84.1" y2="61.8"/>
    <path class="cls-32" d="M63.1,37.1c-.2-.2-4.3-4.7-1.7-10.6,1.7-3.7,5.5-6.9,10.1-7.8,6.5-1.2,11.3,3.3,13.1,6.4,3.2,5.6.8,13.6-6,20.1"/>
    <g>
      <path class="cls-17" d="M87.9,75.6c-2,0-3.8-1.3-4.5-3.1-.4-1.2-.4-2.5.2-3.6.5-1.2,1.5-2,2.7-2.5.5-.2,1.1-.3,1.6-.3,2,0,3.8,1.3,4.5,3.1.4,1.2.4,2.5-.2,3.6-.5,1.2-1.5,2-2.7,2.5-.5.2-1.1.3-1.6.3Z"/>
      <path class="cls-3" d="M87.9,66.3c1.9,0,3.6,1.2,4.3,3,.4,1.1.4,2.4-.2,3.5-.5,1.1-1.4,1.9-2.6,2.3-.5.2-1,.3-1.5.3-1.9,0-3.6-1.2-4.3-3-.4-1.1-.4-2.4.2-3.5.5-1.1,1.4-1.9,2.6-2.3.5-.2,1-.3,1.5-.3M87.9,65.9c-.6,0-1.1,0-1.7.3-2.6.9-3.9,3.8-3,6.4.7,2,2.6,3.3,4.7,3.3s1.1,0,1.7-.3c2.6-.9,3.9-3.8,3-6.4-.7-2-2.6-3.3-4.7-3.3h0Z"/>
    </g>
    <line class="cls-32" x1="182" y1="44.6" x2="176.6" y2="60.9"/>
    <path class="cls-32" d="M174.7,28.5c0-.3-.6-6.3,5.1-9.4,3.6-1.9,8.6-2.2,12.7,0,5.9,3,7,9.5,6.5,13-.8,6.4-7.6,11.4-16.9,12.4"/>
    <g>
      <path class="cls-17" d="M174.1,75.1c-.5,0-1,0-1.4-.2-2.5-.8-3.9-3.5-3.1-6,.6-2,2.5-3.3,4.5-3.3s1,0,1.4.2c2.5.8,3.9,3.5,3.1,6-.6,2-2.5,3.3-4.5,3.3Z"/>
      <path class="cls-3" d="M174.1,65.8h0c.5,0,.9,0,1.4.2,1.2.4,2.1,1.2,2.7,2.2.6,1.1.7,2.3.3,3.5-.6,1.9-2.3,3.2-4.3,3.2s-.9,0-1.4-.2c-1.2-.4-2.1-1.2-2.7-2.2-.6-1.1-.7-2.3-.3-3.5.6-1.9,2.3-3.2,4.3-3.2M174.1,65.4c-2.1,0-4.1,1.4-4.7,3.5-.8,2.6.6,5.4,3.3,6.2.5.2,1,.2,1.5.2,2.1,0,4.1-1.4,4.7-3.5.8-2.6-.6-5.4-3.3-6.2-.5-.2-1-.2-1.5-.2h0Z"/>
    </g>
  </g>
  <g id="Layer_7" data-name="Layer 7" class="cls-57">
    <g>
      <path class="cls-8" d="M128.5,248.4c-53.4,0-96.9-43.5-96.9-96.9s43.5-96.9,96.9-96.9,96.9,43.5,96.9,96.9-43.5,96.9-96.9,96.9Z"/>
      <path class="cls-3" d="M128.5,55.3c53.1,0,96.2,43.2,96.2,96.2s-43.2,96.2-96.2,96.2-96.2-43.2-96.2-96.2,43.2-96.2,96.2-96.2M128.5,54c-53.8,0-97.5,43.7-97.5,97.5s43.7,97.5,97.5,97.5,97.5-43.7,97.5-97.5-43.7-97.5-97.5-97.5h0Z"/>
    </g>
    <path class="cls-34" d="M64.5,165.9c-16.9-17.3-15.6-43-1.7-55.2,12.8-11.2,36.8-11.5,47.3,2.9,8.5,11.6,6.8,30.8-5,39.9-9.9,7.6-24.1,5.7-31.8-4.4-6.1-8-4.7-19.4,3.2-25.5,6.3-4.9,15.4-3.6,20.3,2.8,3.9,5.1,3,12.4-2.1,16.3-4,3.1-9.9,2.3-13-1.8-2.2-2.9-2.1-8.4,1.3-10.5,2.3-1.4,5.7-1,8.3,1.1"/>
    <path class="cls-34" d="M149.4,166.1c-16.9-17.3-15.6-43-1.7-55.2,12.8-11.2,36.8-11.5,47.3,2.9,8.5,11.6,6.8,30.8-5,39.9-9.9,7.6-24.1,5.7-31.8-4.4-6.1-8-4.7-19.4,3.2-25.5,6.3-4.9,15.4-3.6,20.3,2.8,3.9,5.1,3,12.4-2.1,16.3-4,3.1-9.9,2.3-13-1.8-2.2-2.9-2.1-8.4,1.3-10.5,2.3-1.4,5.7-1,8.3,1.1"/>
    <path class="cls-13" d="M178.3,221.3c-3.5,4.1-19.7-10.1-49.3-10.3-30.2-.2-47,14.2-50.1,10.3-4.3-5.4,20.4-43,53.4-41.2,30.4,1.6,50.8,35.7,46.1,41.2Z"/>
    <ellipse class="cls-29" cx="77" cy="47.5" rx="71.8" ry="15.6" transform="translate(-13.2 41) rotate(-27.5)"/>
    <ellipse class="cls-33" cx="207.2" cy="61.9" rx="8.6" ry="37.2" transform="translate(54.1 214.6) rotate(-61.6)"/>
    <path class="cls-20" d="M39,68l-8.6.3c-.3,0-.6.2-.8.5l-4.7,7.3c-.4.7-1.5.6-1.8-.2l-2.9-8.1c-.1-.3-.4-.5-.7-.6l-8.4-2.2c-.8-.2-1-1.2-.4-1.7l6.8-5.3c.3-.2.4-.5.4-.8l-.5-8.6c0-.8.9-1.3,1.5-.9l7.2,4.8c.3.2.6.2.9.1l8-3.1c.8-.3,1.5.4,1.3,1.2l-2.4,8.3c0,.3,0,.6.2.9l5.5,6.7c.5.6,0,1.6-.7,1.6Z"/>
    <path class="cls-23" d="M133,49.2l-12.5.4c-.5,0-.9.3-1.2.7l-6.8,10.6c-.6,1-2.1.8-2.5-.3l-4.3-11.8c-.2-.4-.5-.8-1-.9l-12.1-3.2c-1.1-.3-1.5-1.8-.5-2.5l9.9-7.7c.4-.3.6-.7.5-1.2l-.7-12.5c0-1.2,1.2-1.9,2.2-1.3l10.4,7c.4.3.9.3,1.3.1l11.7-4.6c1.1-.4,2.2.6,1.9,1.7l-3.5,12c-.1.5,0,.9.3,1.3l8,9.7c.8.9.1,2.3-1.1,2.3Z"/>
    <path class="cls-22" d="M199.8,61.4l-8.6.3c-.3,0-.6.2-.8.5l-4.7,7.3c-.4.7-1.5.6-1.8-.2l-2.9-8.1c-.1-.3-.4-.5-.7-.6l-8.4-2.2c-.8-.2-1-1.2-.4-1.7l6.8-5.3c.3-.2.4-.5.4-.8l-.5-8.6c0-.8.9-1.3,1.5-.9l7.2,4.8c.3.2.6.2.9.1l8-3.1c.8-.3,1.5.4,1.3,1.2l-2.4,8.3c0,.3,0,.6.2.9l5.5,6.7c.5.6,0,1.6-.7,1.6Z"/>
    <path class="cls-22" d="M242.8,68.4l-8.6.3c-.3,0-.6.2-.8.5l-4.7,7.3c-.4.7-1.5.6-1.8-.2l-2.9-8.1c-.1-.3-.4-.5-.7-.6l-8.4-2.2c-.8-.2-1-1.2-.4-1.7l6.8-5.3c.3-.2.4-.5.4-.8l-.5-8.6c0-.8.9-1.3,1.5-.9l7.2,4.8c.3.2.6.2.9.1l8-3.1c.8-.3,1.5.4,1.3,1.2l-2.4,8.3c0,.3,0,.6.2.9l5.5,6.7c.5.6,0,1.6-.7,1.6Z"/>
  </g>
  <g id="Layer_8" data-name="Layer 8" class="cls-57">
    <ellipse class="cls-14" cx="82.8" cy="30.2" rx="23.1" ry="20.1" transform="translate(-5.1 36.5) rotate(-24.1)"/>
    <path class="cls-1" d="M154.2,155.1c22.5-10.1,34-33.3,25.7-52-7.3-16.4-27.7-23.7-47.8-18.3-.4-1.5-.9-2.9-1.5-4.3-6.7-15-26.2-20.9-43.4-13.2-1.9.8-3.7,1.8-5.3,2.9-.1-2.8-.8-5.5-1.9-8.2-5.8-13.1-22.8-18.2-37.8-11.5s-22.4,22.8-16.6,35.8c3.5,7.8,10.9,12.7,19.4,14-18.7,9-28.1,28.5-21.1,44.2,6.4,14.4,24.6,20.6,42.4,15.3.2,2.3.7,4.6,1.7,6.8,5.3,11.8,20.5,16.4,34,10.3,8.9-4,14.8-11.6,16.3-19.7,10.6,3.7,23.6,3.3,35.9-2.2ZM95.9,131.2c0,.2,0,.4,0,.7,0,0-.2,0-.3,0,0-.2.1-.4.2-.6Z"/>
    <path class="cls-1" d="M221.2,173.4c3.2-3.5,4.3-8.3,2.5-12.5-2.6-5.9-10.2-8.2-17-5.2-3.4,1.5-5.9,4-7.2,6.9-7.2-9.8-22.3-12.2-34.5-5.1-12.8,7.4-17.7,22.2-10.9,33.2,6.8,11,22.7,13.9,35.5,6.5.7-.4,1.5-.9,2.2-1.4.1,2.1.6,4.2,1.5,6.3,4.5,10.1,17.3,14.2,28.6,9.2s16.7-17.3,12.2-27.5-7.2-9-12.8-10.6Z"/>
    <ellipse class="cls-14" cx="230.8" cy="235.2" rx="11.9" ry="10.4" transform="translate(-76 114.9) rotate(-24.1)"/>
    <ellipse class="cls-14" cx="176.4" cy="221.1" rx="15.6" ry="13.6" transform="translate(-74.9 91.4) rotate(-24.1)"/>
    <ellipse class="cls-14" cx="198.5" cy="136.8" rx="8.9" ry="7.8" transform="translate(-38.6 93.1) rotate(-24.1)"/>
    <ellipse class="cls-14" cx="15.3" cy="102.9" rx="9.7" ry="8.4" transform="translate(-40.7 15.2) rotate(-24.1)"/>
    <ellipse class="cls-14" cx="213.3" cy="225.1" rx="6" ry="5.2" transform="translate(-73.4 106.8) rotate(-24.1)"/>
    <path class="cls-21" d="M67.8,161.8l91.7-103.7c-2.3-4.9-3.3-12.9-2.1-20.2,1-6.1,1.9-11.8,7.5-15.5,6.7-4.4,18.2-4.3,24.7,1.7,6.7,6.2,4.1,15,3.9,15.7,3.9-9,13.6-13.8,21.1-12.3,8.3,1.6,11.1,10.4,11.4,15.5.6,12.6-14.1,21.1-16.1,22.2-8.7,5-19.9,6.9-27.4,6.2l-97.7,110.4c3.9,8.3,4.1,37.9-10.5,42.5-7.6,2.4-19.9-1.7-23-10-1.9-5.2.4-10.2,2.6-13.4-.4-.2-.7-.4-1-.7-5.6,3.4-12.2,4.6-18,3.2-6.5-1.6-12.5-6.7-12.8-12.1-.7-13.2,32.6-26.5,45.8-29.5Z"/>
    <path class="cls-21" d="M183.3,165.4L91.6,61.7c2.3-4.9,3.3-12.9,2.1-20.2-1-6.1-1.9-11.8-7.5-15.5-6.7-4.4-18.2-4.3-24.7,1.7-6.7,6.2-4.1,15-3.9,15.7-3.9-9-13.6-13.8-21.1-12.3-8.3,1.6-11.1,10.4-11.4,15.5-.6,12.6,14.1,21.1,16.1,22.2,8.7,5,19.9,6.9,27.4,6.2l97.7,110.4c-3.9,8.3-4.1,37.9,10.5,42.5,7.6,2.4,19.9-1.7,23-10,1.9-5.2-.4-10.2-2.6-13.4.4-.2.7-.4,1-.7,5.6,3.4,12.2,4.6,18,3.2,6.5-1.6,12.5-6.7,12.8-12.1.7-13.2-32.6-26.5-45.8-29.5Z"/>
    <g>
      <path class="cls-16" d="M109.7,204.6c-6.4,0-11.7-5.2-11.7-11.7v-20.2h-.7c-11.9-.4-19.5-3.3-22.6-8.6-1.6-2.7-1.6-5.3-1.6-10,0-3.2,0-7.3-.4-12.9-.4-5.3-1.2-9.1-1.8-11.9-.4-2.1-.8-3.7-.8-5,0-31.2,25.4-56.5,56.5-56.5s56.5,25.4,56.5,56.5-.3,3.1-.8,5.2c-.6,2.7-1.3,6.4-1.8,11.7-.5,6.3-.4,10.8-.4,14.4.1,5.1.2,7.9-1.6,10.7-3.1,4.7-10.1,7.1-20.9,7.1s0,0,0,0c-.9,0-1.8,0-2.7,0h-.8s0,19.6,0,19.6c0,6.4-5.2,11.7-11.7,11.7h-33Z"/>
      <path class="cls-3" d="M126.7,68.5c30.8,0,55.8,25,55.8,55.8s-.3,2.9-.8,5c-.6,2.7-1.3,6.5-1.8,11.7-.5,6.4-.4,10.9-.4,14.5.1,4.9.2,7.6-1.5,10.3-2.9,4.5-9.8,6.8-20.3,6.8s-1.8,0-2.7,0h-1.5c0,0,0,1.5,0,1.5v18.9c0,6-4.9,10.9-10.9,10.9h-33c-6,0-10.9-4.9-10.9-10.9v-20.9h-1.4c-11.6-.4-19-3.2-22-8.2-1.5-2.6-1.5-4.9-1.5-9.7,0-3.3,0-7.3-.4-13-.4-5.3-1.2-9.2-1.8-12-.4-2.1-.7-3.6-.7-4.9,0-30.8,25-55.8,55.8-55.8M126.7,67c-31.6,0-57.3,25.6-57.3,57.3s1.8,7.7,2.6,17c1.2,14.1-.8,18.4,2.1,23.3,2.4,4.1,8.2,8.4,23.2,8.9v19.5c0,6.8,5.6,12.4,12.4,12.4h33c6.8,0,12.4-5.6,12.4-12.4v-18.9c.9,0,1.9,0,2.7,0,13.5,0,19.1-3.7,21.5-7.5,3.3-5,.8-10,2.1-25.4.8-9.3,2.5-13.5,2.5-16.9,0-31.6-25.6-57.3-57.3-57.3h0Z"/>
    </g>
    <path class="cls-3" d="M120.5,147c.6,5.6-10.1,14-20.6,12.9-9-.9-17.6-8.7-18.1-18.1-.2-4.2,1-11,5.7-13.4,4.8-2.4,12.1,2.5,26.8,12.4,4.6,3.1,6,4.3,6.2,6.2Z"/>
    <path class="cls-3" d="M133.5,147.3c-.6,5.6,10.1,14,20.6,12.9,9-.9,17.6-8.7,18.1-18.1.2-4.2-1-11-5.7-13.4-4.8-2.4-12.1,2.5-26.8,12.4-4.6,3.1-6,4.3-6.2,6.2Z"/>
    <line class="cls-49" x1="112.3" y1="204.8" x2="112.3" y2="181.1"/>
    <line class="cls-49" x1="126.7" y1="211" x2="126.7" y2="187.3"/>
    <line class="cls-49" x1="143.2" y1="204.8" x2="143.2" y2="181.1"/>
    <path class="cls-13" d="M134.2,167.9c-.8,3.1-3.3,6.2-4.9,5.8-2.8-.7-2.6-11.7-3.1-11.6-.5,0,.8,11.4-1.8,12.3-1.6.6-4.7-2.8-5.5-6.5-1.5-6.1,2.8-14.1,7.4-14.2,4.7-.1,9.5,8.1,8,14.2Z"/>
    <g>
      <path class="cls-19" d="M104,225c-.9,0-1.8.2-2.6.6.5-1.7.7-3.4.7-5.3,0-10.1-7.6-18.3-17.1-18.3s-17.1,8.2-17.1,18.3,4.1,13.8,10,16.6c-.7,1-1.2,2.3-1.2,3.7,0,3.4,2.5,6.1,5.7,6.1s5.7-2.7,5.7-6.1-.1-1.6-.4-2.3c3.6-.6,6.8-2.5,9.3-5.1.4,3.8,3.3,6.7,6.9,6.7s7-3.3,7-7.4-3.1-7.4-7-7.4Z"/>
      <ellipse class="cls-24" cx="99" cy="243.9" rx="3.8" ry="4.1"/>
    </g>
    <g>
      <path class="cls-19" d="M192.5,80.3c.9,0,1.8.2,2.6.6-.5-1.7-.7-3.4-.7-5.3,0-10.1,7.6-18.3,17.1-18.3s17.1,8.2,17.1,18.3c0,7.4-4.1,13.8-10,16.6.7,1,1.2,2.3,1.2,3.7,0,3.4-2.5,6.1-5.7,6.1s-5.7-2.7-5.7-6.1.1-1.6.4-2.3c-3.6-.6-6.8-2.5-9.3-5.1-.4,3.8-3.3,6.7-6.9,6.7s-7-3.3-7-7.4,3.1-7.4,7-7.4Z"/>
      <ellipse class="cls-24" cx="197.5" cy="99.3" rx="3.8" ry="4.1"/>
    </g>
    <ellipse class="cls-14" cx="121" cy="47.3" rx="8.9" ry="7.8" transform="translate(-8.8 53.6) rotate(-24.1)"/>
    <ellipse class="cls-14" cx="157" cy="14.3" rx="5.2" ry="6" transform="translate(79.8 151.8) rotate(-65.9)"/>
  </g>
  <g id="Layer_9" data-name="Layer 9" class="cls-57">
    <path class="cls-6" d="M80.4,106.4c14.7,0,29.2,4.9,38.5,17.1-8.7,5.2-17.5,9.4-26.4,12.3,1.3-2,2-4.3,2-6.7,0-8.3-8.6-15.1-19.3-15.1s-19.3,6.7-19.3,15.1,3,9.2,7.6,11.9c-.6,0-1.3,0-1.9,0-.6,0-1.3,0-1.9,0h0c-10.7-.1-21.5-2-32.6-5.9,3.5-15.5,28.8-28.9,53.3-28.8h0Z"/>
    <path class="cls-6" d="M171.5,106.4c24.5,0,49.8,13.3,53.3,28.8-11.1,3.9-21.9,5.7-32.6,5.9h0c-.6,0-1.3,0-1.9,0-.6,0-1.3,0-1.9,0,4.6-2.8,7.6-7.1,7.6-11.9,0-8.3-8.6-15.1-19.3-15.1s-19.3,6.7-19.3,15.1.7,4.7,2,6.7c-8.9-3-17.7-7.1-26.4-12.3,9.3-12.2,23.8-17,38.5-17.1h0Z"/>
    <g class="cls-57">
      <path class="cls-5" d="M127.5,5c-32.2,0-61.8,13.3-83.7,35.6C21.8,63,8,94.3,8,129s13.8,66,35.8,88.3c21.9,22.4,51.5,35.7,83.7,35.7s61.8-13.3,83.7-35.7c21.9-22.4,35.8-53.7,35.8-88.3s-13.8-66-35.8-88.3C189.3,18.3,159.7,5,127.5,5ZM30.2,130.7c13.8,9.4,28.3,13.9,42,14.4,13.7.4,27.1-3.2,39.3-11.2l9.7,7c-14.5,9.5-31.9,14.4-49.7,13.9-17.8-.5-35.5-6.4-51.3-17.1l9.9-6.9h0ZM230,130.7l9.9,6.9c-15.8,10.7-33.5,16.6-51.3,17.1-17.8.5-35.2-4.3-49.7-13.9l9.7-7c12.2,8,25.6,11.6,39.3,11.2,13.7-.4,28.2-4.9,42-14.4h0ZM129.3,189.1c27.5,0,55.1,10,58.4,30.4-38.7,6.9-77.5,6.7-116.2,0,2.9-20.1,30.3-30.3,57.8-30.4h0Z"/>
    </g>
    <path class="cls-2" d="M128.2,73c-23,0-44,9.5-59.7,25.4-15.6,15.9-25.5,38.3-25.5,63s9.9,47,25.5,63c15.6,15.9,36.7,25.4,59.7,25.4s44-9.5,59.7-25.4c15.6-15.9,25.5-38.3,25.5-63s-9.9-47-25.5-63c-15.6-15.9-36.7-25.4-59.7-25.4ZM58.9,162.6c9.9,6.7,20.2,9.9,30,10.2,9.8.3,19.3-2.3,28-8l6.9,5c-10.3,6.8-22.7,10.3-35.4,9.9-12.7-.4-25.3-4.6-36.6-12.2l7-4.9h0ZM201.3,162.6l7.1,4.9c-11.2,7.7-23.9,11.8-36.6,12.2-12.7.4-25.1-3.1-35.4-9.9l6.9-5c8.7,5.7,18.2,8.3,28,8,9.8-.3,20.1-3.5,30-10.2h0ZM129.6,204.2c19.6,0,39.3,7.1,41.6,21.7-27.6,4.9-55.2,4.7-82.8,0,2.1-14.3,21.6-21.6,41.2-21.7h0Z"/>
    <g>
      <path class="cls-3" d="M29,88.2c-1.6,0-3.1-.5-4.3-1.5-2.4-1.9-3.3-5-2.3-7.8l17.4-49.2c-6.7,3.8-14.4,8.6-22.8,14.4-1.2.8-2.5,1.2-4,1.2-2.3,0-4.5-1.1-5.8-3-1.1-1.5-1.5-3.4-1.1-5.2.3-1.8,1.4-3.4,2.9-4.5C37.5,13,49.6,9.4,50.1,9.3c.6-.2,1.3-.3,1.9-.3,1.9,0,3.8.8,5.1,2.2,1.8,1.9,2.4,4.6,1.5,7.1l-16.1,45.5c10.9-7.3,25.4-16.9,38.6-25.6,1.2-.8,2.5-1.2,3.9-1.2,2.3,0,4.5,1.2,5.8,3.1,2.1,3.2,1.3,7.6-1.9,9.7-22.3,14.8-48.2,32.1-55.7,37l-.4.2c-1.2.8-2.5,1.2-3.9,1.2Z"/>
      <path class="cls-17" d="M52,11c1.4,0,2.7.6,3.6,1.6,1.3,1.4,1.7,3.3,1.1,5.1l-18,51.1c11.2-7.4,28.3-18.8,43.6-29,.9-.6,1.8-.8,2.8-.8,1.6,0,3.2.8,4.2,2.2,1.5,2.3.9,5.4-1.4,6.9-25.5,17-55.7,37-56,37.2-.8.6-1.8.8-2.8.8s-2.2-.4-3.1-1.1c-1.7-1.3-2.4-3.6-1.6-5.6l19.1-54.1c-6.1,3.2-15.1,8.5-27.6,17-.9.6-1.8.9-2.8.9-1.6,0-3.2-.8-4.1-2.2-1.6-2.3-1-5.4,1.3-7C38.3,14.9,50.1,11.3,50.6,11.2c.5-.1.9-.2,1.4-.2M52,7c-.8,0-1.7.1-2.5.4-1.3.4-13.4,4.2-41.6,23.5-2,1.4-3.3,3.4-3.8,5.8-.4,2.4,0,4.8,1.4,6.7,1.7,2.4,4.5,3.9,7.4,3.9s3.6-.5,5.1-1.6c6.5-4.5,12.5-8.3,18-11.6l-15.6,44.1c-1.3,3.7-.1,7.7,3,10.1,1.6,1.2,3.5,1.9,5.5,1.9s3.5-.5,5-1.5l.3-.2c7.4-4.9,33.4-22.1,55.7-37,4.1-2.8,5.3-8.4,2.5-12.5-1.7-2.5-4.5-4-7.5-4-1.8,0-3.5.5-5,1.5-11.3,7.5-23.4,15.6-33.6,22.3l14.1-39.8c1.1-3.2.4-6.7-1.9-9.2-1.7-1.8-4.1-2.8-6.6-2.8h0Z"/>
    </g>
    <g>
      <path class="cls-3" d="M86.1,95c-2.8,0-5.3-1.6-6.4-4.2-1.3-3-.4-6.5,2.2-8.4l54.8-41.3c-9-1.4-23-3-43.3-3.8-1.9,0-3.6-.9-4.9-2.2s-1.9-3.2-1.9-5c.1-3.8,3.2-6.7,7-6.7h.3c45,1.8,61,7.3,61.6,7.6,2.4.9,4.2,3,4.6,5.5.4,2.5-.6,5.1-2.7,6.6l-45,33.9c13.7-1.7,31.7-3.3,49.5-3.3s9.3.1,13.6.3c3.9.2,6.8,3.5,6.6,7.4-.2,3.7-3.3,6.6-7,6.6s-.3,0-.4,0c-4-.2-8.2-.3-12.6-.3-36.2,0-74.3,7.1-74.6,7.2-.4,0-.9.1-1.3.1Z"/>
      <path class="cls-17" d="M93.6,25.3c0,0,.1,0,.2,0,44.7,1.8,60.4,7.2,61,7.4,1.7.6,3,2.1,3.3,4,.3,1.8-.5,3.6-1.9,4.7l-51.1,38.5c14.8-2,35.8-4.2,56.7-4.2s9,.1,13.5.3c2.8.1,4.9,2.5,4.7,5.3-.1,2.7-2.4,4.7-5,4.7s-.2,0-.3,0c-4.2-.2-8.4-.3-12.7-.3-36.5,0-74.6,7.1-75,7.2-.3,0-.6,0-.9,0-1.9,0-3.8-1.1-4.6-3-.9-2.1-.3-4.6,1.6-6l58.5-44.1c-8.8-1.6-24.2-3.6-48.2-4.6-2.8-.1-4.9-2.4-4.8-5.2.1-2.7,2.3-4.8,5-4.8M93.6,21.3c-4.9,0-8.8,3.8-9,8.6-.2,5,3.7,9.2,8.6,9.3,17,.7,29.5,1.9,38.4,3.1l-51,38.4c-3.4,2.5-4.5,7-2.8,10.8,1.4,3.3,4.7,5.4,8.2,5.4s1.1,0,1.7-.2c.4,0,38.2-7.1,74.3-7.1s8.6.1,12.5.3c.2,0,.3,0,.5,0,4.8,0,8.7-3.7,9-8.5.1-2.4-.7-4.7-2.3-6.5-1.6-1.8-3.8-2.8-6.2-3-4.3-.2-8.9-.3-13.7-.3-14.9,0-29.9,1.1-42.4,2.5l39.2-29.5c2.6-2,4-5.3,3.5-8.5-.5-3.3-2.8-6-5.9-7.1-1.7-.6-17.7-5.9-62.2-7.7-.1,0-.2,0-.3,0h0Z"/>
    </g>
    <g>
      <path class="cls-3" d="M189.8,71.4c-1.9,0-3.7-.8-5-2.1-2.1-2.1-2.6-5.3-1.3-7.9l18.9-40c-7,2.6-15.1,6.1-23.9,10.3-.9.5-2,.7-3,.7-2.7,0-5.2-1.6-6.3-4-.8-1.7-.9-3.6-.3-5.4.6-1.8,1.9-3.2,3.6-4,29.3-13.9,41.5-15.8,42-15.9.3,0,.7,0,1,0,2.2,0,4.3,1.1,5.6,2.8,1.5,2.1,1.8,4.8.7,7.1l-17.4,36.9c11.3-5.2,26.4-12.1,40.2-18.4.9-.4,1.9-.6,2.9-.6,2.7,0,5.2,1.6,6.4,4.1,1.6,3.5,0,7.7-3.4,9.3-26.3,12.1-57.4,26.3-57.6,26.4-.9.4-1.9.6-2.9.6Z"/>
      <path class="cls-17" d="M215.5,5.2c1.6,0,3.1.7,4,2,1.1,1.5,1.3,3.4.5,5.1l-19.8,41.9c11.5-5.3,29.3-13.4,45.2-20.7.7-.3,1.4-.5,2.1-.5,1.9,0,3.7,1.1,4.5,2.9,1.2,2.5,0,5.5-2.5,6.6-26.2,12-57.3,26.2-57.6,26.4-.7.3-1.4.5-2.1.5-1.3,0-2.6-.5-3.6-1.5-1.5-1.5-1.9-3.8-1-5.6l21-44.3c-6.2,2.1-15.6,5.8-28.7,12-.7.3-1.4.5-2.1.5-1.9,0-3.7-1.1-4.5-2.9-1.2-2.5-.1-5.5,2.4-6.7,29-13.8,41-15.6,41.5-15.7.2,0,.5,0,.7,0M215.5,1.2c-.4,0-.8,0-1.3,0-1.3.2-13.6,2.2-42.6,16-2.2,1-3.8,2.8-4.6,5.1-.8,2.3-.7,4.7.4,6.9,1.5,3.1,4.7,5.1,8.1,5.1s2.6-.3,3.9-.9c6.9-3.3,13.3-6.1,19.1-8.4l-16.8,35.4c-1.6,3.4-.9,7.5,1.7,10.2,1.7,1.7,4,2.7,6.4,2.7s2.6-.3,3.7-.8c.3-.1,31.5-14.4,57.6-26.4,4.5-2.1,6.5-7.4,4.4-11.9-1.5-3.2-4.7-5.2-8.2-5.2-1.3,0-2.6.3-3.8.8-10,4.6-21.8,10-35.2,16.1l15.1-32c1.4-3,1.1-6.5-.9-9.2-1.7-2.3-4.4-3.7-7.2-3.7h0Z"/>
    </g>
    <g>
      <path class="cls-18" d="M27.5,117c-6.3,0-11.5-5.2-11.5-11.5s5.2-11.5,11.5-11.5,11.5,5.2,11.5,11.5-5.2,11.5-11.5,11.5Z"/>
      <path class="cls-17" d="M27.5,96c5.2,0,9.5,4.3,9.5,9.5s-4.3,9.5-9.5,9.5-9.5-4.3-9.5-9.5,4.3-9.5,9.5-9.5M27.5,92c-7.4,0-13.5,6.1-13.5,13.5s6.1,13.5,13.5,13.5,13.5-6.1,13.5-13.5-6.1-13.5-13.5-13.5h0Z"/>
    </g>
    <g>
      <path class="cls-18" d="M225.5,113c-9.1,0-16.5-7.4-16.5-16.5s7.4-16.5,16.5-16.5,16.5,7.4,16.5,16.5-7.4,16.5-16.5,16.5Z"/>
      <path class="cls-17" d="M225.5,82c8,0,14.5,6.5,14.5,14.5s-6.5,14.5-14.5,14.5-14.5-6.5-14.5-14.5,6.5-14.5,14.5-14.5M225.5,78c-10.2,0-18.5,8.3-18.5,18.5s8.3,18.5,18.5,18.5,18.5-8.3,18.5-18.5-8.3-18.5-18.5-18.5h0Z"/>
    </g>
    <g>
      <circle class="cls-18" cx="216.5" cy="130.5" r="7.5"/>
      <path class="cls-17" d="M216.5,125c3,0,5.5,2.5,5.5,5.5s-2.5,5.5-5.5,5.5-5.5-2.5-5.5-5.5,2.5-5.5,5.5-5.5M216.5,121c-5.2,0-9.5,4.3-9.5,9.5s4.3,9.5,9.5,9.5,9.5-4.3,9.5-9.5-4.3-9.5-9.5-9.5h0Z"/>
    </g>
    <g>
      <path class="cls-18" d="M49,142c-7.7,0-14-6.3-14-14s6.3-14,14-14,14,6.3,14,14-6.3,14-14,14Z"/>
      <path class="cls-17" d="M49,116c6.6,0,12,5.4,12,12s-5.4,12-12,12-12-5.4-12-12,5.4-12,12-12M49,112c-8.8,0-16,7.2-16,16s7.2,16,16,16,16-7.2,16-16-7.2-16-16-16h0Z"/>
    </g>
    <g>
      <circle class="cls-18" cx="49.5" cy="92.5" r="8.5"/>
      <path class="cls-17" d="M49.5,86c3.6,0,6.5,2.9,6.5,6.5s-2.9,6.5-6.5,6.5-6.5-2.9-6.5-6.5,2.9-6.5,6.5-6.5M49.5,82c-5.8,0-10.5,4.7-10.5,10.5s4.7,10.5,10.5,10.5,10.5-4.7,10.5-10.5-4.7-10.5-10.5-10.5h0Z"/>
    </g>
  </g>
  <g id="Layer_10" data-name="Layer 10" class="cls-57">
    <g>
      <path class="cls-17" d="M129,196.5c-17.4,0-31.5-14.1-31.5-31.5s14.1-31.5,31.5-31.5,31.5,14.1,31.5,31.5-14.1,31.5-31.5,31.5Z"/>
      <path class="cls-3" d="M129,134c17.1,0,31,13.9,31,31s-13.9,31-31,31-31-13.9-31-31,13.9-31,31-31M129,133c-17.7,0-32,14.3-32,32s14.3,32,32,32,32-14.3,32-32-14.3-32-32-32h0Z"/>
    </g>
    <path class="cls-17" d="M165,229.9c.6,1.4-6.5,26.1-6.5,26.1,0,0-11.8,0-32.7,0-23.5,0-26.2,0-26.2,0,0,0-8-22.9-5.5-28.5,1.5-3.3,12.7-28.5,35.5-28.5s31.1,20.1,35.5,30.9Z"/>
    <path class="cls-17" d="M303,226"/>
    <path class="cls-17" d="M122,10c-4.3-4.7-18.4,1-26.4,6.4-20.2,13.5-23.2,39.2-24.3,50.8-1.9,18.6,2.2,36.5,7.3,49.2-5.1-7.7-10.5-17.8-13.8-30.9-10.9-42.4,10-76.1-1.1-79.9-8.2-2.7-26.1,13.2-34.8,28.5-15.1,26.5-2.7,51.8.9,59.3,10.1,20.7,29.2,34.6,43.5,40.9-6.9-1.8-16.1-4.8-25.7-11.2-26.2-17.3-31.6-43.3-39.2-40.6-5.6,2-7.2,17.6-4.3,29,5,19.9,23.6,27.8,29.1,30.1,13.6,5.8,28.4,5.8,38.8,3.8-5.4,1.8-14,4.7-25.4,4.2-24.3-1.1-38.3-16.6-42.2-11.6-2.9,3.6,2.4,14.9,8.9,21.5,11.3,11.5,26.8,9.2,31.3,8.6,8.1-1.2,15.4-4.6,21.2-8.5-1.7,1.6-3.9,3.5-6.6,5.5-1.8.7-3.3,1.7-4.5,3-1.9,1.1-4,2.2-6.3,3.2-19.3,8.4-35.3,2.6-36.8,7.6-1.1,3.7,6.7,9.9,13.9,12.2,9.2,2.9,17.7-.3,23-3.1-2.9,3.2-6.2,8.1-6.2,14.3,0,5.7,2.6,12.6,5.5,12.7,3.9.1,3.4-12.6,13.8-24.4,0,0,.1-.1.2-.2-.9,1.7-1.7,3.4-2.2,5.4-.6,2.3-2.9,10.1,1.8,16.6,2.7,3.7,7.7,7.1,9.6,5.8,2.7-1.7-3.7-9.8-2.4-22.4.2-1.8.5-3.4.9-4.9.1,2.2.5,5.3,1.5,9,3.7,13.7,13.5,25.4,17.2,24,1.2-.5.7-1.9,3-6,2.7-4.7,4.4-4.7,5-7,.9-3.1-1.8-5.6-10-16-6.5-8.2-7.9-10.6-9-14-1.6-5.2-1.1-9.2-1-10,.2-1.6,1.2-5.5,5-11,6.1-8.7,12.1-7.9,16-14,2-3.2,3.9-8.8,1-19,0,0-2.4-12.4-1-48.8,1.5-39.2,32.1-60.6,25-68.2Z"/>
    <path class="cls-17" d="M137,10.4c4.3-4.5,17.5,1.1,24.6,5.7,20.2,13.1,23.2,39.2,24.3,51,1.9,18.7-2.2,36.6-7.3,49.3,5.1-7.7,10.5-17.8,13.8-31,10.9-42.6-10-76.4,1.1-80.1,8.2-2.7,26.1,13.2,34.8,28.6,15.1,26.6,2.7,52-.9,59.4-10.1,20.7-29.2,34.7-43.5,41,6.9-1.8,16.1-4.8,25.7-11.2,26.2-17.4,31.6-43.5,39.2-40.7,5.6,2,7.2,17.6,4.3,29.1-5,19.9-23.6,27.9-29.1,30.2-13.6,5.8-28.4,5.8-38.8,3.8,5.4,1.8,14,4.7,25.4,4.2,24.3-1.1,38.3-16.6,42.2-11.6,2.9,3.6-2.4,15-8.9,21.6-11.3,11.5-26.8,9.3-31.3,8.6-8.1-1.2-15.4-4.6-21.2-8.6,1.7,1.6,3.9,3.5,6.6,5.5,1.8.7,3.3,1.7,4.5,3,1.9,1.1,4,2.2,6.3,3.2,19.3,8.4,35.3,2.6,36.8,7.6,1.1,3.7-6.7,9.9-13.9,12.2-9.2,2.9-17.7-.3-23-3.1,2.9,3.2,6.2,8.1,6.2,14.4,0,5.7-2.6,12.6-5.5,12.7-3.9.1-3.4-12.6-13.8-24.5,0,0-.1-.1-.2-.2.9,1.7,1.7,3.5,2.2,5.4.6,2.3,2.9,10.2-1.8,16.6-2.7,3.7-7.7,7.1-9.6,5.8-2.7-1.7,3.7-9.9,2.4-22.4-.2-1.8-.5-3.4-.9-4.9-.1,2.2-.5,5.3-1.5,9-3.7,13.7-13.5,25.5-17.2,24.1-1.2-.5-.7-1.9-3-6-2.7-4.7-4.4-4.8-5-7-.9-3.1,1.8-5.6,10-16,6.5-8.2,7.9-10.6,9-14,1.6-5.2,1.1-9.2,1-10-.2-1.6-1.2-5.5-5-11-6.1-8.7-12.1-7.9-16-14-2-3.2-3.9-8.8-1-19.1,0,0,2.4-12.6,1-49-1.5-39-30.2-60.3-23.2-67.6Z"/>
    <path class="cls-17" d="M36.4,214c-2.3,3.3-5.1,6.8-7.6,10-1.6,1.9-3.7,4.5-5.1,6.5-2.7,3.4-6.4,5.7-10.6,6.9-.2,0-.5-.2-.4-.4.7-3,2.2-5.4,3.9-7.7,1.7-2.3,4.1-3.7,6.3-5.4,1.6-1.3,4.8-3.9,6.5-5.2,2.2-1.7,4.4-3.4,6.7-5,.3-.2.6.2.4.4h0Z"/>
    <path class="cls-17" d="M46,219.6c-.4,4-1.1,8.4-1.7,12.4-.4,2.4-1,5.8-1.3,8.2-.7,4.3-2.8,8.1-5.9,11.2-.1.1-.4.1-.5,0-1.2-4.2-1-8.8.7-12.8,1.6-3.5,3.2-8,4.7-11.5,1.1-2.6,2.2-5.1,3.4-7.6.1-.3.6-.2.6.2h0Z"/>
    <path class="cls-17" d="M35.8,204.8c-3.9.9-8.3,1.7-12.3,2.4-2.4.4-5.8.9-8.2,1.4-4.3.7-8.6,0-12.5-2-.2,0-.2-.3-.1-.5,3.6-2.5,8-3.7,12.3-3.5,3.8.4,8.6.5,12.4.8,2.8.2,5.5.4,8.3.7.3,0,.4.5,0,.6h0Z"/>
    <path class="cls-17" d="M220.7,213.1c3.3,2.3,6.8,5.1,10,7.6,1.9,1.6,4.5,3.7,6.5,5.1,3.4,2.7,5.7,6.4,6.9,10.6,0,.2-.2.5-.4.4-3-.7-5.4-2.2-7.7-3.9-2.3-1.7-3.7-4.1-5.4-6.3-1.3-1.6-3.9-4.8-5.2-6.5-1.7-2.2-3.4-4.4-5-6.7-.2-.3.2-.6.4-.4h0Z"/>
    <path class="cls-17" d="M211.2,219c1.7,3.6,3.4,7.7,4.9,11.5.9,2.3,2.1,5.5,3.1,7.7,1.6,4,1.8,8.4.7,12.6,0,.2-.3.3-.4.2-3.2-3-5.3-7-6-11.3-.4-3.8-1.4-8.5-1.9-12.3-.4-2.7-.8-5.5-1.1-8.3,0-.3.4-.5.6-.2h0Z"/>
    <path class="cls-17" d="M220.8,203.7c4-.5,8.4-.8,12.5-1,2.5,0,5.9-.2,8.3-.5,4.3-.3,8.5,1,12.2,3.4.2.1.2.3,0,.5-3.9,2.1-8.3,2.8-12.6,2.1-3.8-.9-8.5-1.4-12.3-2.2-2.7-.5-5.5-1-8.2-1.7-.3,0-.3-.6,0-.6h0Z"/>
  </g>
  <g id="Layer_11" data-name="Layer 11" class="cls-57">
    <path class="cls-17" d="M181,107h-105c-14.7,38.7-29.3,77.3-44,116h193c-14.7-38.7-29.3-77.3-44-116Z"/>
    <ellipse class="cls-45" cx="128.2" cy="81.5" rx="30.8" ry="31"/>
    <path class="cls-17" d="M60.3,61.7c-3.5-8.4-8.6-14.5-12.8-18.5,0,0,0,0,0,0-.8-.3-4.4,6-6.6,10.9-1.1,2.6-2.5,6.3-3.4,11.1-2.4-3.6-4.7-7.5-7-11.7-6-10.8-10.4-21.2-13.7-30.6,0,6.8.6,17.6,5.2,29.6,5.4,14,13.3,22.7,15.4,25,3,3.2,5.8,5.6,8,7.3-.4-2.4-.8-6.5.3-11.4s3.2-8.4,4.6-10.4c2.1,4.1,4.2,8.4,6.3,12.9,4.2,9.1,7.7,17.9,10.6,26.2-.5-9.5-1.6-17.3-2.6-23.1-1.4-8-2.1-12.3-4.3-17.5Z"/>
    <path class="cls-17" d="M41.9,103.5c-4.4-3.4-9-5.1-12.4-6,0,0,0,0,0,0-.5,0-.5,4.5-.2,7.8.2,1.7.6,4.1,1.5,7-2.4-1.2-4.8-2.6-7.2-4.1-6.5-3.9-11.9-8.1-16.6-12.1,2,3.7,5.6,9.1,11.7,14.2,7.1,5.8,13.9,8.1,15.8,8.6,2.6.8,4.8,1.2,6.5,1.5-.9-1.1-2.4-3.2-3.3-6.1s-.8-5.5-.7-6.9c2.4,1.5,4.8,3.2,7.2,5,5,3.6,9.5,7.2,13.6,10.7-3.1-4.9-6.1-8.7-8.4-11.5-3.1-3.8-4.9-5.9-7.6-8Z"/>
    <path class="cls-17" d="M197.8,61.5c3.5-8.4,8.6-14.5,12.8-18.5,0,0,0,0,0,0,.8-.3,4.4,6,6.6,10.9,1.1,2.6,2.5,6.3,3.4,11.1,2.4-3.6,4.7-7.5,7-11.7,6-10.8,10.4-21.2,13.7-30.6,0,6.8-.6,17.6-5.2,29.6-5.4,14-13.3,22.7-15.4,25-3,3.2-5.8,5.6-8,7.3.4-2.4.8-6.5-.3-11.4s-3.2-8.4-4.6-10.4c-2.1,4.1-4.2,8.4-6.3,12.9-4.2,9.1-7.7,17.9-10.6,26.2.5-9.5,1.6-17.3,2.6-23.1,1.4-8,2.1-12.3,4.3-17.5Z"/>
    <path class="cls-17" d="M216.2,103.3c4.4-3.4,9-5.1,12.4-6,0,0,0,0,0,0,.5,0,.5,4.5.2,7.8-.2,1.7-.6,4.1-1.5,7,2.4-1.2,4.8-2.6,7.2-4.1,6.5-3.9,11.9-8.1,16.6-12.1-2,3.7-5.6,9.1-11.7,14.2-7.1,5.8-13.9,8.1-15.8,8.6-2.6.8-4.8,1.2-6.5,1.5.9-1.1,2.4-3.2,3.3-6.1s.8-5.5.7-6.9c-2.4,1.5-4.8,3.2-7.2,5-5,3.6-9.5,7.2-13.6,10.7,3.1-4.9,6.1-8.7,8.4-11.5,3.1-3.8,4.9-5.9,7.6-8Z"/>
  </g>
  <g id="Layer_12" data-name="Layer 12" class="cls-57">
    <path class="cls-17" d="M247.5,129.6c-4.9-4.6-12.3-11.5-21-20-23-22.4-25.4-28.4-39-38-6.5-4.6-18.4-12.7-36-17-5.7-1.4-24.5-5.4-47.5.4-18,4.5-30.1,12.8-36,17-13.6,9.6-16,15.6-39,38-8.7,8.5-16.1,15.4-21,20,11.6,11.4,24.7,23.8,39,37,7.5,6.9,18.3,16.7,34,27,5.1,3.4,7.9,5.1,12,7,1.8.8,3.7,1.6,5.7,2.3,9,3.7,18.9,5.7,29.3,5.7,17.6,0,33.8-5.8,46.9-15.7,15.5-10.2,26.2-19.9,33.6-26.8,14.3-13.2,27.4-25.6,39-37Z"/>
    <circle class="cls-3" cx="128" cy="130" r="75"/>
    <path class="cls-17" d="M143.3,71.7c-2.9-4.2-6.3-8.4-12.1-12.7h-4c-5.7,4.2-9.3,8.3-12.2,12.5,0,0-4.9,7.3-6.8,18.9-1.9,11.2,3.2,38.2,18.5,69.5h4c15.5-31.2,20.8-58,19.1-69.3-1.8-11.6-6.6-19-6.6-19Z"/>
    <circle class="cls-38" cx="129" cy="185" r="10.5"/>
    <path class="cls-44" d="M91.5,89.5c-2.1,1.8-18.7,16.3-18,40,.7,22,15.6,35,18,37"/>
    <path class="cls-44" d="M167,89.3c2.1,1.8,18.7,16.3,18,40-.7,22-15.6,35-18,37"/>
  </g>
  <g id="Layer_13" data-name="Layer 13" class="cls-57">
    <path class="cls-17" d="M114.6,187.4c-.9-.7-3.4-2.1-11.6,1.6-7.7,3.5-11.7,7.6-17,12-8.1,6.8-18.7,15.6-23,13-4-2.4-3-14.9-2.2-20.3.4-2.5,1-4.7.8-6.4.3-.2.7-.4,1-.7,1-.4,1.7-.9,2-1.7.1-.3.1-.6,0-.9,1.4-2.4,2.3-5.7,1.4-8.9-1.1-4.1-5.2-7.8-7.4-7-1.3.5-1.8,2.6-1.9,4.9-12.2-15.2-13.5-18.8-15-18.2-3.4,1.4-2.9,21.6,7.3,29,1,.7,2,1.3,3,1.7-11.2,5.9-14.2,36-1.9,44.5,1.5,1,4.7,2.8,14,2,25.7-2.2,51-20.2,52.6-36.4.2-1.5.6-6.2-2-8.2Z"/>
    <path class="cls-17" d="M136.4,185.8c.9-.7,3.4-2.1,11.6,1.6,7.7,3.5,11.7,7.6,17,12,8.1,6.8,18.7,15.6,23,13,4-2.4,3-14.9,2.2-20.3-.4-2.5-1-4.7-.8-6.4-.3-.2-.7-.4-1-.7-1-.4-1.7-.9-2-1.7-.1-.3-.1-.6,0-.9-1.4-2.4-2.3-5.7-1.4-8.9,1.1-4.1,5.2-7.8,7.4-7,1.3.5,1.8,2.6,1.9,4.9,12.2-15.2,13.5-18.8,15-18.2,3.4,1.4,2.9,21.6-7.3,29-1,.7-2,1.3-3,1.7,11.2,5.9,14.2,36,1.9,44.5-1.5,1-4.7,2.8-14,2-25.7-2.2-51-20.2-52.6-36.4-.2-1.5-.6-6.2,2-8.2Z"/>
    <g>
      <g>
        <path class="cls-17" d="M126,181c-18.2,0-33-14.8-33-33s14.8-33,33-33,33,14.8,33,33-14.8,33-33,33Z"/>
        <path class="cls-3" d="M126,118c16.6,0,30,13.4,30,30s-13.4,30-30,30-30-13.4-30-30,13.4-30,30-30M126,112c-19.9,0-36,16.1-36,36s16.1,36,36,36,36-16.1,36-36-16.1-36-36-36h0Z"/>
      </g>
      <g>
        <path class="cls-17" d="M126,308c-11,0-21.2-7-28.7-19.6-7.3-12.2-11.3-28.3-11.3-45.4s4-33.2,11.3-45.4c7.6-12.7,17.8-19.6,28.7-19.6s21.2,7,28.7,19.6c7.3,12.2,11.3,28.3,11.3,45.4s-4,33.2-11.3,45.4c-7.6,12.7-17.8,19.6-28.7,19.6Z"/>
        <path class="cls-3" d="M126,181c20.4,0,37,27.8,37,62s-16.6,62-37,62-37-27.8-37-62,16.6-62,37-62M126,175c-12.1,0-23.2,7.5-31.3,21.1-7.5,12.6-11.7,29.3-11.7,46.9s4.1,34.3,11.7,46.9c8.1,13.6,19.2,21.1,31.3,21.1s23.2-7.5,31.3-21.1c7.5-12.6,11.7-29.3,11.7-46.9s-4.1-34.3-11.7-46.9c-8.1-13.6-19.2-21.1-31.3-21.1h0Z"/>
      </g>
    </g>
    <path class="cls-17" d="M150,180c.2-2.8,3-4.4,5-6,8.8-6.9,12.4-19.5,12-28-.3-5.4-2.2-9.3-4-13-1.5-3-5.7-11.2-15.2-17.3-3.3-2.1-10.5-5.9-20.1-6.2-3.7-.1-6.7.3-8.4.7-7.4,1.4-14.3,5-19.9,10.5-4.6,4.4-8,9.7-10.1,15.5-2.4,6.7-2.3,12.2-2.3,13.3,0,3.3.3,15,8,22.5,2.3,2.2,4.4,3.2,5,6,.7,3.5-1.2,8.3-4,9-6.4,1.7-21.5-17.5-22-37.5-.2-8.6,2.3-15.5,3.3-18.4,2.8-7.4,7.2-14.1,13.1-19.8,10.4-10,23.8-15.2,37.8-14.8,19.7.6,33,13.8,37.3,18,3.6,3.5,8.8,8.7,12.5,17.2,1.5,3.6,5.1,12,4,22.3-2.1,18.8-19.1,35.5-27,33-2.7-.8-5.2-4.2-5-7Z"/>
    <polygon class="cls-17" points="107 101 125.5 12.6 144 101 107 101 107 101"/>
    <polygon class="cls-17" points="87.6 126.3 26.4 48.9 107 102.9 87.6 126.3 87.6 126.3"/>
    <polygon class="cls-17" points="81 150 37.5 136.5 81 123 81 150"/>
    <polygon class="cls-17" points="166.1 129.8 227.3 52.3 146.7 106.3 166.1 129.8 166.1 129.8"/>
    <polygon class="cls-17" points="172.7 126.4 216.2 139.9 172.7 153.4 172.7 126.4 172.7 126.4"/>
    <path class="cls-41" d="M101.5,147.5c.3.3,3.8,4.5,10.2,4.5s6.7,0,10.2-4.5"/>
    <path class="cls-41" d="M130.8,147.6c.3.3,3.8,4.5,10.2,4.5s6.7,0,10.2-4.5"/>
  </g>
  <g id="Layer_14" data-name="Layer 14" class="cls-57">
    <path class="cls-17" d="M29,145.8v66.2c0,6.6,5.4,12,12,12h174c6.6,0,12-5.4,12-12v-66.3c-65.8,3.5-132.3-1.3-198,.1Z"/>
    <path class="cls-3" d="M222.7,144.6c-.1,0-.2,0-.3,0-2.6.2-5.2.4-7.7.7,0,.3,0,.6-.1.9,2.5,0,5.1-.2,7.6-.3.1-.4.3-.9.6-1.3Z"/>
    <path class="cls-3" d="M121,145.6c-2.8.2-5.6.3-8.4.6,0,0,0,0,0,.1,2.8,0,5.7.1,8.5.2,0-.3,0-.6-.1-.8Z"/>
    <ellipse class="cls-17" cx="126" cy="169" rx="40" ry="54"/>
    <path class="cls-3" d="M214.5,146.3c-.1.6-.3,1.2-.7,1.7h2.2v36h-97v-36h2.4c-.1-.5-.2-1-.3-1.5-2.8,0-5.7-.1-8.5-.2,0,.6,0,1.1-.2,1.7h1.5v36H28.5v5h27.5v41.5h5v-41.5h100v41.5h5v-41.5h71.5v-5h-16.5v-36h1.2c-.2-.6-.2-1.3,0-2-2.5.1-5.1.2-7.6.3Z"/>
    <line class="cls-46" x1="20" y1="146.5" x2="249" y2="146.5"/>
    <circle class="cls-17" cx="126" cy="89" r="23"/>
    <path class="cls-17" d="M90.3,52.6c-.4-.2-4.9-2-8.6.5-.6.4-2.5,1.7-3,4.2-.4,1.7-.2,4.3,1.5,5.8,1.6,1.4,3.9,1.1,5.5.9,2.8-.3,3.3-1.4,5.4-1.5,1.4,0,3.3.4,5.8,2.5,0-1.6-.4-4.7-2.4-8-1.4-2.2-3-3.6-4.1-4.4Z"/>
    <path class="cls-17" d="M90.4,68.5c-.2,0-2.7.7-3.5,3-.1.3-.5,1.5,0,2.8.4.8,1.3,1.9,2.5,1.9,1.1,0,2-.8,2.6-1.4,1.1-1,1-1.7,1.8-2.4.6-.5,1.5-.9,3.2-.8-.5-.6-1.7-1.9-3.6-2.6-1.3-.5-2.4-.6-3.2-.6Z"/>
    <path class="cls-17" d="M106.2,55.3c0-.2-.8-2.7-3.1-3.4-.3-.1-1.5-.4-2.8.2-.8.4-1.8,1.3-1.9,2.6,0,1.1.8,2,1.4,2.6,1.1,1,1.7.9,2.4,1.7.5.6,1,1.5.9,3.2.6-.5,1.9-1.7,2.5-3.7.5-1.3.5-2.5.5-3.2Z"/>
    <path class="cls-48" d="M105.5,87.5c1.1.1,5.1.5,9-2,4.8-3.1,5.8-8.1,6-9"/>
    <path class="cls-48" d="M145.7,87.2c-1.1.1-5.1.5-9-2-4.8-3.1-5.8-8.1-6-9"/>
  </g>
  <g id="Layer_15" data-name="Layer 15" class="cls-57">
    <path class="cls-17" d="M121,125s-19,27-42.5,27-42.5-27-42.5-27c0,0,19-27,42.5-27s42.5,27,42.5,27Z"/>
    <path class="cls-17" d="M218,124.8s-19.2,27-42.9,27-42.9-27-42.9-27c0,0,19.2-27,42.9-27s42.9,27,42.9,27Z"/>
    <circle class="cls-3" cx="78.5" cy="124.5" r="12.5"/>
    <circle class="cls-3" cx="170.5" cy="124.5" r="12.5"/>
    <g class="cls-58">
      <path class="cls-17" d="M77.4,208.9c5.1-12.9,4.5-29.9-2-47.1-2.7.8-21.1,6.2-34.1,19-.1,0-.3,0-.4,0-2.3-18.3-11.7-37.3-26.2-52.7-2.7,3.8-28,40.1-18.9,76.4.1.5.9,3.4,2.3,7.2-.3,2-.5,4.1-.5,6.1,0,20.8,16.2,37.7,36.1,37.7s5.6-.4,8.3-1c3.4.9,6.8,1.5,9.9,1.8,24.5,2.4,52.4-11.2,71.6-33.8-2.9-1.5-22.6-11.8-46.2-13.5Z"/>
      <path class="cls-17" d="M178.1,209c-5.1-12.9-4.5-29.9,2-47.1,2.7.8,21.1,6.2,34.1,19,.1,0,.3,0,.4,0,2.3-18.3,11.7-37.3,26.2-52.7,2.7,3.8,28,40.1,18.9,76.4-.1.5-.9,3.4-2.3,7.2.3,2,.5,4.1.5,6.1,0,20.8-16.2,37.7-36.1,37.7s-5.6-.4-8.3-1c-3.4.9-6.8,1.5-9.9,1.8-24.5,2.4-52.4-11.2-71.6-33.8,2.9-1.5,22.6-11.8,46.2-13.5Z"/>
      <path class="cls-17" d="M40.7,78.9c12.6,5.8,29.5,5.9,46.9.2-.6-2.7-5.2-21.4-17.3-35.1,0-.1,0-.3.1-.4,18.3-1.5,37.7-10,53.7-23.8-3.7-2.9-38.6-30-75.1-22.5-.6.1-3.5.7-7.3,1.9-2-.4-4-.7-6.1-.8C14.8-2.4-2.7,13-3.7,33c-.1,2.9,0,5.7.6,8.4-1,3.4-1.8,6.7-2.2,9.9-3.5,24.5,8.7,53,30.3,73.4,1.7-2.8,12.8-22.2,15.6-45.7Z"/>
      <path class="cls-17" d="M187.6,39.1c-8.3,11.2-11.9,27.8-10,46,2.8,0,22-.6,37.8-9.7.1,0,.3.1.4.2-2.4,18.3,1.8,39.1,12,57.7,3.6-3,37.3-31.6,37.6-69,0-.6,0-3.5-.4-7.5.8-1.9,1.5-3.8,2-5.8,5.3-20.2-6.1-40.6-25.4-45.7-2.8-.7-5.5-1.1-8.3-1.1-3.1-1.7-6.2-3.2-9.1-4.2-23.1-8.6-53.5-2.5-77.8,14.4,2.4,2.2,18.9,17.2,41.3,24.9Z"/>
    </g>
  </g>
  <g id="Layer_17" data-name="Layer 17">
    <path class="cls-2" d="M133,209"/>
    <path class="cls-30" d="M213.1,39.2C191.2,16.8,161.5,3.5,129.2,3.5s-61.9,13.3-83.9,35.7C23.4,61.6,9.5,93,9.5,127.7s13.9,66.1,35.9,88.5c22,22.4,51.6,35.7,83.9,35.7s61.9-13.3,83.9-35.7c22-22.4,35.9-53.8,35.9-88.5s-13.9-66.1-35.9-88.5ZM21.8,136.4l9.9-6.9c13.9,9.4,28.4,14,42.1,14.4,13.8.4,27.2-3.2,39.4-11.2l9.7,7.1c-14.5,9.5-31.9,14.4-49.8,13.9-17.8-.5-35.6-6.4-51.4-17.2ZM190.4,153.6c-17.8.5-35.2-4.4-49.8-13.9l9.7-7.1c12.2,8,25.7,11.6,39.4,11.2,13.8-.4,28.2-4.9,42.1-14.4l9.9,6.9c-15.8,10.8-33.6,16.6-51.4,17.2Z"/>
    <path class="cls-42" d="M59.9,194.6c45.7,0,91.4,0,137.1-.1"/>
  </g>
</svg>