<?xml version="1.0" encoding="UTF-8"?>
<svg xmlns="http://www.w3.org/2000/svg" viewBox="0 0 256 256">
  <defs>
    <style>
      .cls-1 {
        fill: #fff;
      }

      .cls-2 {
        stroke-width: 13.44px;
      }

      .cls-2, .cls-3, .cls-4 {
        stroke: #000;
      }

      .cls-2, .cls-3, .cls-4, .cls-5 {
        fill: none;
        stroke-linecap: round;
        stroke-miterlimit: 10;
      }

      .cls-6 {
        fill: #fff8a1;
      }

      .cls-3 {
        stroke-width: 14px;
      }

      .cls-4 {
        stroke-width: 8.96px;
      }

      .cls-5 {
        stroke: #fff;
        stroke-width: 3px;
      }
    </style>
  </defs>
  <g id="Layer_1" data-name="Layer 1">
    <g>
      <rect x=".5" y=".5" width="255" height="255" rx="38.5" ry="38.5"/>
      <path d="m217,1c20.95,0,38,17.05,38,38v178c0,20.95-17.05,38-38,38H39c-20.95,0-38-17.05-38-38V39C1,18.05,18.05,1,39,1h178m0-1H39C17.55,0,0,17.55,0,39v178c0,21.45,17.55,39,39,39h178c21.45,0,39-17.55,39-39V39c0-21.45-17.55-39-39-39h0Z"/>
    </g>
  </g>
  <g id="Layer_4" data-name="Layer 4">
    <g>
      <circle class="cls-1" cx="128" cy="157" r="98.46"/>
      <path d="m128,59.07c54,0,97.93,43.93,97.93,97.93s-43.93,97.93-97.93,97.93S30.07,211,30.07,157s43.93-97.93,97.93-97.93m0-1.07c-54.68,0-99,44.32-99,99s44.32,99,99,99,99-44.32,99-99-44.32-99-99-99h0Z"/>
    </g>
    <line class="cls-2" x1="60.41" y1="115" x2="101" y2="158.7"/>
    <line class="cls-2" x1="100.59" y1="115.3" x2="60" y2="159"/>
    <line class="cls-3" x1="187.07" y1="118.35" x2="139.81" y2="141.69"/>
    <line class="cls-3" x1="189.64" y1="161.84" x2="139.62" y2="141.73"/>
    <line class="cls-4" x1="83.08" y1="205.47" x2="96.6" y2="181.5"/>
    <line class="cls-4" x1="97.17" y1="180.33" x2="112.38" y2="207.3"/>
    <line class="cls-4" x1="112.86" y1="206.46" x2="126.37" y2="182.5"/>
    <line class="cls-4" x1="126.94" y1="181.32" x2="142.15" y2="208.29"/>
    <line class="cls-4" x1="142.75" y1="207.45" x2="156.26" y2="183.48"/>
    <line class="cls-4" x1="156.83" y1="182.31" x2="172.04" y2="209.28"/>
    <g>
      <path class="cls-6" d="m46.13,72.45c-1.08,0-2-.66-2.33-1.69l-4.68-14.37c-.35-1.08-1.21-1.91-2.3-2.24l-14.49-4.29c-.91-.27-1.55-.99-1.71-1.93-.16-.94.2-1.83.97-2.39l12.22-8.89c.92-.67,1.45-1.74,1.42-2.87l-.39-15.11c-.02-.67.22-1.29.68-1.76.47-.48,1.11-.75,1.77-.75.51,0,1,.16,1.42.47l12.23,8.88c.59.43,1.29.66,2.02.66.39,0,.78-.07,1.15-.2l14.25-5.04c.27-.1.55-.15.83-.15.77,0,1.51.38,1.97,1.02.46.63.58,1.43.34,2.18l-4.66,14.38c-.35,1.08-.15,2.26.54,3.16l9.2,11.99c.58.75.67,1.71.25,2.57-.42.85-1.24,1.36-2.19,1.36h-15.11c-1.13,0-2.19.57-2.84,1.5l-8.56,12.45c-.46.67-1.19,1.06-2,1.06Z"/>
      <path d="m37.29,16.66c.41,0,.79.13,1.13.38l12.23,8.88c.68.49,1.48.75,2.32.75.45,0,.89-.08,1.32-.23l14.25-5.04c.22-.08.44-.12.66-.12.61,0,1.19.3,1.57.82.21.3.53.91.27,1.73l-4.66,14.38c-.4,1.23-.17,2.59.62,3.62l9.2,11.99c.46.6.54,1.36.2,2.04-.33.68-.99,1.08-1.74,1.08h-15.11c-1.3,0-2.51.65-3.25,1.72l-8.56,12.45c-.37.54-.95.84-1.59.84s-1.54-.35-1.86-1.34l-4.68-14.37c-.4-1.23-1.38-2.19-2.63-2.56l-14.49-4.29c-.73-.21-1.23-.79-1.36-1.53-.13-.75.16-1.46.77-1.9l12.22-8.89c1.05-.76,1.66-1.99,1.62-3.29l-.39-15.11c-.02-.68.28-1.14.54-1.4.37-.38.89-.6,1.42-.6m0-1c-1.55,0-3,1.25-2.95,3.03l.39,15.11c.03.97-.43,1.89-1.21,2.46l-12.22,8.89c-1.97,1.43-1.44,4.51.89,5.2l14.49,4.29c.93.28,1.66.99,1.96,1.91l4.68,14.37c.43,1.32,1.61,2.03,2.81,2.03.91,0,1.82-.41,2.41-1.28l8.56-12.45c.55-.8,1.46-1.28,2.42-1.28h15.11c2.44,0,3.82-2.81,2.33-4.74l-9.2-11.99c-.59-.77-.76-1.78-.46-2.7l4.66-14.38c.64-1.98-.89-3.86-2.79-3.86-.32,0-.66.06-1,.17l-14.25,5.04c-.32.11-.65.17-.98.17-.61,0-1.22-.19-1.73-.56l-12.23-8.88c-.54-.39-1.14-.57-1.72-.57h0Z"/>
    </g>
    <g>
      <path class="cls-6" d="m228.57,95.01c-.71,0-1.35-.39-1.72-1.04l-6.2-11.11c-.47-.83-1.3-1.38-2.22-1.45l-12.28-1.03c-.75-.06-1.38-.54-1.68-1.26-.31-.76-.18-1.61.35-2.21l8.2-9.52c.61-.71.85-1.69.63-2.62l-2.92-12.47c-.15-.65,0-1.31.39-1.82.38-.48.93-.76,1.51-.76.27,0,.55.06.81.18l11.27,5.23c.37.17.75.26,1.15.26.52,0,1.03-.15,1.47-.43l10.47-6.68c.32-.2.66-.31,1.02-.31.54,0,1.07.24,1.46.66.4.44.59,1.03.53,1.65l-1.23,12.75c-.09.95.27,1.89.97,2.51l9.39,8.35c.6.53.84,1.36.64,2.15-.2.76-.76,1.31-1.49,1.48l-12.03,2.65c-.91.2-1.66.85-2.01,1.74l-4.67,11.84c-.31.79-1.01,1.27-1.82,1.27Z"/>
      <path d="m238.83,48.38h0c.43,0,.84.19,1.15.53.32.36.47.83.43,1.33l-1.23,12.75c-.1,1.08.31,2.15,1.11,2.86l9.39,8.35c.58.51.64,1.23.51,1.73-.16.61-.6,1.05-1.18,1.17l-12.03,2.65c-1.04.23-1.9.97-2.3,1.99l-4.67,11.84c-.29.75-.93,1.01-1.44,1.01-.57,0-1.06-.3-1.35-.83l-6.2-11.11c-.53-.95-1.49-1.58-2.55-1.67l-12.28-1.03c-.59-.05-1.09-.43-1.33-1.01-.2-.48-.23-1.2.28-1.79l8.2-9.52c.7-.81.97-1.93.72-2.98l-2.92-12.47c-.12-.53-.01-1.05.31-1.46.3-.38.74-.6,1.19-.6.21,0,.43.05.63.15l11.27,5.23c.42.2.87.29,1.33.29.6,0,1.19-.17,1.69-.5l10.47-6.68c.25-.16.52-.24.8-.24m0-.83c-.42,0-.84.12-1.24.37l-10.47,6.68c-.38.24-.81.37-1.25.37-.33,0-.67-.07-.98-.22l-11.27-5.23c-.33-.15-.66-.22-.98-.22-1.46,0-2.7,1.43-2.31,3.08l2.92,12.47c.19.8-.01,1.64-.54,2.25l-8.2,9.52c-1.32,1.54-.37,4,1.61,4.16l12.28,1.03c.79.07,1.49.53,1.89,1.24l6.2,11.11c.47.84,1.28,1.25,2.08,1.25.91,0,1.81-.52,2.21-1.54l4.67-11.84c.3-.76.94-1.31,1.71-1.48l12.03-2.65c1.94-.43,2.56-2.99,1.04-4.34l-9.39-8.35c-.6-.53-.91-1.34-.84-2.16l1.23-12.75c.15-1.57-1.07-2.77-2.4-2.77h0Z"/>
    </g>
    <g>
      <path class="cls-6" d="m31.9,102.05c-.35,0-.68-.15-.93-.42l-5.55-5.92c-.35-.37-.83-.58-1.33-.58-.09,0-.18,0-.28.02l-7.82,1.24c-.07.01-.14.02-.2.02-.44,0-.85-.24-1.1-.64-.25-.41-.27-.9-.05-1.32l3.68-7.14c.27-.53.27-1.18,0-1.72l-3.7-7.27c-.22-.42-.2-.92.04-1.31.23-.38.62-.6,1.05-.6.08,0,.16,0,.25.02l7.82,1.51c.11.02.23.03.34.03.48,0,.94-.19,1.27-.54l5.53-5.73c.3-.31.65-.38.88-.38.56,0,1.19.4,1.3,1.16l1.15,8.07c.09.6.45,1.13.99,1.41l7.12,3.72c.45.24.73.7.72,1.22,0,.5-.27.93-.71,1.15l-7.11,3.48c-.54.26-.91.78-.99,1.38l-1.13,8.03c-.1.72-.71,1.1-1.25,1.1Z"/>
      <path d="m31.81,71.6c.45,0,.95.32,1.04.93l1.15,8.07c.1.69.52,1.29,1.13,1.6l7.12,3.72c.37.19.58.56.58.98,0,.4-.22.74-.56.91l-7.11,3.48c-.61.3-1.04.89-1.14,1.58l-1.13,8.03c-.08.6-.57.88-.98.88-.19,0-.48-.06-.74-.33l-5.55-5.92c-.4-.42-.95-.67-1.52-.67-.11,0-.21,0-.32.03l-7.82,1.24c-.06,0-.11.01-.16.01-.35,0-.68-.19-.87-.51-.2-.33-.22-.72-.04-1.06l3.68-7.14c.31-.61.31-1.34,0-1.96l-3.7-7.27c-.18-.35-.16-.73.03-1.05.18-.3.49-.47.82-.47.06,0,.13,0,.2.02l7.82,1.51c.13.02.26.04.39.04.55,0,1.08-.23,1.46-.62l5.53-5.73c.24-.25.51-.3.69-.3m0-.53c-.38,0-.77.14-1.07.46l-5.53,5.73c-.29.3-.68.46-1.08.46-.1,0-.19,0-.29-.03l-7.82-1.51c-.1-.02-.2-.03-.3-.03-1.11,0-1.88,1.22-1.33,2.3l3.7,7.27c.24.47.24,1.02,0,1.47l-3.68,7.14c-.56,1.08.25,2.35,1.39,2.35.08,0,.16,0,.25-.02l7.82-1.24c.08-.01.16-.02.24-.02.42,0,.83.18,1.13.5l5.55,5.92c.32.34.73.5,1.12.5.71,0,1.39-.5,1.51-1.33l1.13-8.03c.07-.51.39-.96.84-1.18l7.11-3.48c1.15-.56,1.15-2.24,0-2.84l-7.12-3.72c-.46-.24-.77-.69-.85-1.21l-1.15-8.07c-.12-.86-.84-1.39-1.57-1.38h0Z"/>
    </g>
    <path class="cls-5" d="m100.86,54.71c-12.54-2.37-19.85-14.51-16.32-27.11,2.83-10.08,13.25-16.72,23.29-14.83,8.03,1.52,12.7,9.29,10.44,17.35-1.81,6.45-8.48,10.7-14.9,9.49-5.14-.97-8.13-5.94-6.68-11.11,1.16-4.13,5.43-6.85,9.54-6.07,3.29.62,5.2,3.8,4.28,7.11-.74,2.64-3.47,4.38-6.1,3.89-2.1-.4-3.33-2.43-2.74-4.55.47-1.69,2.22-2.81,3.91-2.49"/>
    <path class="cls-5" d="m186.86,68.77c12.54-2.37,19.85-14.51,16.32-27.11-2.83-10.08-13.25-16.72-23.29-14.83-8.03,1.52-12.7,9.29-10.44,17.35,1.81,6.45,8.48,10.7,14.9,9.49,5.14-.97,8.13-5.94,6.68-11.11-1.16-4.13-5.43-6.85-9.54-6.07-3.29.62-5.2,3.8-4.28,7.11.74,2.64,3.47,4.38,6.1,3.89,2.1-.4,3.33-2.43,2.74-4.55-.47-1.69-2.22-2.81-3.91-2.49"/>
  </g>
</svg>