<?xml version="1.0" encoding="UTF-8"?>
<svg xmlns="http://www.w3.org/2000/svg" viewBox="0 0 256 256">
  <defs>
    <style>
      .cls-1 {
        fill: #f9c2ff;
      }
    </style>
  </defs>
  <g id="Layer_1" data-name="Layer 1">
    <g>
      <rect x=".5" y=".5" width="255" height="255" rx="38.5" ry="38.5"/>
      <path d="m217,1c20.95,0,38,17.05,38,38v178c0,20.95-17.05,38-38,38H39c-20.95,0-38-17.05-38-38V39C1,18.05,18.05,1,39,1h178m0-1H39C17.55,0,0,17.55,0,39v178c0,21.45,17.55,39,39,39h178c21.45,0,39-17.55,39-39V39c0-21.45-17.55-39-39-39h0Z"/>
    </g>
  </g>
  <g id="Layer_9" data-name="Layer 9">
    <path d="m80.41,106.44c14.72.04,29.17,4.92,38.48,17.08-8.68,5.22-17.47,9.37-26.4,12.33,1.29-2.02,2.01-4.29,2.01-6.7,0-8.31-8.64-15.05-19.31-15.05s-19.3,6.74-19.3,15.05c0,4.86,2.96,9.18,7.55,11.94-.63.02-1.25.03-1.88.04-.63,0-1.25,0-1.88,0h0c-10.68-.11-21.53-1.99-32.61-5.85,3.51-15.51,28.81-28.89,53.35-28.82h0Z"/>
    <path d="m171.5,106.44c24.54-.07,49.84,13.31,53.35,28.82-11.08,3.86-21.93,5.74-32.61,5.85h0c-.63,0-1.26,0-1.88,0-.63,0-1.25-.02-1.88-.03,4.59-2.75,7.55-7.07,7.55-11.94,0-8.31-8.64-15.05-19.3-15.05s-19.31,6.74-19.31,15.05c0,2.41.72,4.68,2.01,6.7-8.92-2.95-17.72-7.1-26.4-12.33,9.3-12.16,23.75-17.04,38.48-17.08h0Z"/>
    <path class="cls-1" d="m127.49,5c-32.2,0-61.75,13.28-83.7,35.65C21.84,63.02,8,94.33,8,128.98s13.84,65.97,35.79,88.34c21.94,22.37,51.5,35.66,83.7,35.66s61.78-13.29,83.72-35.66c21.94-22.37,35.79-53.68,35.79-88.34s-13.85-65.96-35.79-88.34C189.27,18.28,159.69,5,127.49,5ZM30.18,130.69c13.85,9.43,28.31,13.94,42.04,14.36,13.72.42,27.11-3.18,39.33-11.2l9.71,7.05c-14.5,9.52-31.88,14.41-49.65,13.87-17.78-.54-35.54-6.41-51.3-17.14l9.88-6.93h0Zm199.77,0l9.9,6.93c-15.77,10.73-33.55,16.6-51.33,17.14-17.78.54-35.16-4.35-49.65-13.87l9.71-7.05c12.22,8.02,25.6,11.61,39.33,11.2,13.73-.42,28.19-4.93,42.04-14.36h0Zm-100.6,58.39c27.48-.08,55.07,9.97,58.42,30.42-38.73,6.93-77.46,6.65-116.19,0,2.91-20.13,30.28-30.34,57.76-30.42h0Z"/>
  </g>
</svg>