<?xml version="1.0" encoding="UTF-8"?>
<svg xmlns="http://www.w3.org/2000/svg" viewBox="0 0 256 256">
  <defs>
    <style>
      .cls-1 {
        fill: #fff;
      }

      .cls-2 {
        stroke-width: 16px;
      }

      .cls-2, .cls-3, .cls-4, .cls-5, .cls-6 {
        fill: none;
        stroke: #000;
        stroke-linecap: round;
        stroke-miterlimit: 10;
      }

      .cls-3 {
        stroke-width: 6.36px;
      }

      .cls-4 {
        stroke-width: 6.67px;
      }

      .cls-5 {
        stroke-width: 8px;
      }

      .cls-6 {
        stroke-width: 7px;
      }
    </style>
  </defs>
  <g id="Layer_1" data-name="Layer 1">
    <g>
      <rect x=".5" y=".5" width="255" height="255" rx="38.5" ry="38.5"/>
      <path d="m217,1c20.95,0,38,17.05,38,38v178c0,20.95-17.05,38-38,38H39c-20.95,0-38-17.05-38-38V39C1,18.05,18.05,1,39,1h178m0-1H39C17.55,0,0,17.55,0,39v178c0,21.45,17.55,39,39,39h178c21.45,0,39-17.55,39-39V39c0-21.45-17.55-39-39-39h0Z"/>
    </g>
  </g>
  <g id="Layer_5" data-name="Layer 5">
    <g>
      <circle class="cls-1" cx="127.5" cy="148.5" r="98.62"/>
      <path d="m127.5,50.76c53.89,0,97.74,43.85,97.74,97.74s-43.85,97.74-97.74,97.74S29.76,202.39,29.76,148.5,73.61,50.76,127.5,50.76m0-1.76c-54.95,0-99.5,44.55-99.5,99.5s44.55,99.5,99.5,99.5,99.5-44.55,99.5-99.5-44.55-99.5-99.5-99.5h0Z"/>
    </g>
    <g>
      <ellipse cx="87.5" cy="150" rx="23.85" ry="25.35"/>
      <path class="cls-1" d="m87.5,125.3c12.79,0,23.2,11.08,23.2,24.7s-10.41,24.7-23.2,24.7-23.2-11.08-23.2-24.7,10.41-24.7,23.2-24.7m0-1.3c-13.53,0-24.5,11.64-24.5,26s10.97,26,24.5,26,24.5-11.64,24.5-26-10.97-26-24.5-26h0Z"/>
    </g>
    <path class="cls-5" d="m55.5,121.5c4.09,1.42,13.65,4.08,21.97-.54,9.05-5.03,11.29-15.69,11.94-19.91"/>
    <path class="cls-2" d="m173,219.42c-6.43-6.85-22.25-21.69-44.35-22.39-24.04-.77-41.29,15.64-47.63,22.39"/>
    <path class="cls-6" d="m61.3,32.81c18.35,38.88,52.25,95.84,113.11,144.04,20.02,15.85,39.77,28.24,58,37.96"/>
    <path class="cls-4" d="m127.86,6.62c3.25,39.24,14.47,98.59,53.57,157.3,12.86,19.31,26.7,35.49,40.06,48.9"/>
    <path class="cls-3" d="m189.53,7.72c-4.35,36.03-4.79,91.39,22.1,149.97,8.85,19.27,19.25,35.82,29.71,49.81"/>
    <g>
      <path class="cls-1" d="m37.7,62.74c-.97,0-1.8-.66-2.01-1.6l-2.93-12.91c-.19-.86-.8-1.56-1.61-1.88l-12.3-4.9c-.74-.3-1.22-.95-1.29-1.74-.06-.8.31-1.52,1-1.92l11.37-6.78c.75-.45,1.24-1.24,1.29-2.11l.86-13.21c.08-1.25,1.12-1.92,2.06-1.92.49,0,.96.18,1.34.51l9.96,8.72c.49.43,1.11.66,1.75.66.22,0,.44-.03.66-.08l12.83-3.26c.17-.04.35-.07.52-.07.68,0,1.32.35,1.7.93.38.58.44,1.29.17,1.93l-5.22,12.17c-.35.81-.27,1.73.2,2.47l7.07,11.2c.41.64.43,1.42.06,2.08-.37.67-1.03,1.06-1.79,1.06-.07,0-.13,0-.2,0l-13.19-1.2c-.08,0-.16-.01-.24-.01-.79,0-1.54.35-2.05.96l-8.46,10.18c-.4.48-.95.74-1.57.74Z"/>
      <path d="m34.14,14.05c.42,0,.81.15,1.14.44l9.96,8.72c.54.47,1.24.74,1.96.74.25,0,.49-.03.73-.09l12.83-3.26c.15-.04.3-.06.45-.06.58,0,1.12.3,1.45.79.33.49.38,1.09.14,1.64l-5.22,12.17c-.39.9-.3,1.93.22,2.75l7.07,11.2c.34.55.36,1.21.05,1.77-.31.57-.88.91-1.52.91-.06,0-.11,0-.17,0l-13.19-1.2c-.09,0-.18-.01-.27-.01-.89,0-1.72.39-2.28,1.07l-8.46,10.18c-.34.41-.81.63-1.33.63-.68,0-1.5-.43-1.71-1.36l-2.93-12.91c-.22-.95-.89-1.74-1.8-2.1l-12.3-4.9c-.63-.25-1.04-.81-1.09-1.48-.05-.68.26-1.29.85-1.64l11.37-6.78c.84-.5,1.38-1.38,1.44-2.36l.86-13.21c.07-1.06.96-1.64,1.75-1.64m0-.61c-1.16,0-2.28.87-2.37,2.21l-.86,13.21c-.05.77-.48,1.47-1.15,1.87l-11.37,6.78c-1.68,1-1.48,3.49.33,4.22l12.3,4.9c.72.29,1.25.91,1.43,1.67l2.93,12.91c.27,1.17,1.28,1.84,2.31,1.84.65,0,1.32-.27,1.8-.85l8.46-10.18c.45-.54,1.12-.85,1.81-.85.07,0,.14,0,.21,0l13.19,1.2c.08,0,.15.01.23.01,1.82,0,2.98-2.03,1.98-3.62l-7.07-11.2c-.41-.66-.48-1.47-.17-2.19l5.22-12.17c.69-1.6-.53-3.29-2.15-3.29-.19,0-.39.02-.6.08l-12.83,3.26c-.19.05-.39.07-.58.07-.56,0-1.12-.2-1.55-.58l-9.96-8.72c-.46-.4-1.01-.59-1.54-.59h0Z"/>
    </g>
    <g>
      <path class="cls-1" d="m20.54,101.79c-.41,0-.78-.21-.99-.57l-3.82-6.42c-.25-.42-.7-.7-1.19-.73l-7.45-.49c-.45-.03-.82-.3-.99-.71-.17-.42-.1-.87.2-1.21l4.92-5.61c.33-.37.45-.88.33-1.36l-1.83-7.24c-.09-.35-.02-.71.2-.99.22-.28.56-.45.91-.45.16,0,.31.03.46.1l6.86,2.95c.19.08.39.12.59.12.28,0,.56-.08.8-.23l6.32-3.98c.19-.12.4-.18.61-.18.33,0,.64.14.86.38.22.24.32.55.29.88l-.68,7.44c-.04.49.15.97.53,1.29l5.74,4.78c.35.29.49.72.38,1.16-.1.44-.43.76-.87.86l-7.28,1.65c-.48.11-.88.45-1.06.91l-2.77,6.93c-.18.45-.59.73-1.08.73Z"/>
      <path d="m26.47,74.96h0c.28,0,.55.12.74.33.19.2.27.47.25.75l-.68,7.44c-.05.55.17,1.09.6,1.44l5.74,4.78c.29.25.42.61.33.99-.09.37-.37.65-.74.73l-7.28,1.65c-.54.12-.98.5-1.19,1.01l-2.77,6.93c-.18.46-.59.62-.92.62-.35,0-.66-.18-.84-.48l-3.82-6.42c-.28-.47-.78-.78-1.33-.81l-7.45-.49c-.38-.03-.7-.25-.84-.61-.15-.35-.08-.74.17-1.03l4.92-5.61c.36-.41.5-.98.36-1.52l-1.83-7.24c-.08-.3-.01-.6.17-.84.19-.24.48-.39.78-.39.13,0,.26.03.39.08l6.86,2.95c.21.09.43.14.66.14.32,0,.62-.09.89-.26l6.32-3.98c.16-.1.34-.15.52-.15m0-.34c-.24,0-.48.06-.71.21l-6.32,3.98c-.22.14-.46.2-.71.2-.18,0-.36-.04-.52-.11l-6.86-2.95c-.18-.08-.36-.11-.53-.11-.82,0-1.51.78-1.29,1.66l1.83,7.24c.11.42,0,.87-.29,1.2l-4.92,5.61c-.73.83-.19,2.13.91,2.2l7.45.49c.44.03.83.27,1.05.65l3.82,6.42c.26.44.7.65,1.14.65.51,0,1.02-.29,1.24-.84l2.77-6.93c.16-.41.51-.71.94-.8l7.28-1.65c1.07-.24,1.4-1.61.56-2.32l-5.74-4.78c-.34-.28-.51-.71-.47-1.14l.68-7.44c.08-.83-.59-1.45-1.33-1.45h0Z"/>
    </g>
    <g>
      <path class="cls-1" d="m223.73,73.86c-.61,0-1.17-.26-1.57-.74l-8.46-10.18c-.51-.61-1.25-.96-2.05-.96-.08,0-.16,0-.24.01l-13.19,1.2c-.07,0-.13,0-.2,0h0c-.75,0-1.42-.4-1.79-1.06-.37-.66-.34-1.44.06-2.08l7.07-11.2c.47-.74.54-1.67.2-2.47l-5.22-12.17c-.28-.65-.22-1.35.17-1.93.38-.58,1.02-.93,1.7-.93.17,0,.35.02.52.07l12.83,3.26c.21.05.44.08.66.08.65,0,1.27-.23,1.75-.66l9.96-8.72c.38-.33.85-.51,1.34-.51.94,0,1.98.67,2.06,1.92l.86,13.21c.06.87.54,1.67,1.29,2.11l11.37,6.78c.69.41,1.06,1.13.99,1.92-.06.8-.54,1.45-1.29,1.74l-12.3,4.9c-.82.32-1.42,1.03-1.61,1.88l-2.93,12.91c-.21.94-1.04,1.6-2.01,1.6Z"/>
      <path d="m227.29,25.16h0c.8,0,1.69.57,1.75,1.64l.86,13.21c.06.98.6,1.86,1.44,2.36l11.37,6.78c.58.35.9.96.85,1.64-.05.68-.46,1.23-1.09,1.48l-12.3,4.9c-.91.36-1.58,1.15-1.8,2.1l-2.93,12.91c-.21.93-1.04,1.36-1.71,1.36-.52,0-.99-.22-1.33-.63l-8.46-10.18c-.57-.68-1.4-1.07-2.28-1.07-.09,0-.18,0-.27.01l-13.19,1.2c-.06,0-.11,0-.17,0-.64,0-1.21-.34-1.52-.91-.31-.56-.29-1.23.05-1.77l7.07-11.2c.52-.83.6-1.86.22-2.75l-5.22-12.17c-.24-.55-.18-1.15.14-1.64.33-.5.87-.79,1.45-.79.15,0,.3.02.45.06l12.83,3.26c.24.06.49.09.73.09.72,0,1.41-.26,1.96-.74l9.96-8.72c.33-.29.72-.44,1.14-.44m0-.61c-.53,0-1.08.18-1.54.59l-9.96,8.72c-.43.38-.99.58-1.55.58-.19,0-.39-.02-.58-.07l-12.83-3.26c-.2-.05-.4-.08-.6-.08-1.62,0-2.84,1.69-2.15,3.29l5.22,12.17c.31.71.24,1.53-.17,2.19l-7.07,11.2c-1,1.59.16,3.62,1.98,3.62.07,0,.15,0,.23-.01l13.19-1.2c.07,0,.14,0,.21,0,.7,0,1.36.31,1.81.85l8.46,10.18c.48.58,1.15.85,1.8.85,1.03,0,2.05-.67,2.31-1.84l2.93-12.91c.17-.76.71-1.38,1.43-1.67l12.3-4.9c1.82-.72,2.01-3.21.33-4.22l-11.37-6.78c-.67-.4-1.09-1.1-1.15-1.87l-.86-13.21c-.09-1.34-1.2-2.21-2.37-2.21h0Z"/>
    </g>
  </g>
</svg>